%TF.GenerationSoftware,KiCad,Pcbnew,7.0.5*%
%TF.CreationDate,2024-03-20T11:13:37-04:00*%
%TF.ProjectId,Lab_08,4c61625f-3038-42e6-9b69-6361645f7063,rev?*%
%TF.SameCoordinates,Original*%
%TF.FileFunction,Legend,Top*%
%TF.FilePolarity,Positive*%
%FSLAX46Y46*%
G04 Gerber Fmt 4.6, Leading zero omitted, Abs format (unit mm)*
G04 Created by KiCad (PCBNEW 7.0.5) date 2024-03-20 11:13:37*
%MOMM*%
%LPD*%
G01*
G04 APERTURE LIST*
%ADD10C,0.100000*%
%ADD11C,0.150000*%
%ADD12C,0.300000*%
%ADD13C,0.400000*%
%ADD14C,0.120000*%
G04 APERTURE END LIST*
D10*
D11*
X177002200Y-166007200D02*
X285002200Y-166007200D01*
X285002200Y-198007200D01*
X177002200Y-198007200D01*
X177002200Y-166007200D01*
D10*
D11*
X10000000Y-10000000D02*
X287002200Y-10000000D01*
X287002200Y-200007200D01*
X10000000Y-200007200D01*
X10000000Y-10000000D01*
D10*
D11*
X12000000Y-12000000D02*
X285002200Y-12000000D01*
X285002200Y-198007200D01*
X12000000Y-198007200D01*
X12000000Y-12000000D01*
D10*
D11*
X60000000Y-12000000D02*
X60000000Y-10000000D01*
D10*
D11*
X110000000Y-12000000D02*
X110000000Y-10000000D01*
D10*
D11*
X160000000Y-12000000D02*
X160000000Y-10000000D01*
D10*
D11*
X210000000Y-12000000D02*
X210000000Y-10000000D01*
D10*
D11*
X260000000Y-12000000D02*
X260000000Y-10000000D01*
D10*
D11*
X36089160Y-11593604D02*
X35346303Y-11593604D01*
X35717731Y-11593604D02*
X35717731Y-10293604D01*
X35717731Y-10293604D02*
X35593922Y-10479319D01*
X35593922Y-10479319D02*
X35470112Y-10603128D01*
X35470112Y-10603128D02*
X35346303Y-10665033D01*
D10*
D11*
X85346303Y-10417414D02*
X85408207Y-10355509D01*
X85408207Y-10355509D02*
X85532017Y-10293604D01*
X85532017Y-10293604D02*
X85841541Y-10293604D01*
X85841541Y-10293604D02*
X85965350Y-10355509D01*
X85965350Y-10355509D02*
X86027255Y-10417414D01*
X86027255Y-10417414D02*
X86089160Y-10541223D01*
X86089160Y-10541223D02*
X86089160Y-10665033D01*
X86089160Y-10665033D02*
X86027255Y-10850747D01*
X86027255Y-10850747D02*
X85284398Y-11593604D01*
X85284398Y-11593604D02*
X86089160Y-11593604D01*
D10*
D11*
X135284398Y-10293604D02*
X136089160Y-10293604D01*
X136089160Y-10293604D02*
X135655826Y-10788842D01*
X135655826Y-10788842D02*
X135841541Y-10788842D01*
X135841541Y-10788842D02*
X135965350Y-10850747D01*
X135965350Y-10850747D02*
X136027255Y-10912652D01*
X136027255Y-10912652D02*
X136089160Y-11036461D01*
X136089160Y-11036461D02*
X136089160Y-11345985D01*
X136089160Y-11345985D02*
X136027255Y-11469795D01*
X136027255Y-11469795D02*
X135965350Y-11531700D01*
X135965350Y-11531700D02*
X135841541Y-11593604D01*
X135841541Y-11593604D02*
X135470112Y-11593604D01*
X135470112Y-11593604D02*
X135346303Y-11531700D01*
X135346303Y-11531700D02*
X135284398Y-11469795D01*
D10*
D11*
X185965350Y-10726938D02*
X185965350Y-11593604D01*
X185655826Y-10231700D02*
X185346303Y-11160271D01*
X185346303Y-11160271D02*
X186151064Y-11160271D01*
D10*
D11*
X236027255Y-10293604D02*
X235408207Y-10293604D01*
X235408207Y-10293604D02*
X235346303Y-10912652D01*
X235346303Y-10912652D02*
X235408207Y-10850747D01*
X235408207Y-10850747D02*
X235532017Y-10788842D01*
X235532017Y-10788842D02*
X235841541Y-10788842D01*
X235841541Y-10788842D02*
X235965350Y-10850747D01*
X235965350Y-10850747D02*
X236027255Y-10912652D01*
X236027255Y-10912652D02*
X236089160Y-11036461D01*
X236089160Y-11036461D02*
X236089160Y-11345985D01*
X236089160Y-11345985D02*
X236027255Y-11469795D01*
X236027255Y-11469795D02*
X235965350Y-11531700D01*
X235965350Y-11531700D02*
X235841541Y-11593604D01*
X235841541Y-11593604D02*
X235532017Y-11593604D01*
X235532017Y-11593604D02*
X235408207Y-11531700D01*
X235408207Y-11531700D02*
X235346303Y-11469795D01*
D10*
D11*
X285965350Y-10293604D02*
X285717731Y-10293604D01*
X285717731Y-10293604D02*
X285593922Y-10355509D01*
X285593922Y-10355509D02*
X285532017Y-10417414D01*
X285532017Y-10417414D02*
X285408207Y-10603128D01*
X285408207Y-10603128D02*
X285346303Y-10850747D01*
X285346303Y-10850747D02*
X285346303Y-11345985D01*
X285346303Y-11345985D02*
X285408207Y-11469795D01*
X285408207Y-11469795D02*
X285470112Y-11531700D01*
X285470112Y-11531700D02*
X285593922Y-11593604D01*
X285593922Y-11593604D02*
X285841541Y-11593604D01*
X285841541Y-11593604D02*
X285965350Y-11531700D01*
X285965350Y-11531700D02*
X286027255Y-11469795D01*
X286027255Y-11469795D02*
X286089160Y-11345985D01*
X286089160Y-11345985D02*
X286089160Y-11036461D01*
X286089160Y-11036461D02*
X286027255Y-10912652D01*
X286027255Y-10912652D02*
X285965350Y-10850747D01*
X285965350Y-10850747D02*
X285841541Y-10788842D01*
X285841541Y-10788842D02*
X285593922Y-10788842D01*
X285593922Y-10788842D02*
X285470112Y-10850747D01*
X285470112Y-10850747D02*
X285408207Y-10912652D01*
X285408207Y-10912652D02*
X285346303Y-11036461D01*
D10*
D11*
X60000000Y-198007200D02*
X60000000Y-200007200D01*
D10*
D11*
X110000000Y-198007200D02*
X110000000Y-200007200D01*
D10*
D11*
X160000000Y-198007200D02*
X160000000Y-200007200D01*
D10*
D11*
X210000000Y-198007200D02*
X210000000Y-200007200D01*
D10*
D11*
X260000000Y-198007200D02*
X260000000Y-200007200D01*
D10*
D11*
X36089160Y-199600804D02*
X35346303Y-199600804D01*
X35717731Y-199600804D02*
X35717731Y-198300804D01*
X35717731Y-198300804D02*
X35593922Y-198486519D01*
X35593922Y-198486519D02*
X35470112Y-198610328D01*
X35470112Y-198610328D02*
X35346303Y-198672233D01*
D10*
D11*
X85346303Y-198424614D02*
X85408207Y-198362709D01*
X85408207Y-198362709D02*
X85532017Y-198300804D01*
X85532017Y-198300804D02*
X85841541Y-198300804D01*
X85841541Y-198300804D02*
X85965350Y-198362709D01*
X85965350Y-198362709D02*
X86027255Y-198424614D01*
X86027255Y-198424614D02*
X86089160Y-198548423D01*
X86089160Y-198548423D02*
X86089160Y-198672233D01*
X86089160Y-198672233D02*
X86027255Y-198857947D01*
X86027255Y-198857947D02*
X85284398Y-199600804D01*
X85284398Y-199600804D02*
X86089160Y-199600804D01*
D10*
D11*
X135284398Y-198300804D02*
X136089160Y-198300804D01*
X136089160Y-198300804D02*
X135655826Y-198796042D01*
X135655826Y-198796042D02*
X135841541Y-198796042D01*
X135841541Y-198796042D02*
X135965350Y-198857947D01*
X135965350Y-198857947D02*
X136027255Y-198919852D01*
X136027255Y-198919852D02*
X136089160Y-199043661D01*
X136089160Y-199043661D02*
X136089160Y-199353185D01*
X136089160Y-199353185D02*
X136027255Y-199476995D01*
X136027255Y-199476995D02*
X135965350Y-199538900D01*
X135965350Y-199538900D02*
X135841541Y-199600804D01*
X135841541Y-199600804D02*
X135470112Y-199600804D01*
X135470112Y-199600804D02*
X135346303Y-199538900D01*
X135346303Y-199538900D02*
X135284398Y-199476995D01*
D10*
D11*
X185965350Y-198734138D02*
X185965350Y-199600804D01*
X185655826Y-198238900D02*
X185346303Y-199167471D01*
X185346303Y-199167471D02*
X186151064Y-199167471D01*
D10*
D11*
X236027255Y-198300804D02*
X235408207Y-198300804D01*
X235408207Y-198300804D02*
X235346303Y-198919852D01*
X235346303Y-198919852D02*
X235408207Y-198857947D01*
X235408207Y-198857947D02*
X235532017Y-198796042D01*
X235532017Y-198796042D02*
X235841541Y-198796042D01*
X235841541Y-198796042D02*
X235965350Y-198857947D01*
X235965350Y-198857947D02*
X236027255Y-198919852D01*
X236027255Y-198919852D02*
X236089160Y-199043661D01*
X236089160Y-199043661D02*
X236089160Y-199353185D01*
X236089160Y-199353185D02*
X236027255Y-199476995D01*
X236027255Y-199476995D02*
X235965350Y-199538900D01*
X235965350Y-199538900D02*
X235841541Y-199600804D01*
X235841541Y-199600804D02*
X235532017Y-199600804D01*
X235532017Y-199600804D02*
X235408207Y-199538900D01*
X235408207Y-199538900D02*
X235346303Y-199476995D01*
D10*
D11*
X285965350Y-198300804D02*
X285717731Y-198300804D01*
X285717731Y-198300804D02*
X285593922Y-198362709D01*
X285593922Y-198362709D02*
X285532017Y-198424614D01*
X285532017Y-198424614D02*
X285408207Y-198610328D01*
X285408207Y-198610328D02*
X285346303Y-198857947D01*
X285346303Y-198857947D02*
X285346303Y-199353185D01*
X285346303Y-199353185D02*
X285408207Y-199476995D01*
X285408207Y-199476995D02*
X285470112Y-199538900D01*
X285470112Y-199538900D02*
X285593922Y-199600804D01*
X285593922Y-199600804D02*
X285841541Y-199600804D01*
X285841541Y-199600804D02*
X285965350Y-199538900D01*
X285965350Y-199538900D02*
X286027255Y-199476995D01*
X286027255Y-199476995D02*
X286089160Y-199353185D01*
X286089160Y-199353185D02*
X286089160Y-199043661D01*
X286089160Y-199043661D02*
X286027255Y-198919852D01*
X286027255Y-198919852D02*
X285965350Y-198857947D01*
X285965350Y-198857947D02*
X285841541Y-198796042D01*
X285841541Y-198796042D02*
X285593922Y-198796042D01*
X285593922Y-198796042D02*
X285470112Y-198857947D01*
X285470112Y-198857947D02*
X285408207Y-198919852D01*
X285408207Y-198919852D02*
X285346303Y-199043661D01*
D10*
D11*
X10000000Y-60000000D02*
X12000000Y-60000000D01*
D10*
D11*
X10000000Y-110000000D02*
X12000000Y-110000000D01*
D10*
D11*
X10000000Y-160000000D02*
X12000000Y-160000000D01*
D10*
D11*
X10690476Y-35222176D02*
X11309523Y-35222176D01*
X10566666Y-35593604D02*
X10999999Y-34293604D01*
X10999999Y-34293604D02*
X11433333Y-35593604D01*
D10*
D11*
X11092857Y-84912652D02*
X11278571Y-84974557D01*
X11278571Y-84974557D02*
X11340476Y-85036461D01*
X11340476Y-85036461D02*
X11402380Y-85160271D01*
X11402380Y-85160271D02*
X11402380Y-85345985D01*
X11402380Y-85345985D02*
X11340476Y-85469795D01*
X11340476Y-85469795D02*
X11278571Y-85531700D01*
X11278571Y-85531700D02*
X11154761Y-85593604D01*
X11154761Y-85593604D02*
X10659523Y-85593604D01*
X10659523Y-85593604D02*
X10659523Y-84293604D01*
X10659523Y-84293604D02*
X11092857Y-84293604D01*
X11092857Y-84293604D02*
X11216666Y-84355509D01*
X11216666Y-84355509D02*
X11278571Y-84417414D01*
X11278571Y-84417414D02*
X11340476Y-84541223D01*
X11340476Y-84541223D02*
X11340476Y-84665033D01*
X11340476Y-84665033D02*
X11278571Y-84788842D01*
X11278571Y-84788842D02*
X11216666Y-84850747D01*
X11216666Y-84850747D02*
X11092857Y-84912652D01*
X11092857Y-84912652D02*
X10659523Y-84912652D01*
D10*
D11*
X11402380Y-135469795D02*
X11340476Y-135531700D01*
X11340476Y-135531700D02*
X11154761Y-135593604D01*
X11154761Y-135593604D02*
X11030952Y-135593604D01*
X11030952Y-135593604D02*
X10845238Y-135531700D01*
X10845238Y-135531700D02*
X10721428Y-135407890D01*
X10721428Y-135407890D02*
X10659523Y-135284080D01*
X10659523Y-135284080D02*
X10597619Y-135036461D01*
X10597619Y-135036461D02*
X10597619Y-134850747D01*
X10597619Y-134850747D02*
X10659523Y-134603128D01*
X10659523Y-134603128D02*
X10721428Y-134479319D01*
X10721428Y-134479319D02*
X10845238Y-134355509D01*
X10845238Y-134355509D02*
X11030952Y-134293604D01*
X11030952Y-134293604D02*
X11154761Y-134293604D01*
X11154761Y-134293604D02*
X11340476Y-134355509D01*
X11340476Y-134355509D02*
X11402380Y-134417414D01*
D10*
D11*
X10659523Y-185593604D02*
X10659523Y-184293604D01*
X10659523Y-184293604D02*
X10969047Y-184293604D01*
X10969047Y-184293604D02*
X11154761Y-184355509D01*
X11154761Y-184355509D02*
X11278571Y-184479319D01*
X11278571Y-184479319D02*
X11340476Y-184603128D01*
X11340476Y-184603128D02*
X11402380Y-184850747D01*
X11402380Y-184850747D02*
X11402380Y-185036461D01*
X11402380Y-185036461D02*
X11340476Y-185284080D01*
X11340476Y-185284080D02*
X11278571Y-185407890D01*
X11278571Y-185407890D02*
X11154761Y-185531700D01*
X11154761Y-185531700D02*
X10969047Y-185593604D01*
X10969047Y-185593604D02*
X10659523Y-185593604D01*
D10*
D11*
X287002200Y-60000000D02*
X285002200Y-60000000D01*
D10*
D11*
X287002200Y-110000000D02*
X285002200Y-110000000D01*
D10*
D11*
X287002200Y-160000000D02*
X285002200Y-160000000D01*
D10*
D11*
X285692676Y-35222176D02*
X286311723Y-35222176D01*
X285568866Y-35593604D02*
X286002199Y-34293604D01*
X286002199Y-34293604D02*
X286435533Y-35593604D01*
D10*
D11*
X286095057Y-84912652D02*
X286280771Y-84974557D01*
X286280771Y-84974557D02*
X286342676Y-85036461D01*
X286342676Y-85036461D02*
X286404580Y-85160271D01*
X286404580Y-85160271D02*
X286404580Y-85345985D01*
X286404580Y-85345985D02*
X286342676Y-85469795D01*
X286342676Y-85469795D02*
X286280771Y-85531700D01*
X286280771Y-85531700D02*
X286156961Y-85593604D01*
X286156961Y-85593604D02*
X285661723Y-85593604D01*
X285661723Y-85593604D02*
X285661723Y-84293604D01*
X285661723Y-84293604D02*
X286095057Y-84293604D01*
X286095057Y-84293604D02*
X286218866Y-84355509D01*
X286218866Y-84355509D02*
X286280771Y-84417414D01*
X286280771Y-84417414D02*
X286342676Y-84541223D01*
X286342676Y-84541223D02*
X286342676Y-84665033D01*
X286342676Y-84665033D02*
X286280771Y-84788842D01*
X286280771Y-84788842D02*
X286218866Y-84850747D01*
X286218866Y-84850747D02*
X286095057Y-84912652D01*
X286095057Y-84912652D02*
X285661723Y-84912652D01*
D10*
D11*
X286404580Y-135469795D02*
X286342676Y-135531700D01*
X286342676Y-135531700D02*
X286156961Y-135593604D01*
X286156961Y-135593604D02*
X286033152Y-135593604D01*
X286033152Y-135593604D02*
X285847438Y-135531700D01*
X285847438Y-135531700D02*
X285723628Y-135407890D01*
X285723628Y-135407890D02*
X285661723Y-135284080D01*
X285661723Y-135284080D02*
X285599819Y-135036461D01*
X285599819Y-135036461D02*
X285599819Y-134850747D01*
X285599819Y-134850747D02*
X285661723Y-134603128D01*
X285661723Y-134603128D02*
X285723628Y-134479319D01*
X285723628Y-134479319D02*
X285847438Y-134355509D01*
X285847438Y-134355509D02*
X286033152Y-134293604D01*
X286033152Y-134293604D02*
X286156961Y-134293604D01*
X286156961Y-134293604D02*
X286342676Y-134355509D01*
X286342676Y-134355509D02*
X286404580Y-134417414D01*
D10*
D11*
X285661723Y-185593604D02*
X285661723Y-184293604D01*
X285661723Y-184293604D02*
X285971247Y-184293604D01*
X285971247Y-184293604D02*
X286156961Y-184355509D01*
X286156961Y-184355509D02*
X286280771Y-184479319D01*
X286280771Y-184479319D02*
X286342676Y-184603128D01*
X286342676Y-184603128D02*
X286404580Y-184850747D01*
X286404580Y-184850747D02*
X286404580Y-185036461D01*
X286404580Y-185036461D02*
X286342676Y-185284080D01*
X286342676Y-185284080D02*
X286280771Y-185407890D01*
X286280771Y-185407890D02*
X286156961Y-185531700D01*
X286156961Y-185531700D02*
X285971247Y-185593604D01*
X285971247Y-185593604D02*
X285661723Y-185593604D01*
D10*
D11*
X200458026Y-193793328D02*
X200458026Y-192293328D01*
X200458026Y-192293328D02*
X200815169Y-192293328D01*
X200815169Y-192293328D02*
X201029455Y-192364757D01*
X201029455Y-192364757D02*
X201172312Y-192507614D01*
X201172312Y-192507614D02*
X201243741Y-192650471D01*
X201243741Y-192650471D02*
X201315169Y-192936185D01*
X201315169Y-192936185D02*
X201315169Y-193150471D01*
X201315169Y-193150471D02*
X201243741Y-193436185D01*
X201243741Y-193436185D02*
X201172312Y-193579042D01*
X201172312Y-193579042D02*
X201029455Y-193721900D01*
X201029455Y-193721900D02*
X200815169Y-193793328D01*
X200815169Y-193793328D02*
X200458026Y-193793328D01*
X202600884Y-193793328D02*
X202600884Y-193007614D01*
X202600884Y-193007614D02*
X202529455Y-192864757D01*
X202529455Y-192864757D02*
X202386598Y-192793328D01*
X202386598Y-192793328D02*
X202100884Y-192793328D01*
X202100884Y-192793328D02*
X201958026Y-192864757D01*
X202600884Y-193721900D02*
X202458026Y-193793328D01*
X202458026Y-193793328D02*
X202100884Y-193793328D01*
X202100884Y-193793328D02*
X201958026Y-193721900D01*
X201958026Y-193721900D02*
X201886598Y-193579042D01*
X201886598Y-193579042D02*
X201886598Y-193436185D01*
X201886598Y-193436185D02*
X201958026Y-193293328D01*
X201958026Y-193293328D02*
X202100884Y-193221900D01*
X202100884Y-193221900D02*
X202458026Y-193221900D01*
X202458026Y-193221900D02*
X202600884Y-193150471D01*
X203100884Y-192793328D02*
X203672312Y-192793328D01*
X203315169Y-192293328D02*
X203315169Y-193579042D01*
X203315169Y-193579042D02*
X203386598Y-193721900D01*
X203386598Y-193721900D02*
X203529455Y-193793328D01*
X203529455Y-193793328D02*
X203672312Y-193793328D01*
X204743741Y-193721900D02*
X204600884Y-193793328D01*
X204600884Y-193793328D02*
X204315170Y-193793328D01*
X204315170Y-193793328D02*
X204172312Y-193721900D01*
X204172312Y-193721900D02*
X204100884Y-193579042D01*
X204100884Y-193579042D02*
X204100884Y-193007614D01*
X204100884Y-193007614D02*
X204172312Y-192864757D01*
X204172312Y-192864757D02*
X204315170Y-192793328D01*
X204315170Y-192793328D02*
X204600884Y-192793328D01*
X204600884Y-192793328D02*
X204743741Y-192864757D01*
X204743741Y-192864757D02*
X204815170Y-193007614D01*
X204815170Y-193007614D02*
X204815170Y-193150471D01*
X204815170Y-193150471D02*
X204100884Y-193293328D01*
X205458026Y-193650471D02*
X205529455Y-193721900D01*
X205529455Y-193721900D02*
X205458026Y-193793328D01*
X205458026Y-193793328D02*
X205386598Y-193721900D01*
X205386598Y-193721900D02*
X205458026Y-193650471D01*
X205458026Y-193650471D02*
X205458026Y-193793328D01*
X205458026Y-192864757D02*
X205529455Y-192936185D01*
X205529455Y-192936185D02*
X205458026Y-193007614D01*
X205458026Y-193007614D02*
X205386598Y-192936185D01*
X205386598Y-192936185D02*
X205458026Y-192864757D01*
X205458026Y-192864757D02*
X205458026Y-193007614D01*
D10*
D11*
X177002200Y-194507200D02*
X285002200Y-194507200D01*
D10*
D11*
X178458026Y-196593328D02*
X178458026Y-195093328D01*
X179315169Y-196593328D02*
X178672312Y-195736185D01*
X179315169Y-195093328D02*
X178458026Y-195950471D01*
X179958026Y-196593328D02*
X179958026Y-195593328D01*
X179958026Y-195093328D02*
X179886598Y-195164757D01*
X179886598Y-195164757D02*
X179958026Y-195236185D01*
X179958026Y-195236185D02*
X180029455Y-195164757D01*
X180029455Y-195164757D02*
X179958026Y-195093328D01*
X179958026Y-195093328D02*
X179958026Y-195236185D01*
X181529455Y-196450471D02*
X181458027Y-196521900D01*
X181458027Y-196521900D02*
X181243741Y-196593328D01*
X181243741Y-196593328D02*
X181100884Y-196593328D01*
X181100884Y-196593328D02*
X180886598Y-196521900D01*
X180886598Y-196521900D02*
X180743741Y-196379042D01*
X180743741Y-196379042D02*
X180672312Y-196236185D01*
X180672312Y-196236185D02*
X180600884Y-195950471D01*
X180600884Y-195950471D02*
X180600884Y-195736185D01*
X180600884Y-195736185D02*
X180672312Y-195450471D01*
X180672312Y-195450471D02*
X180743741Y-195307614D01*
X180743741Y-195307614D02*
X180886598Y-195164757D01*
X180886598Y-195164757D02*
X181100884Y-195093328D01*
X181100884Y-195093328D02*
X181243741Y-195093328D01*
X181243741Y-195093328D02*
X181458027Y-195164757D01*
X181458027Y-195164757D02*
X181529455Y-195236185D01*
X182815170Y-196593328D02*
X182815170Y-195807614D01*
X182815170Y-195807614D02*
X182743741Y-195664757D01*
X182743741Y-195664757D02*
X182600884Y-195593328D01*
X182600884Y-195593328D02*
X182315170Y-195593328D01*
X182315170Y-195593328D02*
X182172312Y-195664757D01*
X182815170Y-196521900D02*
X182672312Y-196593328D01*
X182672312Y-196593328D02*
X182315170Y-196593328D01*
X182315170Y-196593328D02*
X182172312Y-196521900D01*
X182172312Y-196521900D02*
X182100884Y-196379042D01*
X182100884Y-196379042D02*
X182100884Y-196236185D01*
X182100884Y-196236185D02*
X182172312Y-196093328D01*
X182172312Y-196093328D02*
X182315170Y-196021900D01*
X182315170Y-196021900D02*
X182672312Y-196021900D01*
X182672312Y-196021900D02*
X182815170Y-195950471D01*
X184172313Y-196593328D02*
X184172313Y-195093328D01*
X184172313Y-196521900D02*
X184029455Y-196593328D01*
X184029455Y-196593328D02*
X183743741Y-196593328D01*
X183743741Y-196593328D02*
X183600884Y-196521900D01*
X183600884Y-196521900D02*
X183529455Y-196450471D01*
X183529455Y-196450471D02*
X183458027Y-196307614D01*
X183458027Y-196307614D02*
X183458027Y-195879042D01*
X183458027Y-195879042D02*
X183529455Y-195736185D01*
X183529455Y-195736185D02*
X183600884Y-195664757D01*
X183600884Y-195664757D02*
X183743741Y-195593328D01*
X183743741Y-195593328D02*
X184029455Y-195593328D01*
X184029455Y-195593328D02*
X184172313Y-195664757D01*
X186029455Y-195807614D02*
X186529455Y-195807614D01*
X186743741Y-196593328D02*
X186029455Y-196593328D01*
X186029455Y-196593328D02*
X186029455Y-195093328D01*
X186029455Y-195093328D02*
X186743741Y-195093328D01*
X187386598Y-196450471D02*
X187458027Y-196521900D01*
X187458027Y-196521900D02*
X187386598Y-196593328D01*
X187386598Y-196593328D02*
X187315170Y-196521900D01*
X187315170Y-196521900D02*
X187386598Y-196450471D01*
X187386598Y-196450471D02*
X187386598Y-196593328D01*
X188100884Y-196593328D02*
X188100884Y-195093328D01*
X188100884Y-195093328D02*
X188458027Y-195093328D01*
X188458027Y-195093328D02*
X188672313Y-195164757D01*
X188672313Y-195164757D02*
X188815170Y-195307614D01*
X188815170Y-195307614D02*
X188886599Y-195450471D01*
X188886599Y-195450471D02*
X188958027Y-195736185D01*
X188958027Y-195736185D02*
X188958027Y-195950471D01*
X188958027Y-195950471D02*
X188886599Y-196236185D01*
X188886599Y-196236185D02*
X188815170Y-196379042D01*
X188815170Y-196379042D02*
X188672313Y-196521900D01*
X188672313Y-196521900D02*
X188458027Y-196593328D01*
X188458027Y-196593328D02*
X188100884Y-196593328D01*
X189600884Y-196450471D02*
X189672313Y-196521900D01*
X189672313Y-196521900D02*
X189600884Y-196593328D01*
X189600884Y-196593328D02*
X189529456Y-196521900D01*
X189529456Y-196521900D02*
X189600884Y-196450471D01*
X189600884Y-196450471D02*
X189600884Y-196593328D01*
X190243742Y-196164757D02*
X190958028Y-196164757D01*
X190100885Y-196593328D02*
X190600885Y-195093328D01*
X190600885Y-195093328D02*
X191100885Y-196593328D01*
X191600884Y-196450471D02*
X191672313Y-196521900D01*
X191672313Y-196521900D02*
X191600884Y-196593328D01*
X191600884Y-196593328D02*
X191529456Y-196521900D01*
X191529456Y-196521900D02*
X191600884Y-196450471D01*
X191600884Y-196450471D02*
X191600884Y-196593328D01*
X194600884Y-196593328D02*
X194600884Y-195093328D01*
X194743742Y-196021900D02*
X195172313Y-196593328D01*
X195172313Y-195593328D02*
X194600884Y-196164757D01*
X195815170Y-196593328D02*
X195815170Y-195593328D01*
X195815170Y-195093328D02*
X195743742Y-195164757D01*
X195743742Y-195164757D02*
X195815170Y-195236185D01*
X195815170Y-195236185D02*
X195886599Y-195164757D01*
X195886599Y-195164757D02*
X195815170Y-195093328D01*
X195815170Y-195093328D02*
X195815170Y-195236185D01*
X197172314Y-196521900D02*
X197029456Y-196593328D01*
X197029456Y-196593328D02*
X196743742Y-196593328D01*
X196743742Y-196593328D02*
X196600885Y-196521900D01*
X196600885Y-196521900D02*
X196529456Y-196450471D01*
X196529456Y-196450471D02*
X196458028Y-196307614D01*
X196458028Y-196307614D02*
X196458028Y-195879042D01*
X196458028Y-195879042D02*
X196529456Y-195736185D01*
X196529456Y-195736185D02*
X196600885Y-195664757D01*
X196600885Y-195664757D02*
X196743742Y-195593328D01*
X196743742Y-195593328D02*
X197029456Y-195593328D01*
X197029456Y-195593328D02*
X197172314Y-195664757D01*
X198458028Y-196593328D02*
X198458028Y-195807614D01*
X198458028Y-195807614D02*
X198386599Y-195664757D01*
X198386599Y-195664757D02*
X198243742Y-195593328D01*
X198243742Y-195593328D02*
X197958028Y-195593328D01*
X197958028Y-195593328D02*
X197815170Y-195664757D01*
X198458028Y-196521900D02*
X198315170Y-196593328D01*
X198315170Y-196593328D02*
X197958028Y-196593328D01*
X197958028Y-196593328D02*
X197815170Y-196521900D01*
X197815170Y-196521900D02*
X197743742Y-196379042D01*
X197743742Y-196379042D02*
X197743742Y-196236185D01*
X197743742Y-196236185D02*
X197815170Y-196093328D01*
X197815170Y-196093328D02*
X197958028Y-196021900D01*
X197958028Y-196021900D02*
X198315170Y-196021900D01*
X198315170Y-196021900D02*
X198458028Y-195950471D01*
X199815171Y-196593328D02*
X199815171Y-195093328D01*
X199815171Y-196521900D02*
X199672313Y-196593328D01*
X199672313Y-196593328D02*
X199386599Y-196593328D01*
X199386599Y-196593328D02*
X199243742Y-196521900D01*
X199243742Y-196521900D02*
X199172313Y-196450471D01*
X199172313Y-196450471D02*
X199100885Y-196307614D01*
X199100885Y-196307614D02*
X199100885Y-195879042D01*
X199100885Y-195879042D02*
X199172313Y-195736185D01*
X199172313Y-195736185D02*
X199243742Y-195664757D01*
X199243742Y-195664757D02*
X199386599Y-195593328D01*
X199386599Y-195593328D02*
X199672313Y-195593328D01*
X199672313Y-195593328D02*
X199815171Y-195664757D01*
X201529456Y-195093328D02*
X202529456Y-195093328D01*
X202529456Y-195093328D02*
X201886599Y-196593328D01*
X203100884Y-196450471D02*
X203172313Y-196521900D01*
X203172313Y-196521900D02*
X203100884Y-196593328D01*
X203100884Y-196593328D02*
X203029456Y-196521900D01*
X203029456Y-196521900D02*
X203100884Y-196450471D01*
X203100884Y-196450471D02*
X203100884Y-196593328D01*
X204100885Y-195093328D02*
X204243742Y-195093328D01*
X204243742Y-195093328D02*
X204386599Y-195164757D01*
X204386599Y-195164757D02*
X204458028Y-195236185D01*
X204458028Y-195236185D02*
X204529456Y-195379042D01*
X204529456Y-195379042D02*
X204600885Y-195664757D01*
X204600885Y-195664757D02*
X204600885Y-196021900D01*
X204600885Y-196021900D02*
X204529456Y-196307614D01*
X204529456Y-196307614D02*
X204458028Y-196450471D01*
X204458028Y-196450471D02*
X204386599Y-196521900D01*
X204386599Y-196521900D02*
X204243742Y-196593328D01*
X204243742Y-196593328D02*
X204100885Y-196593328D01*
X204100885Y-196593328D02*
X203958028Y-196521900D01*
X203958028Y-196521900D02*
X203886599Y-196450471D01*
X203886599Y-196450471D02*
X203815170Y-196307614D01*
X203815170Y-196307614D02*
X203743742Y-196021900D01*
X203743742Y-196021900D02*
X203743742Y-195664757D01*
X203743742Y-195664757D02*
X203815170Y-195379042D01*
X203815170Y-195379042D02*
X203886599Y-195236185D01*
X203886599Y-195236185D02*
X203958028Y-195164757D01*
X203958028Y-195164757D02*
X204100885Y-195093328D01*
X205243741Y-196450471D02*
X205315170Y-196521900D01*
X205315170Y-196521900D02*
X205243741Y-196593328D01*
X205243741Y-196593328D02*
X205172313Y-196521900D01*
X205172313Y-196521900D02*
X205243741Y-196450471D01*
X205243741Y-196450471D02*
X205243741Y-196593328D01*
X206672313Y-195093328D02*
X205958027Y-195093328D01*
X205958027Y-195093328D02*
X205886599Y-195807614D01*
X205886599Y-195807614D02*
X205958027Y-195736185D01*
X205958027Y-195736185D02*
X206100885Y-195664757D01*
X206100885Y-195664757D02*
X206458027Y-195664757D01*
X206458027Y-195664757D02*
X206600885Y-195736185D01*
X206600885Y-195736185D02*
X206672313Y-195807614D01*
X206672313Y-195807614D02*
X206743742Y-195950471D01*
X206743742Y-195950471D02*
X206743742Y-196307614D01*
X206743742Y-196307614D02*
X206672313Y-196450471D01*
X206672313Y-196450471D02*
X206600885Y-196521900D01*
X206600885Y-196521900D02*
X206458027Y-196593328D01*
X206458027Y-196593328D02*
X206100885Y-196593328D01*
X206100885Y-196593328D02*
X205958027Y-196521900D01*
X205958027Y-196521900D02*
X205886599Y-196450471D01*
D10*
D11*
X177002200Y-191507200D02*
X285002200Y-191507200D01*
D10*
D12*
X264413853Y-193785528D02*
X263913853Y-193071242D01*
X263556710Y-193785528D02*
X263556710Y-192285528D01*
X263556710Y-192285528D02*
X264128139Y-192285528D01*
X264128139Y-192285528D02*
X264270996Y-192356957D01*
X264270996Y-192356957D02*
X264342425Y-192428385D01*
X264342425Y-192428385D02*
X264413853Y-192571242D01*
X264413853Y-192571242D02*
X264413853Y-192785528D01*
X264413853Y-192785528D02*
X264342425Y-192928385D01*
X264342425Y-192928385D02*
X264270996Y-192999814D01*
X264270996Y-192999814D02*
X264128139Y-193071242D01*
X264128139Y-193071242D02*
X263556710Y-193071242D01*
X265628139Y-193714100D02*
X265485282Y-193785528D01*
X265485282Y-193785528D02*
X265199568Y-193785528D01*
X265199568Y-193785528D02*
X265056710Y-193714100D01*
X265056710Y-193714100D02*
X264985282Y-193571242D01*
X264985282Y-193571242D02*
X264985282Y-192999814D01*
X264985282Y-192999814D02*
X265056710Y-192856957D01*
X265056710Y-192856957D02*
X265199568Y-192785528D01*
X265199568Y-192785528D02*
X265485282Y-192785528D01*
X265485282Y-192785528D02*
X265628139Y-192856957D01*
X265628139Y-192856957D02*
X265699568Y-192999814D01*
X265699568Y-192999814D02*
X265699568Y-193142671D01*
X265699568Y-193142671D02*
X264985282Y-193285528D01*
X266199567Y-192785528D02*
X266556710Y-193785528D01*
X266556710Y-193785528D02*
X266913853Y-192785528D01*
X267485281Y-193642671D02*
X267556710Y-193714100D01*
X267556710Y-193714100D02*
X267485281Y-193785528D01*
X267485281Y-193785528D02*
X267413853Y-193714100D01*
X267413853Y-193714100D02*
X267485281Y-193642671D01*
X267485281Y-193642671D02*
X267485281Y-193785528D01*
X267485281Y-192856957D02*
X267556710Y-192928385D01*
X267556710Y-192928385D02*
X267485281Y-192999814D01*
X267485281Y-192999814D02*
X267413853Y-192928385D01*
X267413853Y-192928385D02*
X267485281Y-192856957D01*
X267485281Y-192856957D02*
X267485281Y-192999814D01*
D10*
D11*
X178386598Y-193721900D02*
X178600884Y-193793328D01*
X178600884Y-193793328D02*
X178958026Y-193793328D01*
X178958026Y-193793328D02*
X179100884Y-193721900D01*
X179100884Y-193721900D02*
X179172312Y-193650471D01*
X179172312Y-193650471D02*
X179243741Y-193507614D01*
X179243741Y-193507614D02*
X179243741Y-193364757D01*
X179243741Y-193364757D02*
X179172312Y-193221900D01*
X179172312Y-193221900D02*
X179100884Y-193150471D01*
X179100884Y-193150471D02*
X178958026Y-193079042D01*
X178958026Y-193079042D02*
X178672312Y-193007614D01*
X178672312Y-193007614D02*
X178529455Y-192936185D01*
X178529455Y-192936185D02*
X178458026Y-192864757D01*
X178458026Y-192864757D02*
X178386598Y-192721900D01*
X178386598Y-192721900D02*
X178386598Y-192579042D01*
X178386598Y-192579042D02*
X178458026Y-192436185D01*
X178458026Y-192436185D02*
X178529455Y-192364757D01*
X178529455Y-192364757D02*
X178672312Y-192293328D01*
X178672312Y-192293328D02*
X179029455Y-192293328D01*
X179029455Y-192293328D02*
X179243741Y-192364757D01*
X179886597Y-193793328D02*
X179886597Y-192793328D01*
X179886597Y-192293328D02*
X179815169Y-192364757D01*
X179815169Y-192364757D02*
X179886597Y-192436185D01*
X179886597Y-192436185D02*
X179958026Y-192364757D01*
X179958026Y-192364757D02*
X179886597Y-192293328D01*
X179886597Y-192293328D02*
X179886597Y-192436185D01*
X180458026Y-192793328D02*
X181243741Y-192793328D01*
X181243741Y-192793328D02*
X180458026Y-193793328D01*
X180458026Y-193793328D02*
X181243741Y-193793328D01*
X182386598Y-193721900D02*
X182243741Y-193793328D01*
X182243741Y-193793328D02*
X181958027Y-193793328D01*
X181958027Y-193793328D02*
X181815169Y-193721900D01*
X181815169Y-193721900D02*
X181743741Y-193579042D01*
X181743741Y-193579042D02*
X181743741Y-193007614D01*
X181743741Y-193007614D02*
X181815169Y-192864757D01*
X181815169Y-192864757D02*
X181958027Y-192793328D01*
X181958027Y-192793328D02*
X182243741Y-192793328D01*
X182243741Y-192793328D02*
X182386598Y-192864757D01*
X182386598Y-192864757D02*
X182458027Y-193007614D01*
X182458027Y-193007614D02*
X182458027Y-193150471D01*
X182458027Y-193150471D02*
X181743741Y-193293328D01*
X183100883Y-193650471D02*
X183172312Y-193721900D01*
X183172312Y-193721900D02*
X183100883Y-193793328D01*
X183100883Y-193793328D02*
X183029455Y-193721900D01*
X183029455Y-193721900D02*
X183100883Y-193650471D01*
X183100883Y-193650471D02*
X183100883Y-193793328D01*
X183100883Y-192864757D02*
X183172312Y-192936185D01*
X183172312Y-192936185D02*
X183100883Y-193007614D01*
X183100883Y-193007614D02*
X183029455Y-192936185D01*
X183029455Y-192936185D02*
X183100883Y-192864757D01*
X183100883Y-192864757D02*
X183100883Y-193007614D01*
X184886598Y-193364757D02*
X185600884Y-193364757D01*
X184743741Y-193793328D02*
X185243741Y-192293328D01*
X185243741Y-192293328D02*
X185743741Y-193793328D01*
X186886598Y-192793328D02*
X186886598Y-193793328D01*
X186529455Y-192221900D02*
X186172312Y-193293328D01*
X186172312Y-193293328D02*
X187100883Y-193293328D01*
D10*
D11*
X263458026Y-196593328D02*
X263458026Y-195093328D01*
X264815170Y-196593328D02*
X264815170Y-195093328D01*
X264815170Y-196521900D02*
X264672312Y-196593328D01*
X264672312Y-196593328D02*
X264386598Y-196593328D01*
X264386598Y-196593328D02*
X264243741Y-196521900D01*
X264243741Y-196521900D02*
X264172312Y-196450471D01*
X264172312Y-196450471D02*
X264100884Y-196307614D01*
X264100884Y-196307614D02*
X264100884Y-195879042D01*
X264100884Y-195879042D02*
X264172312Y-195736185D01*
X264172312Y-195736185D02*
X264243741Y-195664757D01*
X264243741Y-195664757D02*
X264386598Y-195593328D01*
X264386598Y-195593328D02*
X264672312Y-195593328D01*
X264672312Y-195593328D02*
X264815170Y-195664757D01*
X265529455Y-196450471D02*
X265600884Y-196521900D01*
X265600884Y-196521900D02*
X265529455Y-196593328D01*
X265529455Y-196593328D02*
X265458027Y-196521900D01*
X265458027Y-196521900D02*
X265529455Y-196450471D01*
X265529455Y-196450471D02*
X265529455Y-196593328D01*
X265529455Y-195664757D02*
X265600884Y-195736185D01*
X265600884Y-195736185D02*
X265529455Y-195807614D01*
X265529455Y-195807614D02*
X265458027Y-195736185D01*
X265458027Y-195736185D02*
X265529455Y-195664757D01*
X265529455Y-195664757D02*
X265529455Y-195807614D01*
X268172313Y-196593328D02*
X267315170Y-196593328D01*
X267743741Y-196593328D02*
X267743741Y-195093328D01*
X267743741Y-195093328D02*
X267600884Y-195307614D01*
X267600884Y-195307614D02*
X267458027Y-195450471D01*
X267458027Y-195450471D02*
X267315170Y-195521900D01*
X269886598Y-195021900D02*
X268600884Y-196950471D01*
X271172313Y-196593328D02*
X270315170Y-196593328D01*
X270743741Y-196593328D02*
X270743741Y-195093328D01*
X270743741Y-195093328D02*
X270600884Y-195307614D01*
X270600884Y-195307614D02*
X270458027Y-195450471D01*
X270458027Y-195450471D02*
X270315170Y-195521900D01*
D10*
D11*
X177002200Y-187507200D02*
X285002200Y-187507200D01*
D10*
D13*
X178693928Y-188211638D02*
X179836785Y-188211638D01*
X179015357Y-190211638D02*
X179265357Y-188211638D01*
X180253452Y-190211638D02*
X180420119Y-188878304D01*
X180503452Y-188211638D02*
X180396309Y-188306876D01*
X180396309Y-188306876D02*
X180479643Y-188402114D01*
X180479643Y-188402114D02*
X180586786Y-188306876D01*
X180586786Y-188306876D02*
X180503452Y-188211638D01*
X180503452Y-188211638D02*
X180479643Y-188402114D01*
X181086786Y-188878304D02*
X181848690Y-188878304D01*
X181455833Y-188211638D02*
X181241548Y-189925923D01*
X181241548Y-189925923D02*
X181312976Y-190116400D01*
X181312976Y-190116400D02*
X181491548Y-190211638D01*
X181491548Y-190211638D02*
X181682024Y-190211638D01*
X182634405Y-190211638D02*
X182455833Y-190116400D01*
X182455833Y-190116400D02*
X182384405Y-189925923D01*
X182384405Y-189925923D02*
X182598690Y-188211638D01*
X184170119Y-190116400D02*
X183967738Y-190211638D01*
X183967738Y-190211638D02*
X183586785Y-190211638D01*
X183586785Y-190211638D02*
X183408214Y-190116400D01*
X183408214Y-190116400D02*
X183336785Y-189925923D01*
X183336785Y-189925923D02*
X183432024Y-189164019D01*
X183432024Y-189164019D02*
X183551071Y-188973542D01*
X183551071Y-188973542D02*
X183753452Y-188878304D01*
X183753452Y-188878304D02*
X184134404Y-188878304D01*
X184134404Y-188878304D02*
X184312976Y-188973542D01*
X184312976Y-188973542D02*
X184384404Y-189164019D01*
X184384404Y-189164019D02*
X184360595Y-189354495D01*
X184360595Y-189354495D02*
X183384404Y-189544971D01*
X185134405Y-190021161D02*
X185217738Y-190116400D01*
X185217738Y-190116400D02*
X185110595Y-190211638D01*
X185110595Y-190211638D02*
X185027262Y-190116400D01*
X185027262Y-190116400D02*
X185134405Y-190021161D01*
X185134405Y-190021161D02*
X185110595Y-190211638D01*
X185265357Y-188973542D02*
X185348690Y-189068780D01*
X185348690Y-189068780D02*
X185241548Y-189164019D01*
X185241548Y-189164019D02*
X185158214Y-189068780D01*
X185158214Y-189068780D02*
X185265357Y-188973542D01*
X185265357Y-188973542D02*
X185241548Y-189164019D01*
D10*
D11*
X178958026Y-185607614D02*
X178458026Y-185607614D01*
X178458026Y-186393328D02*
X178458026Y-184893328D01*
X178458026Y-184893328D02*
X179172312Y-184893328D01*
X179743740Y-186393328D02*
X179743740Y-185393328D01*
X179743740Y-184893328D02*
X179672312Y-184964757D01*
X179672312Y-184964757D02*
X179743740Y-185036185D01*
X179743740Y-185036185D02*
X179815169Y-184964757D01*
X179815169Y-184964757D02*
X179743740Y-184893328D01*
X179743740Y-184893328D02*
X179743740Y-185036185D01*
X180672312Y-186393328D02*
X180529455Y-186321900D01*
X180529455Y-186321900D02*
X180458026Y-186179042D01*
X180458026Y-186179042D02*
X180458026Y-184893328D01*
X181815169Y-186321900D02*
X181672312Y-186393328D01*
X181672312Y-186393328D02*
X181386598Y-186393328D01*
X181386598Y-186393328D02*
X181243740Y-186321900D01*
X181243740Y-186321900D02*
X181172312Y-186179042D01*
X181172312Y-186179042D02*
X181172312Y-185607614D01*
X181172312Y-185607614D02*
X181243740Y-185464757D01*
X181243740Y-185464757D02*
X181386598Y-185393328D01*
X181386598Y-185393328D02*
X181672312Y-185393328D01*
X181672312Y-185393328D02*
X181815169Y-185464757D01*
X181815169Y-185464757D02*
X181886598Y-185607614D01*
X181886598Y-185607614D02*
X181886598Y-185750471D01*
X181886598Y-185750471D02*
X181172312Y-185893328D01*
X182529454Y-186250471D02*
X182600883Y-186321900D01*
X182600883Y-186321900D02*
X182529454Y-186393328D01*
X182529454Y-186393328D02*
X182458026Y-186321900D01*
X182458026Y-186321900D02*
X182529454Y-186250471D01*
X182529454Y-186250471D02*
X182529454Y-186393328D01*
X182529454Y-185464757D02*
X182600883Y-185536185D01*
X182600883Y-185536185D02*
X182529454Y-185607614D01*
X182529454Y-185607614D02*
X182458026Y-185536185D01*
X182458026Y-185536185D02*
X182529454Y-185464757D01*
X182529454Y-185464757D02*
X182529454Y-185607614D01*
X185100883Y-186393328D02*
X184386597Y-186393328D01*
X184386597Y-186393328D02*
X184386597Y-184893328D01*
X186243741Y-186393328D02*
X186243741Y-185607614D01*
X186243741Y-185607614D02*
X186172312Y-185464757D01*
X186172312Y-185464757D02*
X186029455Y-185393328D01*
X186029455Y-185393328D02*
X185743741Y-185393328D01*
X185743741Y-185393328D02*
X185600883Y-185464757D01*
X186243741Y-186321900D02*
X186100883Y-186393328D01*
X186100883Y-186393328D02*
X185743741Y-186393328D01*
X185743741Y-186393328D02*
X185600883Y-186321900D01*
X185600883Y-186321900D02*
X185529455Y-186179042D01*
X185529455Y-186179042D02*
X185529455Y-186036185D01*
X185529455Y-186036185D02*
X185600883Y-185893328D01*
X185600883Y-185893328D02*
X185743741Y-185821900D01*
X185743741Y-185821900D02*
X186100883Y-185821900D01*
X186100883Y-185821900D02*
X186243741Y-185750471D01*
X186958026Y-186393328D02*
X186958026Y-184893328D01*
X186958026Y-185464757D02*
X187100884Y-185393328D01*
X187100884Y-185393328D02*
X187386598Y-185393328D01*
X187386598Y-185393328D02*
X187529455Y-185464757D01*
X187529455Y-185464757D02*
X187600884Y-185536185D01*
X187600884Y-185536185D02*
X187672312Y-185679042D01*
X187672312Y-185679042D02*
X187672312Y-186107614D01*
X187672312Y-186107614D02*
X187600884Y-186250471D01*
X187600884Y-186250471D02*
X187529455Y-186321900D01*
X187529455Y-186321900D02*
X187386598Y-186393328D01*
X187386598Y-186393328D02*
X187100884Y-186393328D01*
X187100884Y-186393328D02*
X186958026Y-186321900D01*
X187958027Y-186536185D02*
X189100884Y-186536185D01*
X189743741Y-184893328D02*
X189886598Y-184893328D01*
X189886598Y-184893328D02*
X190029455Y-184964757D01*
X190029455Y-184964757D02*
X190100884Y-185036185D01*
X190100884Y-185036185D02*
X190172312Y-185179042D01*
X190172312Y-185179042D02*
X190243741Y-185464757D01*
X190243741Y-185464757D02*
X190243741Y-185821900D01*
X190243741Y-185821900D02*
X190172312Y-186107614D01*
X190172312Y-186107614D02*
X190100884Y-186250471D01*
X190100884Y-186250471D02*
X190029455Y-186321900D01*
X190029455Y-186321900D02*
X189886598Y-186393328D01*
X189886598Y-186393328D02*
X189743741Y-186393328D01*
X189743741Y-186393328D02*
X189600884Y-186321900D01*
X189600884Y-186321900D02*
X189529455Y-186250471D01*
X189529455Y-186250471D02*
X189458026Y-186107614D01*
X189458026Y-186107614D02*
X189386598Y-185821900D01*
X189386598Y-185821900D02*
X189386598Y-185464757D01*
X189386598Y-185464757D02*
X189458026Y-185179042D01*
X189458026Y-185179042D02*
X189529455Y-185036185D01*
X189529455Y-185036185D02*
X189600884Y-184964757D01*
X189600884Y-184964757D02*
X189743741Y-184893328D01*
X191100883Y-185536185D02*
X190958026Y-185464757D01*
X190958026Y-185464757D02*
X190886597Y-185393328D01*
X190886597Y-185393328D02*
X190815169Y-185250471D01*
X190815169Y-185250471D02*
X190815169Y-185179042D01*
X190815169Y-185179042D02*
X190886597Y-185036185D01*
X190886597Y-185036185D02*
X190958026Y-184964757D01*
X190958026Y-184964757D02*
X191100883Y-184893328D01*
X191100883Y-184893328D02*
X191386597Y-184893328D01*
X191386597Y-184893328D02*
X191529455Y-184964757D01*
X191529455Y-184964757D02*
X191600883Y-185036185D01*
X191600883Y-185036185D02*
X191672312Y-185179042D01*
X191672312Y-185179042D02*
X191672312Y-185250471D01*
X191672312Y-185250471D02*
X191600883Y-185393328D01*
X191600883Y-185393328D02*
X191529455Y-185464757D01*
X191529455Y-185464757D02*
X191386597Y-185536185D01*
X191386597Y-185536185D02*
X191100883Y-185536185D01*
X191100883Y-185536185D02*
X190958026Y-185607614D01*
X190958026Y-185607614D02*
X190886597Y-185679042D01*
X190886597Y-185679042D02*
X190815169Y-185821900D01*
X190815169Y-185821900D02*
X190815169Y-186107614D01*
X190815169Y-186107614D02*
X190886597Y-186250471D01*
X190886597Y-186250471D02*
X190958026Y-186321900D01*
X190958026Y-186321900D02*
X191100883Y-186393328D01*
X191100883Y-186393328D02*
X191386597Y-186393328D01*
X191386597Y-186393328D02*
X191529455Y-186321900D01*
X191529455Y-186321900D02*
X191600883Y-186250471D01*
X191600883Y-186250471D02*
X191672312Y-186107614D01*
X191672312Y-186107614D02*
X191672312Y-185821900D01*
X191672312Y-185821900D02*
X191600883Y-185679042D01*
X191600883Y-185679042D02*
X191529455Y-185607614D01*
X191529455Y-185607614D02*
X191386597Y-185536185D01*
X192315168Y-186250471D02*
X192386597Y-186321900D01*
X192386597Y-186321900D02*
X192315168Y-186393328D01*
X192315168Y-186393328D02*
X192243740Y-186321900D01*
X192243740Y-186321900D02*
X192315168Y-186250471D01*
X192315168Y-186250471D02*
X192315168Y-186393328D01*
X193029454Y-186393328D02*
X193029454Y-184893328D01*
X193172312Y-185821900D02*
X193600883Y-186393328D01*
X193600883Y-185393328D02*
X193029454Y-185964757D01*
X194243740Y-186393328D02*
X194243740Y-185393328D01*
X194243740Y-184893328D02*
X194172312Y-184964757D01*
X194172312Y-184964757D02*
X194243740Y-185036185D01*
X194243740Y-185036185D02*
X194315169Y-184964757D01*
X194315169Y-184964757D02*
X194243740Y-184893328D01*
X194243740Y-184893328D02*
X194243740Y-185036185D01*
X195600884Y-186321900D02*
X195458026Y-186393328D01*
X195458026Y-186393328D02*
X195172312Y-186393328D01*
X195172312Y-186393328D02*
X195029455Y-186321900D01*
X195029455Y-186321900D02*
X194958026Y-186250471D01*
X194958026Y-186250471D02*
X194886598Y-186107614D01*
X194886598Y-186107614D02*
X194886598Y-185679042D01*
X194886598Y-185679042D02*
X194958026Y-185536185D01*
X194958026Y-185536185D02*
X195029455Y-185464757D01*
X195029455Y-185464757D02*
X195172312Y-185393328D01*
X195172312Y-185393328D02*
X195458026Y-185393328D01*
X195458026Y-185393328D02*
X195600884Y-185464757D01*
X196886598Y-186393328D02*
X196886598Y-185607614D01*
X196886598Y-185607614D02*
X196815169Y-185464757D01*
X196815169Y-185464757D02*
X196672312Y-185393328D01*
X196672312Y-185393328D02*
X196386598Y-185393328D01*
X196386598Y-185393328D02*
X196243740Y-185464757D01*
X196886598Y-186321900D02*
X196743740Y-186393328D01*
X196743740Y-186393328D02*
X196386598Y-186393328D01*
X196386598Y-186393328D02*
X196243740Y-186321900D01*
X196243740Y-186321900D02*
X196172312Y-186179042D01*
X196172312Y-186179042D02*
X196172312Y-186036185D01*
X196172312Y-186036185D02*
X196243740Y-185893328D01*
X196243740Y-185893328D02*
X196386598Y-185821900D01*
X196386598Y-185821900D02*
X196743740Y-185821900D01*
X196743740Y-185821900D02*
X196886598Y-185750471D01*
X198243741Y-186393328D02*
X198243741Y-184893328D01*
X198243741Y-186321900D02*
X198100883Y-186393328D01*
X198100883Y-186393328D02*
X197815169Y-186393328D01*
X197815169Y-186393328D02*
X197672312Y-186321900D01*
X197672312Y-186321900D02*
X197600883Y-186250471D01*
X197600883Y-186250471D02*
X197529455Y-186107614D01*
X197529455Y-186107614D02*
X197529455Y-185679042D01*
X197529455Y-185679042D02*
X197600883Y-185536185D01*
X197600883Y-185536185D02*
X197672312Y-185464757D01*
X197672312Y-185464757D02*
X197815169Y-185393328D01*
X197815169Y-185393328D02*
X198100883Y-185393328D01*
X198100883Y-185393328D02*
X198243741Y-185464757D01*
X198600884Y-186536185D02*
X199743741Y-186536185D01*
X200100883Y-185393328D02*
X200100883Y-186893328D01*
X200100883Y-185464757D02*
X200243741Y-185393328D01*
X200243741Y-185393328D02*
X200529455Y-185393328D01*
X200529455Y-185393328D02*
X200672312Y-185464757D01*
X200672312Y-185464757D02*
X200743741Y-185536185D01*
X200743741Y-185536185D02*
X200815169Y-185679042D01*
X200815169Y-185679042D02*
X200815169Y-186107614D01*
X200815169Y-186107614D02*
X200743741Y-186250471D01*
X200743741Y-186250471D02*
X200672312Y-186321900D01*
X200672312Y-186321900D02*
X200529455Y-186393328D01*
X200529455Y-186393328D02*
X200243741Y-186393328D01*
X200243741Y-186393328D02*
X200100883Y-186321900D01*
X202100884Y-186321900D02*
X201958026Y-186393328D01*
X201958026Y-186393328D02*
X201672312Y-186393328D01*
X201672312Y-186393328D02*
X201529455Y-186321900D01*
X201529455Y-186321900D02*
X201458026Y-186250471D01*
X201458026Y-186250471D02*
X201386598Y-186107614D01*
X201386598Y-186107614D02*
X201386598Y-185679042D01*
X201386598Y-185679042D02*
X201458026Y-185536185D01*
X201458026Y-185536185D02*
X201529455Y-185464757D01*
X201529455Y-185464757D02*
X201672312Y-185393328D01*
X201672312Y-185393328D02*
X201958026Y-185393328D01*
X201958026Y-185393328D02*
X202100884Y-185464757D01*
X202743740Y-186393328D02*
X202743740Y-184893328D01*
X202743740Y-185464757D02*
X202886598Y-185393328D01*
X202886598Y-185393328D02*
X203172312Y-185393328D01*
X203172312Y-185393328D02*
X203315169Y-185464757D01*
X203315169Y-185464757D02*
X203386598Y-185536185D01*
X203386598Y-185536185D02*
X203458026Y-185679042D01*
X203458026Y-185679042D02*
X203458026Y-186107614D01*
X203458026Y-186107614D02*
X203386598Y-186250471D01*
X203386598Y-186250471D02*
X203315169Y-186321900D01*
X203315169Y-186321900D02*
X203172312Y-186393328D01*
X203172312Y-186393328D02*
X202886598Y-186393328D01*
X202886598Y-186393328D02*
X202743740Y-186321900D01*
D10*
D11*
X177002200Y-181507200D02*
X285002200Y-181507200D01*
D10*
D11*
X178386598Y-183621900D02*
X178600884Y-183693328D01*
X178600884Y-183693328D02*
X178958026Y-183693328D01*
X178958026Y-183693328D02*
X179100884Y-183621900D01*
X179100884Y-183621900D02*
X179172312Y-183550471D01*
X179172312Y-183550471D02*
X179243741Y-183407614D01*
X179243741Y-183407614D02*
X179243741Y-183264757D01*
X179243741Y-183264757D02*
X179172312Y-183121900D01*
X179172312Y-183121900D02*
X179100884Y-183050471D01*
X179100884Y-183050471D02*
X178958026Y-182979042D01*
X178958026Y-182979042D02*
X178672312Y-182907614D01*
X178672312Y-182907614D02*
X178529455Y-182836185D01*
X178529455Y-182836185D02*
X178458026Y-182764757D01*
X178458026Y-182764757D02*
X178386598Y-182621900D01*
X178386598Y-182621900D02*
X178386598Y-182479042D01*
X178386598Y-182479042D02*
X178458026Y-182336185D01*
X178458026Y-182336185D02*
X178529455Y-182264757D01*
X178529455Y-182264757D02*
X178672312Y-182193328D01*
X178672312Y-182193328D02*
X179029455Y-182193328D01*
X179029455Y-182193328D02*
X179243741Y-182264757D01*
X179886597Y-183693328D02*
X179886597Y-182193328D01*
X180529455Y-183693328D02*
X180529455Y-182907614D01*
X180529455Y-182907614D02*
X180458026Y-182764757D01*
X180458026Y-182764757D02*
X180315169Y-182693328D01*
X180315169Y-182693328D02*
X180100883Y-182693328D01*
X180100883Y-182693328D02*
X179958026Y-182764757D01*
X179958026Y-182764757D02*
X179886597Y-182836185D01*
X181815169Y-183621900D02*
X181672312Y-183693328D01*
X181672312Y-183693328D02*
X181386598Y-183693328D01*
X181386598Y-183693328D02*
X181243740Y-183621900D01*
X181243740Y-183621900D02*
X181172312Y-183479042D01*
X181172312Y-183479042D02*
X181172312Y-182907614D01*
X181172312Y-182907614D02*
X181243740Y-182764757D01*
X181243740Y-182764757D02*
X181386598Y-182693328D01*
X181386598Y-182693328D02*
X181672312Y-182693328D01*
X181672312Y-182693328D02*
X181815169Y-182764757D01*
X181815169Y-182764757D02*
X181886598Y-182907614D01*
X181886598Y-182907614D02*
X181886598Y-183050471D01*
X181886598Y-183050471D02*
X181172312Y-183193328D01*
X183100883Y-183621900D02*
X182958026Y-183693328D01*
X182958026Y-183693328D02*
X182672312Y-183693328D01*
X182672312Y-183693328D02*
X182529454Y-183621900D01*
X182529454Y-183621900D02*
X182458026Y-183479042D01*
X182458026Y-183479042D02*
X182458026Y-182907614D01*
X182458026Y-182907614D02*
X182529454Y-182764757D01*
X182529454Y-182764757D02*
X182672312Y-182693328D01*
X182672312Y-182693328D02*
X182958026Y-182693328D01*
X182958026Y-182693328D02*
X183100883Y-182764757D01*
X183100883Y-182764757D02*
X183172312Y-182907614D01*
X183172312Y-182907614D02*
X183172312Y-183050471D01*
X183172312Y-183050471D02*
X182458026Y-183193328D01*
X183600883Y-182693328D02*
X184172311Y-182693328D01*
X183815168Y-182193328D02*
X183815168Y-183479042D01*
X183815168Y-183479042D02*
X183886597Y-183621900D01*
X183886597Y-183621900D02*
X184029454Y-183693328D01*
X184029454Y-183693328D02*
X184172311Y-183693328D01*
X184672311Y-183550471D02*
X184743740Y-183621900D01*
X184743740Y-183621900D02*
X184672311Y-183693328D01*
X184672311Y-183693328D02*
X184600883Y-183621900D01*
X184600883Y-183621900D02*
X184672311Y-183550471D01*
X184672311Y-183550471D02*
X184672311Y-183693328D01*
X184672311Y-182764757D02*
X184743740Y-182836185D01*
X184743740Y-182836185D02*
X184672311Y-182907614D01*
X184672311Y-182907614D02*
X184600883Y-182836185D01*
X184600883Y-182836185D02*
X184672311Y-182764757D01*
X184672311Y-182764757D02*
X184672311Y-182907614D01*
D10*
D12*
D10*
D11*
D10*
D11*
D10*
D11*
D10*
D11*
D10*
D11*
X197002200Y-191507200D02*
X197002200Y-194507200D01*
D10*
D11*
X261002200Y-191507200D02*
X261002200Y-198007200D01*
%TO.C,D1*%
X76654819Y-60428094D02*
X75654819Y-60428094D01*
X75654819Y-60428094D02*
X75654819Y-60189999D01*
X75654819Y-60189999D02*
X75702438Y-60047142D01*
X75702438Y-60047142D02*
X75797676Y-59951904D01*
X75797676Y-59951904D02*
X75892914Y-59904285D01*
X75892914Y-59904285D02*
X76083390Y-59856666D01*
X76083390Y-59856666D02*
X76226247Y-59856666D01*
X76226247Y-59856666D02*
X76416723Y-59904285D01*
X76416723Y-59904285D02*
X76511961Y-59951904D01*
X76511961Y-59951904D02*
X76607200Y-60047142D01*
X76607200Y-60047142D02*
X76654819Y-60189999D01*
X76654819Y-60189999D02*
X76654819Y-60428094D01*
X76654819Y-58904285D02*
X76654819Y-59475713D01*
X76654819Y-59189999D02*
X75654819Y-59189999D01*
X75654819Y-59189999D02*
X75797676Y-59285237D01*
X75797676Y-59285237D02*
X75892914Y-59380475D01*
X75892914Y-59380475D02*
X75940533Y-59475713D01*
%TO.C,D4*%
X84274819Y-60428094D02*
X83274819Y-60428094D01*
X83274819Y-60428094D02*
X83274819Y-60189999D01*
X83274819Y-60189999D02*
X83322438Y-60047142D01*
X83322438Y-60047142D02*
X83417676Y-59951904D01*
X83417676Y-59951904D02*
X83512914Y-59904285D01*
X83512914Y-59904285D02*
X83703390Y-59856666D01*
X83703390Y-59856666D02*
X83846247Y-59856666D01*
X83846247Y-59856666D02*
X84036723Y-59904285D01*
X84036723Y-59904285D02*
X84131961Y-59951904D01*
X84131961Y-59951904D02*
X84227200Y-60047142D01*
X84227200Y-60047142D02*
X84274819Y-60189999D01*
X84274819Y-60189999D02*
X84274819Y-60428094D01*
X83608152Y-58999523D02*
X84274819Y-58999523D01*
X83227200Y-59237618D02*
X83941485Y-59475713D01*
X83941485Y-59475713D02*
X83941485Y-58856666D01*
%TO.C,U1*%
X101264819Y-60451904D02*
X102074342Y-60451904D01*
X102074342Y-60451904D02*
X102169580Y-60404285D01*
X102169580Y-60404285D02*
X102217200Y-60356666D01*
X102217200Y-60356666D02*
X102264819Y-60261428D01*
X102264819Y-60261428D02*
X102264819Y-60070952D01*
X102264819Y-60070952D02*
X102217200Y-59975714D01*
X102217200Y-59975714D02*
X102169580Y-59928095D01*
X102169580Y-59928095D02*
X102074342Y-59880476D01*
X102074342Y-59880476D02*
X101264819Y-59880476D01*
X102264819Y-58880476D02*
X102264819Y-59451904D01*
X102264819Y-59166190D02*
X101264819Y-59166190D01*
X101264819Y-59166190D02*
X101407676Y-59261428D01*
X101407676Y-59261428D02*
X101502914Y-59356666D01*
X101502914Y-59356666D02*
X101550533Y-59451904D01*
%TO.C,D2*%
X79271905Y-53794819D02*
X79271905Y-52794819D01*
X79271905Y-52794819D02*
X79510000Y-52794819D01*
X79510000Y-52794819D02*
X79652857Y-52842438D01*
X79652857Y-52842438D02*
X79748095Y-52937676D01*
X79748095Y-52937676D02*
X79795714Y-53032914D01*
X79795714Y-53032914D02*
X79843333Y-53223390D01*
X79843333Y-53223390D02*
X79843333Y-53366247D01*
X79843333Y-53366247D02*
X79795714Y-53556723D01*
X79795714Y-53556723D02*
X79748095Y-53651961D01*
X79748095Y-53651961D02*
X79652857Y-53747200D01*
X79652857Y-53747200D02*
X79510000Y-53794819D01*
X79510000Y-53794819D02*
X79271905Y-53794819D01*
X80224286Y-52890057D02*
X80271905Y-52842438D01*
X80271905Y-52842438D02*
X80367143Y-52794819D01*
X80367143Y-52794819D02*
X80605238Y-52794819D01*
X80605238Y-52794819D02*
X80700476Y-52842438D01*
X80700476Y-52842438D02*
X80748095Y-52890057D01*
X80748095Y-52890057D02*
X80795714Y-52985295D01*
X80795714Y-52985295D02*
X80795714Y-53080533D01*
X80795714Y-53080533D02*
X80748095Y-53223390D01*
X80748095Y-53223390D02*
X80176667Y-53794819D01*
X80176667Y-53794819D02*
X80795714Y-53794819D01*
%TO.C,U3*%
X-65591904Y-8774819D02*
X-65591904Y-9584342D01*
X-65591904Y-9584342D02*
X-65544285Y-9679580D01*
X-65544285Y-9679580D02*
X-65496666Y-9727200D01*
X-65496666Y-9727200D02*
X-65401428Y-9774819D01*
X-65401428Y-9774819D02*
X-65210952Y-9774819D01*
X-65210952Y-9774819D02*
X-65115714Y-9727200D01*
X-65115714Y-9727200D02*
X-65068095Y-9679580D01*
X-65068095Y-9679580D02*
X-65020476Y-9584342D01*
X-65020476Y-9584342D02*
X-65020476Y-8774819D01*
X-64639523Y-8774819D02*
X-64020476Y-8774819D01*
X-64020476Y-8774819D02*
X-64353809Y-9155771D01*
X-64353809Y-9155771D02*
X-64210952Y-9155771D01*
X-64210952Y-9155771D02*
X-64115714Y-9203390D01*
X-64115714Y-9203390D02*
X-64068095Y-9251009D01*
X-64068095Y-9251009D02*
X-64020476Y-9346247D01*
X-64020476Y-9346247D02*
X-64020476Y-9584342D01*
X-64020476Y-9584342D02*
X-64068095Y-9679580D01*
X-64068095Y-9679580D02*
X-64115714Y-9727200D01*
X-64115714Y-9727200D02*
X-64210952Y-9774819D01*
X-64210952Y-9774819D02*
X-64496666Y-9774819D01*
X-64496666Y-9774819D02*
X-64591904Y-9727200D01*
X-64591904Y-9727200D02*
X-64639523Y-9679580D01*
%TO.C,D101*%
X90734548Y-127438665D02*
X90734548Y-126438665D01*
X90734548Y-126438665D02*
X90972643Y-126438665D01*
X90972643Y-126438665D02*
X91115500Y-126486284D01*
X91115500Y-126486284D02*
X91210738Y-126581522D01*
X91210738Y-126581522D02*
X91258357Y-126676760D01*
X91258357Y-126676760D02*
X91305976Y-126867236D01*
X91305976Y-126867236D02*
X91305976Y-127010093D01*
X91305976Y-127010093D02*
X91258357Y-127200569D01*
X91258357Y-127200569D02*
X91210738Y-127295807D01*
X91210738Y-127295807D02*
X91115500Y-127391046D01*
X91115500Y-127391046D02*
X90972643Y-127438665D01*
X90972643Y-127438665D02*
X90734548Y-127438665D01*
X92258357Y-127438665D02*
X91686929Y-127438665D01*
X91972643Y-127438665D02*
X91972643Y-126438665D01*
X91972643Y-126438665D02*
X91877405Y-126581522D01*
X91877405Y-126581522D02*
X91782167Y-126676760D01*
X91782167Y-126676760D02*
X91686929Y-126724379D01*
X92877405Y-126438665D02*
X92972643Y-126438665D01*
X92972643Y-126438665D02*
X93067881Y-126486284D01*
X93067881Y-126486284D02*
X93115500Y-126533903D01*
X93115500Y-126533903D02*
X93163119Y-126629141D01*
X93163119Y-126629141D02*
X93210738Y-126819617D01*
X93210738Y-126819617D02*
X93210738Y-127057712D01*
X93210738Y-127057712D02*
X93163119Y-127248188D01*
X93163119Y-127248188D02*
X93115500Y-127343426D01*
X93115500Y-127343426D02*
X93067881Y-127391046D01*
X93067881Y-127391046D02*
X92972643Y-127438665D01*
X92972643Y-127438665D02*
X92877405Y-127438665D01*
X92877405Y-127438665D02*
X92782167Y-127391046D01*
X92782167Y-127391046D02*
X92734548Y-127343426D01*
X92734548Y-127343426D02*
X92686929Y-127248188D01*
X92686929Y-127248188D02*
X92639310Y-127057712D01*
X92639310Y-127057712D02*
X92639310Y-126819617D01*
X92639310Y-126819617D02*
X92686929Y-126629141D01*
X92686929Y-126629141D02*
X92734548Y-126533903D01*
X92734548Y-126533903D02*
X92782167Y-126486284D01*
X92782167Y-126486284D02*
X92877405Y-126438665D01*
X94163119Y-127438665D02*
X93591691Y-127438665D01*
X93877405Y-127438665D02*
X93877405Y-126438665D01*
X93877405Y-126438665D02*
X93782167Y-126581522D01*
X93782167Y-126581522D02*
X93686929Y-126676760D01*
X93686929Y-126676760D02*
X93591691Y-126724379D01*
%TO.C,U2*%
X-84181904Y11125180D02*
X-84181904Y10315657D01*
X-84181904Y10315657D02*
X-84134285Y10220419D01*
X-84134285Y10220419D02*
X-84086666Y10172800D01*
X-84086666Y10172800D02*
X-83991428Y10125180D01*
X-83991428Y10125180D02*
X-83800952Y10125180D01*
X-83800952Y10125180D02*
X-83705714Y10172800D01*
X-83705714Y10172800D02*
X-83658095Y10220419D01*
X-83658095Y10220419D02*
X-83610476Y10315657D01*
X-83610476Y10315657D02*
X-83610476Y11125180D01*
X-83181904Y11029942D02*
X-83134285Y11077561D01*
X-83134285Y11077561D02*
X-83039047Y11125180D01*
X-83039047Y11125180D02*
X-82800952Y11125180D01*
X-82800952Y11125180D02*
X-82705714Y11077561D01*
X-82705714Y11077561D02*
X-82658095Y11029942D01*
X-82658095Y11029942D02*
X-82610476Y10934704D01*
X-82610476Y10934704D02*
X-82610476Y10839466D01*
X-82610476Y10839466D02*
X-82658095Y10696609D01*
X-82658095Y10696609D02*
X-83229523Y10125180D01*
X-83229523Y10125180D02*
X-82610476Y10125180D01*
%TO.C,C1*%
X-112465419Y-43381968D02*
X-112417800Y-43429587D01*
X-112417800Y-43429587D02*
X-112370180Y-43572444D01*
X-112370180Y-43572444D02*
X-112370180Y-43667682D01*
X-112370180Y-43667682D02*
X-112417800Y-43810539D01*
X-112417800Y-43810539D02*
X-112513038Y-43905777D01*
X-112513038Y-43905777D02*
X-112608276Y-43953396D01*
X-112608276Y-43953396D02*
X-112798752Y-44001015D01*
X-112798752Y-44001015D02*
X-112941609Y-44001015D01*
X-112941609Y-44001015D02*
X-113132085Y-43953396D01*
X-113132085Y-43953396D02*
X-113227323Y-43905777D01*
X-113227323Y-43905777D02*
X-113322561Y-43810539D01*
X-113322561Y-43810539D02*
X-113370180Y-43667682D01*
X-113370180Y-43667682D02*
X-113370180Y-43572444D01*
X-113370180Y-43572444D02*
X-113322561Y-43429587D01*
X-113322561Y-43429587D02*
X-113274942Y-43381968D01*
X-112370180Y-42429587D02*
X-112370180Y-43001015D01*
X-112370180Y-42715301D02*
X-113370180Y-42715301D01*
X-113370180Y-42715301D02*
X-113227323Y-42810539D01*
X-113227323Y-42810539D02*
X-113132085Y-42905777D01*
X-113132085Y-42905777D02*
X-113084466Y-43001015D01*
%TO.C,D3*%
X79271905Y-66494819D02*
X79271905Y-65494819D01*
X79271905Y-65494819D02*
X79510000Y-65494819D01*
X79510000Y-65494819D02*
X79652857Y-65542438D01*
X79652857Y-65542438D02*
X79748095Y-65637676D01*
X79748095Y-65637676D02*
X79795714Y-65732914D01*
X79795714Y-65732914D02*
X79843333Y-65923390D01*
X79843333Y-65923390D02*
X79843333Y-66066247D01*
X79843333Y-66066247D02*
X79795714Y-66256723D01*
X79795714Y-66256723D02*
X79748095Y-66351961D01*
X79748095Y-66351961D02*
X79652857Y-66447200D01*
X79652857Y-66447200D02*
X79510000Y-66494819D01*
X79510000Y-66494819D02*
X79271905Y-66494819D01*
X80176667Y-65494819D02*
X80795714Y-65494819D01*
X80795714Y-65494819D02*
X80462381Y-65875771D01*
X80462381Y-65875771D02*
X80605238Y-65875771D01*
X80605238Y-65875771D02*
X80700476Y-65923390D01*
X80700476Y-65923390D02*
X80748095Y-65971009D01*
X80748095Y-65971009D02*
X80795714Y-66066247D01*
X80795714Y-66066247D02*
X80795714Y-66304342D01*
X80795714Y-66304342D02*
X80748095Y-66399580D01*
X80748095Y-66399580D02*
X80700476Y-66447200D01*
X80700476Y-66447200D02*
X80605238Y-66494819D01*
X80605238Y-66494819D02*
X80319524Y-66494819D01*
X80319524Y-66494819D02*
X80224286Y-66447200D01*
X80224286Y-66447200D02*
X80176667Y-66399580D01*
%TO.C,U104*%
X151854819Y-117284285D02*
X152664342Y-117284285D01*
X152664342Y-117284285D02*
X152759580Y-117236666D01*
X152759580Y-117236666D02*
X152807200Y-117189047D01*
X152807200Y-117189047D02*
X152854819Y-117093809D01*
X152854819Y-117093809D02*
X152854819Y-116903333D01*
X152854819Y-116903333D02*
X152807200Y-116808095D01*
X152807200Y-116808095D02*
X152759580Y-116760476D01*
X152759580Y-116760476D02*
X152664342Y-116712857D01*
X152664342Y-116712857D02*
X151854819Y-116712857D01*
X152854819Y-115712857D02*
X152854819Y-116284285D01*
X152854819Y-115998571D02*
X151854819Y-115998571D01*
X151854819Y-115998571D02*
X151997676Y-116093809D01*
X151997676Y-116093809D02*
X152092914Y-116189047D01*
X152092914Y-116189047D02*
X152140533Y-116284285D01*
X151854819Y-115093809D02*
X151854819Y-114998571D01*
X151854819Y-114998571D02*
X151902438Y-114903333D01*
X151902438Y-114903333D02*
X151950057Y-114855714D01*
X151950057Y-114855714D02*
X152045295Y-114808095D01*
X152045295Y-114808095D02*
X152235771Y-114760476D01*
X152235771Y-114760476D02*
X152473866Y-114760476D01*
X152473866Y-114760476D02*
X152664342Y-114808095D01*
X152664342Y-114808095D02*
X152759580Y-114855714D01*
X152759580Y-114855714D02*
X152807200Y-114903333D01*
X152807200Y-114903333D02*
X152854819Y-114998571D01*
X152854819Y-114998571D02*
X152854819Y-115093809D01*
X152854819Y-115093809D02*
X152807200Y-115189047D01*
X152807200Y-115189047D02*
X152759580Y-115236666D01*
X152759580Y-115236666D02*
X152664342Y-115284285D01*
X152664342Y-115284285D02*
X152473866Y-115331904D01*
X152473866Y-115331904D02*
X152235771Y-115331904D01*
X152235771Y-115331904D02*
X152045295Y-115284285D01*
X152045295Y-115284285D02*
X151950057Y-115236666D01*
X151950057Y-115236666D02*
X151902438Y-115189047D01*
X151902438Y-115189047D02*
X151854819Y-115093809D01*
X152188152Y-113903333D02*
X152854819Y-113903333D01*
X151807200Y-114141428D02*
X152521485Y-114379523D01*
X152521485Y-114379523D02*
X152521485Y-113760476D01*
%TO.C,U105*%
X178322376Y-117226107D02*
X179131899Y-117226107D01*
X179131899Y-117226107D02*
X179227137Y-117178488D01*
X179227137Y-117178488D02*
X179274757Y-117130869D01*
X179274757Y-117130869D02*
X179322376Y-117035631D01*
X179322376Y-117035631D02*
X179322376Y-116845155D01*
X179322376Y-116845155D02*
X179274757Y-116749917D01*
X179274757Y-116749917D02*
X179227137Y-116702298D01*
X179227137Y-116702298D02*
X179131899Y-116654679D01*
X179131899Y-116654679D02*
X178322376Y-116654679D01*
X179322376Y-115654679D02*
X179322376Y-116226107D01*
X179322376Y-115940393D02*
X178322376Y-115940393D01*
X178322376Y-115940393D02*
X178465233Y-116035631D01*
X178465233Y-116035631D02*
X178560471Y-116130869D01*
X178560471Y-116130869D02*
X178608090Y-116226107D01*
X178322376Y-115035631D02*
X178322376Y-114940393D01*
X178322376Y-114940393D02*
X178369995Y-114845155D01*
X178369995Y-114845155D02*
X178417614Y-114797536D01*
X178417614Y-114797536D02*
X178512852Y-114749917D01*
X178512852Y-114749917D02*
X178703328Y-114702298D01*
X178703328Y-114702298D02*
X178941423Y-114702298D01*
X178941423Y-114702298D02*
X179131899Y-114749917D01*
X179131899Y-114749917D02*
X179227137Y-114797536D01*
X179227137Y-114797536D02*
X179274757Y-114845155D01*
X179274757Y-114845155D02*
X179322376Y-114940393D01*
X179322376Y-114940393D02*
X179322376Y-115035631D01*
X179322376Y-115035631D02*
X179274757Y-115130869D01*
X179274757Y-115130869D02*
X179227137Y-115178488D01*
X179227137Y-115178488D02*
X179131899Y-115226107D01*
X179131899Y-115226107D02*
X178941423Y-115273726D01*
X178941423Y-115273726D02*
X178703328Y-115273726D01*
X178703328Y-115273726D02*
X178512852Y-115226107D01*
X178512852Y-115226107D02*
X178417614Y-115178488D01*
X178417614Y-115178488D02*
X178369995Y-115130869D01*
X178369995Y-115130869D02*
X178322376Y-115035631D01*
X178322376Y-113797536D02*
X178322376Y-114273726D01*
X178322376Y-114273726D02*
X178798566Y-114321345D01*
X178798566Y-114321345D02*
X178750947Y-114273726D01*
X178750947Y-114273726D02*
X178703328Y-114178488D01*
X178703328Y-114178488D02*
X178703328Y-113940393D01*
X178703328Y-113940393D02*
X178750947Y-113845155D01*
X178750947Y-113845155D02*
X178798566Y-113797536D01*
X178798566Y-113797536D02*
X178893804Y-113749917D01*
X178893804Y-113749917D02*
X179131899Y-113749917D01*
X179131899Y-113749917D02*
X179227137Y-113797536D01*
X179227137Y-113797536D02*
X179274757Y-113845155D01*
X179274757Y-113845155D02*
X179322376Y-113940393D01*
X179322376Y-113940393D02*
X179322376Y-114178488D01*
X179322376Y-114178488D02*
X179274757Y-114273726D01*
X179274757Y-114273726D02*
X179227137Y-114321345D01*
%TO.C,D102*%
X98190228Y-130003368D02*
X98190228Y-129003368D01*
X98190228Y-129003368D02*
X98428323Y-129003368D01*
X98428323Y-129003368D02*
X98571180Y-129050987D01*
X98571180Y-129050987D02*
X98666418Y-129146225D01*
X98666418Y-129146225D02*
X98714037Y-129241463D01*
X98714037Y-129241463D02*
X98761656Y-129431939D01*
X98761656Y-129431939D02*
X98761656Y-129574796D01*
X98761656Y-129574796D02*
X98714037Y-129765272D01*
X98714037Y-129765272D02*
X98666418Y-129860510D01*
X98666418Y-129860510D02*
X98571180Y-129955749D01*
X98571180Y-129955749D02*
X98428323Y-130003368D01*
X98428323Y-130003368D02*
X98190228Y-130003368D01*
X99714037Y-130003368D02*
X99142609Y-130003368D01*
X99428323Y-130003368D02*
X99428323Y-129003368D01*
X99428323Y-129003368D02*
X99333085Y-129146225D01*
X99333085Y-129146225D02*
X99237847Y-129241463D01*
X99237847Y-129241463D02*
X99142609Y-129289082D01*
X100333085Y-129003368D02*
X100428323Y-129003368D01*
X100428323Y-129003368D02*
X100523561Y-129050987D01*
X100523561Y-129050987D02*
X100571180Y-129098606D01*
X100571180Y-129098606D02*
X100618799Y-129193844D01*
X100618799Y-129193844D02*
X100666418Y-129384320D01*
X100666418Y-129384320D02*
X100666418Y-129622415D01*
X100666418Y-129622415D02*
X100618799Y-129812891D01*
X100618799Y-129812891D02*
X100571180Y-129908129D01*
X100571180Y-129908129D02*
X100523561Y-129955749D01*
X100523561Y-129955749D02*
X100428323Y-130003368D01*
X100428323Y-130003368D02*
X100333085Y-130003368D01*
X100333085Y-130003368D02*
X100237847Y-129955749D01*
X100237847Y-129955749D02*
X100190228Y-129908129D01*
X100190228Y-129908129D02*
X100142609Y-129812891D01*
X100142609Y-129812891D02*
X100094990Y-129622415D01*
X100094990Y-129622415D02*
X100094990Y-129384320D01*
X100094990Y-129384320D02*
X100142609Y-129193844D01*
X100142609Y-129193844D02*
X100190228Y-129098606D01*
X100190228Y-129098606D02*
X100237847Y-129050987D01*
X100237847Y-129050987D02*
X100333085Y-129003368D01*
X101047371Y-129098606D02*
X101094990Y-129050987D01*
X101094990Y-129050987D02*
X101190228Y-129003368D01*
X101190228Y-129003368D02*
X101428323Y-129003368D01*
X101428323Y-129003368D02*
X101523561Y-129050987D01*
X101523561Y-129050987D02*
X101571180Y-129098606D01*
X101571180Y-129098606D02*
X101618799Y-129193844D01*
X101618799Y-129193844D02*
X101618799Y-129289082D01*
X101618799Y-129289082D02*
X101571180Y-129431939D01*
X101571180Y-129431939D02*
X100999752Y-130003368D01*
X100999752Y-130003368D02*
X101618799Y-130003368D01*
%TO.C,U103*%
X131534819Y-117284285D02*
X132344342Y-117284285D01*
X132344342Y-117284285D02*
X132439580Y-117236666D01*
X132439580Y-117236666D02*
X132487200Y-117189047D01*
X132487200Y-117189047D02*
X132534819Y-117093809D01*
X132534819Y-117093809D02*
X132534819Y-116903333D01*
X132534819Y-116903333D02*
X132487200Y-116808095D01*
X132487200Y-116808095D02*
X132439580Y-116760476D01*
X132439580Y-116760476D02*
X132344342Y-116712857D01*
X132344342Y-116712857D02*
X131534819Y-116712857D01*
X132534819Y-115712857D02*
X132534819Y-116284285D01*
X132534819Y-115998571D02*
X131534819Y-115998571D01*
X131534819Y-115998571D02*
X131677676Y-116093809D01*
X131677676Y-116093809D02*
X131772914Y-116189047D01*
X131772914Y-116189047D02*
X131820533Y-116284285D01*
X131534819Y-115093809D02*
X131534819Y-114998571D01*
X131534819Y-114998571D02*
X131582438Y-114903333D01*
X131582438Y-114903333D02*
X131630057Y-114855714D01*
X131630057Y-114855714D02*
X131725295Y-114808095D01*
X131725295Y-114808095D02*
X131915771Y-114760476D01*
X131915771Y-114760476D02*
X132153866Y-114760476D01*
X132153866Y-114760476D02*
X132344342Y-114808095D01*
X132344342Y-114808095D02*
X132439580Y-114855714D01*
X132439580Y-114855714D02*
X132487200Y-114903333D01*
X132487200Y-114903333D02*
X132534819Y-114998571D01*
X132534819Y-114998571D02*
X132534819Y-115093809D01*
X132534819Y-115093809D02*
X132487200Y-115189047D01*
X132487200Y-115189047D02*
X132439580Y-115236666D01*
X132439580Y-115236666D02*
X132344342Y-115284285D01*
X132344342Y-115284285D02*
X132153866Y-115331904D01*
X132153866Y-115331904D02*
X131915771Y-115331904D01*
X131915771Y-115331904D02*
X131725295Y-115284285D01*
X131725295Y-115284285D02*
X131630057Y-115236666D01*
X131630057Y-115236666D02*
X131582438Y-115189047D01*
X131582438Y-115189047D02*
X131534819Y-115093809D01*
X131534819Y-114427142D02*
X131534819Y-113808095D01*
X131534819Y-113808095D02*
X131915771Y-114141428D01*
X131915771Y-114141428D02*
X131915771Y-113998571D01*
X131915771Y-113998571D02*
X131963390Y-113903333D01*
X131963390Y-113903333D02*
X132011009Y-113855714D01*
X132011009Y-113855714D02*
X132106247Y-113808095D01*
X132106247Y-113808095D02*
X132344342Y-113808095D01*
X132344342Y-113808095D02*
X132439580Y-113855714D01*
X132439580Y-113855714D02*
X132487200Y-113903333D01*
X132487200Y-113903333D02*
X132534819Y-113998571D01*
X132534819Y-113998571D02*
X132534819Y-114284285D01*
X132534819Y-114284285D02*
X132487200Y-114379523D01*
X132487200Y-114379523D02*
X132439580Y-114427142D01*
D14*
%TO.C,R3*%
X105640000Y-45720000D02*
X104870000Y-45720000D01*
X97560000Y-45720000D02*
X98330000Y-45720000D01*
X98330000Y-44350000D02*
X98330000Y-47090000D01*
X104870000Y-47090000D02*
X104870000Y-44350000D01*
X98330000Y-47090000D02*
X104870000Y-47090000D01*
X104870000Y-44350000D02*
X98330000Y-44350000D01*
%TO.C,R5*%
X-92810000Y-93620000D02*
X-92810000Y-87080000D01*
X-92480000Y-93620000D02*
X-92810000Y-93620000D01*
X-90400000Y-93620000D02*
X-90070000Y-93620000D01*
X-90070000Y-93620000D02*
X-90070000Y-87080000D01*
X-92810000Y-87080000D02*
X-92480000Y-87080000D01*
X-90070000Y-87080000D02*
X-90400000Y-87080000D01*
%TO.C,RV1*%
X55939000Y-68700000D02*
X57034000Y-68700000D01*
X55939000Y-68700000D02*
X55939000Y-58460000D01*
X59886000Y-68700000D02*
X62035000Y-68700000D01*
X64885000Y-68700000D02*
X65980000Y-68700000D01*
X65980000Y-68700000D02*
X65980000Y-58460000D01*
X55939000Y-58460000D02*
X59535000Y-58460000D01*
X62385000Y-58460000D02*
X65980000Y-58460000D01*
%TO.C,RV2*%
X65941000Y-48140000D02*
X64846000Y-48140000D01*
X65941000Y-48140000D02*
X65941000Y-58380000D01*
X61994000Y-48140000D02*
X59845000Y-48140000D01*
X56995000Y-48140000D02*
X55900000Y-48140000D01*
X55900000Y-48140000D02*
X55900000Y-58380000D01*
X65941000Y-58380000D02*
X62345000Y-58380000D01*
X59495000Y-58380000D02*
X55900000Y-58380000D01*
%TO.C,RV101*%
X101634000Y-124500000D02*
X102729000Y-124500000D01*
X101634000Y-124500000D02*
X101634000Y-114260000D01*
X105581000Y-124500000D02*
X107730000Y-124500000D01*
X110580000Y-124500000D02*
X111675000Y-124500000D01*
X111675000Y-124500000D02*
X111675000Y-114260000D01*
X101634000Y-114260000D02*
X105230000Y-114260000D01*
X108080000Y-114260000D02*
X111675000Y-114260000D01*
%TO.C,Q102*%
X89640000Y-121230000D02*
X93240000Y-121230000D01*
X91440000Y-116780001D02*
G75*
G03*
X89083601Y-118281193I0J-2599999D01*
G01*
X89115817Y-120502795D02*
G75*
G03*
X89640001Y-121229999I2324183J1122795D01*
G01*
X93796400Y-118281193D02*
G75*
G03*
X91440000Y-116780000I-2356400J-1098807D01*
G01*
X93239999Y-121229999D02*
G75*
G03*
X93764183Y-120502795I-1799999J1849999D01*
G01*
%TO.C,D1*%
X77670000Y-56970000D02*
X77670000Y-62410000D01*
X77340000Y-56970000D02*
X77670000Y-56970000D01*
X75060000Y-56970000D02*
X74730000Y-56970000D01*
X74730000Y-56970000D02*
X74730000Y-62410000D01*
X77670000Y-57750000D02*
X74730000Y-57750000D01*
X77670000Y-57870000D02*
X74730000Y-57870000D01*
X77670000Y-57990000D02*
X74730000Y-57990000D01*
X77670000Y-62410000D02*
X77340000Y-62410000D01*
X74730000Y-62410000D02*
X75060000Y-62410000D01*
%TO.C,Q2*%
X88160000Y-48950000D02*
X84560000Y-48950000D01*
X86360000Y-53399999D02*
G75*
G03*
X88716399Y-51898807I0J2599999D01*
G01*
X88684183Y-49677205D02*
G75*
G03*
X88159999Y-48950001I-2324183J-1122795D01*
G01*
X84003600Y-51898807D02*
G75*
G03*
X86360000Y-53400000I2356400J1098807D01*
G01*
X84560001Y-48950001D02*
G75*
G03*
X84035817Y-49677205I1799999J-1849999D01*
G01*
%TO.C,R18*%
X-106140000Y24230000D02*
X-99600000Y24230000D01*
X-106140000Y23900000D02*
X-106140000Y24230000D01*
X-106140000Y21820000D02*
X-106140000Y21490000D01*
X-106140000Y21490000D02*
X-99600000Y21490000D01*
X-99600000Y24230000D02*
X-99600000Y23900000D01*
X-99600000Y21490000D02*
X-99600000Y21820000D01*
%TO.C,C105*%
X125081000Y-123540000D02*
X126339000Y-123540000D01*
X125081000Y-125380000D02*
X126339000Y-125380000D01*
%TO.C,R104*%
X114840000Y-125630000D02*
X121380000Y-125630000D01*
X114840000Y-125960000D02*
X114840000Y-125630000D01*
X114840000Y-128040000D02*
X114840000Y-128370000D01*
X114840000Y-128370000D02*
X121380000Y-128370000D01*
X121380000Y-125630000D02*
X121380000Y-125960000D01*
X121380000Y-128370000D02*
X121380000Y-128040000D01*
%TO.C,R17*%
X-106140000Y29310000D02*
X-99600000Y29310000D01*
X-106140000Y28980000D02*
X-106140000Y29310000D01*
X-106140000Y26900000D02*
X-106140000Y26570000D01*
X-106140000Y26570000D02*
X-99600000Y26570000D01*
X-99600000Y29310000D02*
X-99600000Y28980000D01*
X-99600000Y26570000D02*
X-99600000Y26900000D01*
%TO.C,C4*%
X-66660000Y9140000D02*
X-66660000Y8545000D01*
X-66660000Y9140000D02*
X-55420000Y9140000D01*
X-66660000Y6695000D02*
X-66660000Y6100000D01*
X-66660000Y6100000D02*
X-55420000Y6100000D01*
X-55420000Y9140000D02*
X-55420000Y8545000D01*
X-55420000Y6695000D02*
X-55420000Y6100000D01*
%TO.C,D4*%
X85290000Y-56970000D02*
X85290000Y-62410000D01*
X84960000Y-56970000D02*
X85290000Y-56970000D01*
X82680000Y-56970000D02*
X82350000Y-56970000D01*
X82350000Y-56970000D02*
X82350000Y-62410000D01*
X85290000Y-57750000D02*
X82350000Y-57750000D01*
X85290000Y-57870000D02*
X82350000Y-57870000D01*
X85290000Y-57990000D02*
X82350000Y-57990000D01*
X85290000Y-62410000D02*
X84960000Y-62410000D01*
X82350000Y-62410000D02*
X82680000Y-62410000D01*
%TO.C,R106*%
X151030000Y-136620000D02*
X151030000Y-130080000D01*
X151360000Y-136620000D02*
X151030000Y-136620000D01*
X153440000Y-136620000D02*
X153770000Y-136620000D01*
X153770000Y-136620000D02*
X153770000Y-130080000D01*
X151030000Y-130080000D02*
X151360000Y-130080000D01*
X153770000Y-130080000D02*
X153440000Y-130080000D01*
%TO.C,U1*%
X102810000Y-62340000D02*
X120710000Y-62340000D01*
X120710000Y-62340000D02*
X120710000Y-57040000D01*
X102810000Y-60690000D02*
X102810000Y-62340000D01*
X102810000Y-57040000D02*
X102810000Y-58690000D01*
X120710000Y-57040000D02*
X102810000Y-57040000D01*
X102810000Y-60690000D02*
G75*
G03*
X102810000Y-58690000I0J1000000D01*
G01*
%TO.C,R16*%
X-106140000Y34390000D02*
X-99600000Y34390000D01*
X-106140000Y34060000D02*
X-106140000Y34390000D01*
X-106140000Y31980000D02*
X-106140000Y31650000D01*
X-106140000Y31650000D02*
X-99600000Y31650000D01*
X-99600000Y34390000D02*
X-99600000Y34060000D01*
X-99600000Y31650000D02*
X-99600000Y31980000D01*
%TO.C,C109*%
X189879000Y-125380000D02*
X188621000Y-125380000D01*
X189879000Y-123540000D02*
X188621000Y-123540000D01*
%TO.C,C104*%
X61877782Y-102300259D02*
X62387797Y-102606707D01*
X61877782Y-102300259D02*
X67666810Y-92665698D01*
X63973556Y-103559527D02*
X64483571Y-103865975D01*
X64483571Y-103865975D02*
X70272599Y-94231414D01*
X67666810Y-92665698D02*
X68176825Y-92972146D01*
X69762584Y-93924966D02*
X70272599Y-94231414D01*
%TO.C,D2*%
X77290000Y-51870000D02*
X77290000Y-52200000D01*
X77290000Y-54810000D02*
X77290000Y-54480000D01*
X81710000Y-54810000D02*
X81710000Y-51870000D01*
X81830000Y-54810000D02*
X81830000Y-51870000D01*
X81950000Y-54810000D02*
X81950000Y-51870000D01*
X82730000Y-51870000D02*
X77290000Y-51870000D01*
X82730000Y-52200000D02*
X82730000Y-51870000D01*
X82730000Y-54480000D02*
X82730000Y-54810000D01*
X82730000Y-54810000D02*
X77290000Y-54810000D01*
%TO.C,C106*%
X150481000Y-121000000D02*
X151739000Y-121000000D01*
X150481000Y-122840000D02*
X151739000Y-122840000D01*
%TO.C,R8*%
X69750000Y-80740000D02*
X69750000Y-74200000D01*
X70080000Y-80740000D02*
X69750000Y-80740000D01*
X72160000Y-80740000D02*
X72490000Y-80740000D01*
X72490000Y-80740000D02*
X72490000Y-74200000D01*
X69750000Y-74200000D02*
X70080000Y-74200000D01*
X72490000Y-74200000D02*
X72160000Y-74200000D01*
%TO.C,R107*%
X154940000Y-92480000D02*
X154940000Y-93250000D01*
X156310000Y-93250000D02*
X153570000Y-93250000D01*
X153570000Y-93250000D02*
X153570000Y-99790000D01*
X156310000Y-99790000D02*
X156310000Y-93250000D01*
X153570000Y-99790000D02*
X156310000Y-99790000D01*
X154940000Y-100560000D02*
X154940000Y-99790000D01*
%TO.C,C101*%
X86154531Y-89811325D02*
X86000534Y-90386051D01*
X86154531Y-89811325D02*
X97011537Y-92720451D01*
X85521718Y-92173014D02*
X85367721Y-92747739D01*
X85367721Y-92747739D02*
X96224727Y-95656866D01*
X97011537Y-92720451D02*
X96857540Y-93295177D01*
X96378725Y-95082140D02*
X96224727Y-95656866D01*
%TO.C,C3*%
X-74725000Y45815000D02*
X-73925000Y45815000D01*
X-74325000Y46215000D02*
X-74325000Y45415000D01*
X-70315302Y47580000D02*
X-70315302Y39420000D01*
X-70275302Y47580000D02*
X-70275302Y39420000D01*
X-70235302Y47580000D02*
X-70235302Y39420000D01*
X-70195302Y47579000D02*
X-70195302Y39421000D01*
X-70155302Y47577000D02*
X-70155302Y39423000D01*
X-70115302Y47576000D02*
X-70115302Y39424000D01*
X-70075302Y47574000D02*
X-70075302Y39426000D01*
X-70035302Y47571000D02*
X-70035302Y39429000D01*
X-69995302Y47568000D02*
X-69995302Y39432000D01*
X-69955302Y47565000D02*
X-69955302Y39435000D01*
X-69915302Y47561000D02*
X-69915302Y39439000D01*
X-69875302Y47557000D02*
X-69875302Y39443000D01*
X-69835302Y47552000D02*
X-69835302Y39448000D01*
X-69795302Y47548000D02*
X-69795302Y39452000D01*
X-69755302Y47542000D02*
X-69755302Y39458000D01*
X-69715302Y47537000D02*
X-69715302Y39463000D01*
X-69675302Y47530000D02*
X-69675302Y39470000D01*
X-69635302Y47524000D02*
X-69635302Y39476000D01*
X-69594302Y47517000D02*
X-69594302Y39483000D01*
X-69554302Y47510000D02*
X-69554302Y39490000D01*
X-69514302Y47502000D02*
X-69514302Y39498000D01*
X-69474302Y47494000D02*
X-69474302Y39506000D01*
X-69434302Y47485000D02*
X-69434302Y39515000D01*
X-69394302Y47476000D02*
X-69394302Y39524000D01*
X-69354302Y47467000D02*
X-69354302Y39533000D01*
X-69314302Y47457000D02*
X-69314302Y39543000D01*
X-69274302Y47447000D02*
X-69274302Y39553000D01*
X-69234302Y47436000D02*
X-69234302Y39564000D01*
X-69194302Y47425000D02*
X-69194302Y39575000D01*
X-69154302Y47414000D02*
X-69154302Y39586000D01*
X-69114302Y47402000D02*
X-69114302Y39598000D01*
X-69074302Y47389000D02*
X-69074302Y39611000D01*
X-69034302Y47377000D02*
X-69034302Y39623000D01*
X-68994302Y47363000D02*
X-68994302Y39637000D01*
X-68954302Y47350000D02*
X-68954302Y39650000D01*
X-68914302Y47335000D02*
X-68914302Y39665000D01*
X-68874302Y47321000D02*
X-68874302Y39679000D01*
X-68834302Y47305000D02*
X-68834302Y44540000D01*
X-68834302Y42460000D02*
X-68834302Y39695000D01*
X-68794302Y47290000D02*
X-68794302Y44540000D01*
X-68794302Y42460000D02*
X-68794302Y39710000D01*
X-68754302Y47274000D02*
X-68754302Y44540000D01*
X-68754302Y42460000D02*
X-68754302Y39726000D01*
X-68714302Y47257000D02*
X-68714302Y44540000D01*
X-68714302Y42460000D02*
X-68714302Y39743000D01*
X-68674302Y47240000D02*
X-68674302Y44540000D01*
X-68674302Y42460000D02*
X-68674302Y39760000D01*
X-68634302Y47222000D02*
X-68634302Y44540000D01*
X-68634302Y42460000D02*
X-68634302Y39778000D01*
X-68594302Y47204000D02*
X-68594302Y44540000D01*
X-68594302Y42460000D02*
X-68594302Y39796000D01*
X-68554302Y47186000D02*
X-68554302Y44540000D01*
X-68554302Y42460000D02*
X-68554302Y39814000D01*
X-68514302Y47166000D02*
X-68514302Y44540000D01*
X-68514302Y42460000D02*
X-68514302Y39834000D01*
X-68474302Y47147000D02*
X-68474302Y44540000D01*
X-68474302Y42460000D02*
X-68474302Y39853000D01*
X-68434302Y47127000D02*
X-68434302Y44540000D01*
X-68434302Y42460000D02*
X-68434302Y39873000D01*
X-68394302Y47106000D02*
X-68394302Y44540000D01*
X-68394302Y42460000D02*
X-68394302Y39894000D01*
X-68354302Y47084000D02*
X-68354302Y44540000D01*
X-68354302Y42460000D02*
X-68354302Y39916000D01*
X-68314302Y47062000D02*
X-68314302Y44540000D01*
X-68314302Y42460000D02*
X-68314302Y39938000D01*
X-68274302Y47040000D02*
X-68274302Y44540000D01*
X-68274302Y42460000D02*
X-68274302Y39960000D01*
X-68234302Y47017000D02*
X-68234302Y44540000D01*
X-68234302Y42460000D02*
X-68234302Y39983000D01*
X-68194302Y46993000D02*
X-68194302Y44540000D01*
X-68194302Y42460000D02*
X-68194302Y40007000D01*
X-68154302Y46969000D02*
X-68154302Y44540000D01*
X-68154302Y42460000D02*
X-68154302Y40031000D01*
X-68114302Y46944000D02*
X-68114302Y44540000D01*
X-68114302Y42460000D02*
X-68114302Y40056000D01*
X-68074302Y46918000D02*
X-68074302Y44540000D01*
X-68074302Y42460000D02*
X-68074302Y40082000D01*
X-68034302Y46892000D02*
X-68034302Y44540000D01*
X-68034302Y42460000D02*
X-68034302Y40108000D01*
X-67994302Y46865000D02*
X-67994302Y44540000D01*
X-67994302Y42460000D02*
X-67994302Y40135000D01*
X-67954302Y46838000D02*
X-67954302Y44540000D01*
X-67954302Y42460000D02*
X-67954302Y40162000D01*
X-67914302Y46809000D02*
X-67914302Y44540000D01*
X-67914302Y42460000D02*
X-67914302Y40191000D01*
X-67874302Y46780000D02*
X-67874302Y44540000D01*
X-67874302Y42460000D02*
X-67874302Y40220000D01*
X-67834302Y46750000D02*
X-67834302Y44540000D01*
X-67834302Y42460000D02*
X-67834302Y40250000D01*
X-67794302Y46720000D02*
X-67794302Y44540000D01*
X-67794302Y42460000D02*
X-67794302Y40280000D01*
X-67754302Y46689000D02*
X-67754302Y44540000D01*
X-67754302Y42460000D02*
X-67754302Y40311000D01*
X-67714302Y46656000D02*
X-67714302Y44540000D01*
X-67714302Y42460000D02*
X-67714302Y40344000D01*
X-67674302Y46624000D02*
X-67674302Y44540000D01*
X-67674302Y42460000D02*
X-67674302Y40376000D01*
X-67634302Y46590000D02*
X-67634302Y44540000D01*
X-67634302Y42460000D02*
X-67634302Y40410000D01*
X-67594302Y46555000D02*
X-67594302Y44540000D01*
X-67594302Y42460000D02*
X-67594302Y40445000D01*
X-67554302Y46519000D02*
X-67554302Y44540000D01*
X-67554302Y42460000D02*
X-67554302Y40481000D01*
X-67514302Y46483000D02*
X-67514302Y44540000D01*
X-67514302Y42460000D02*
X-67514302Y40517000D01*
X-67474302Y46445000D02*
X-67474302Y44540000D01*
X-67474302Y42460000D02*
X-67474302Y40555000D01*
X-67434302Y46407000D02*
X-67434302Y44540000D01*
X-67434302Y42460000D02*
X-67434302Y40593000D01*
X-67394302Y46367000D02*
X-67394302Y44540000D01*
X-67394302Y42460000D02*
X-67394302Y40633000D01*
X-67354302Y46326000D02*
X-67354302Y44540000D01*
X-67354302Y42460000D02*
X-67354302Y40674000D01*
X-67314302Y46284000D02*
X-67314302Y44540000D01*
X-67314302Y42460000D02*
X-67314302Y40716000D01*
X-67274302Y46241000D02*
X-67274302Y44540000D01*
X-67274302Y42460000D02*
X-67274302Y40759000D01*
X-67234302Y46197000D02*
X-67234302Y44540000D01*
X-67234302Y42460000D02*
X-67234302Y40803000D01*
X-67194302Y46151000D02*
X-67194302Y44540000D01*
X-67194302Y42460000D02*
X-67194302Y40849000D01*
X-67154302Y46104000D02*
X-67154302Y44540000D01*
X-67154302Y42460000D02*
X-67154302Y40896000D01*
X-67114302Y46056000D02*
X-67114302Y44540000D01*
X-67114302Y42460000D02*
X-67114302Y40944000D01*
X-67074302Y46005000D02*
X-67074302Y44540000D01*
X-67074302Y42460000D02*
X-67074302Y40995000D01*
X-67034302Y45954000D02*
X-67034302Y44540000D01*
X-67034302Y42460000D02*
X-67034302Y41046000D01*
X-66994302Y45900000D02*
X-66994302Y44540000D01*
X-66994302Y42460000D02*
X-66994302Y41100000D01*
X-66954302Y45845000D02*
X-66954302Y44540000D01*
X-66954302Y42460000D02*
X-66954302Y41155000D01*
X-66914302Y45787000D02*
X-66914302Y44540000D01*
X-66914302Y42460000D02*
X-66914302Y41213000D01*
X-66874302Y45728000D02*
X-66874302Y44540000D01*
X-66874302Y42460000D02*
X-66874302Y41272000D01*
X-66834302Y45666000D02*
X-66834302Y44540000D01*
X-66834302Y42460000D02*
X-66834302Y41334000D01*
X-66794302Y45602000D02*
X-66794302Y44540000D01*
X-66794302Y42460000D02*
X-66794302Y41398000D01*
X-66754302Y45534000D02*
X-66754302Y41466000D01*
X-66714302Y45464000D02*
X-66714302Y41536000D01*
X-66674302Y45390000D02*
X-66674302Y41610000D01*
X-66634302Y45313000D02*
X-66634302Y41687000D01*
X-66594302Y45231000D02*
X-66594302Y41769000D01*
X-66554302Y45145000D02*
X-66554302Y41855000D01*
X-66514302Y45052000D02*
X-66514302Y41948000D01*
X-66474302Y44953000D02*
X-66474302Y42047000D01*
X-66434302Y44846000D02*
X-66434302Y42154000D01*
X-66394302Y44729000D02*
X-66394302Y42271000D01*
X-66354302Y44598000D02*
X-66354302Y42402000D01*
X-66314302Y44448000D02*
X-66314302Y42552000D01*
X-66274302Y44268000D02*
X-66274302Y42732000D01*
X-66234302Y44033000D02*
X-66234302Y42967000D01*
X-66195302Y43500000D02*
G75*
G03*
X-66195302Y43500000I-4120000J0D01*
G01*
%TO.C,U3*%
X-66160000Y-10320000D02*
X-64830000Y-10320000D01*
X-66160000Y-11650000D02*
X-66160000Y-10320000D01*
X-66160000Y-12920000D02*
X-66160000Y-18060000D01*
X-66160000Y-12920000D02*
X-63500000Y-12920000D01*
X-66160000Y-18060000D02*
X-63500000Y-18060000D01*
X-63500000Y-12920000D02*
X-63500000Y-18060000D01*
%TO.C,R19*%
X-106140000Y19150000D02*
X-99600000Y19150000D01*
X-106140000Y18820000D02*
X-106140000Y19150000D01*
X-106140000Y16740000D02*
X-106140000Y16410000D01*
X-106140000Y16410000D02*
X-99600000Y16410000D01*
X-99600000Y19150000D02*
X-99600000Y18820000D01*
X-99600000Y16410000D02*
X-99600000Y16740000D01*
%TO.C,R11*%
X-106140000Y54710000D02*
X-99600000Y54710000D01*
X-106140000Y54380000D02*
X-106140000Y54710000D01*
X-106140000Y52300000D02*
X-106140000Y51970000D01*
X-106140000Y51970000D02*
X-99600000Y51970000D01*
X-99600000Y54710000D02*
X-99600000Y54380000D01*
X-99600000Y51970000D02*
X-99600000Y52300000D01*
%TO.C,C110*%
X188581000Y-105760000D02*
X189839000Y-105760000D01*
X188581000Y-107600000D02*
X189839000Y-107600000D01*
%TO.C,D101*%
X95430000Y-128470000D02*
X89990000Y-128470000D01*
X95430000Y-128140000D02*
X95430000Y-128470000D01*
X95430000Y-125860000D02*
X95430000Y-125530000D01*
X95430000Y-125530000D02*
X89990000Y-125530000D01*
X94650000Y-128470000D02*
X94650000Y-125530000D01*
X94530000Y-128470000D02*
X94530000Y-125530000D01*
X94410000Y-128470000D02*
X94410000Y-125530000D01*
X89990000Y-128470000D02*
X89990000Y-128140000D01*
X89990000Y-125530000D02*
X89990000Y-125860000D01*
%TO.C,U101*%
X67250000Y-123250000D02*
X67250000Y-121920000D01*
X68580000Y-123250000D02*
X67250000Y-123250000D01*
X69850000Y-123250000D02*
X77530000Y-123250000D01*
X69850000Y-123250000D02*
X69850000Y-120590000D01*
X77530000Y-123250000D02*
X77530000Y-120590000D01*
X69850000Y-120590000D02*
X77530000Y-120590000D01*
%TO.C,R109*%
X186590000Y-118840000D02*
X186590000Y-112300000D01*
X186920000Y-118840000D02*
X186590000Y-118840000D01*
X189000000Y-118840000D02*
X189330000Y-118840000D01*
X189330000Y-118840000D02*
X189330000Y-112300000D01*
X186590000Y-112300000D02*
X186920000Y-112300000D01*
X189330000Y-112300000D02*
X189000000Y-112300000D01*
%TO.C,U2*%
X-86070000Y9580000D02*
X-86070000Y-700000D01*
X-86070000Y-700000D02*
X-80770000Y-700000D01*
X-84420000Y9580000D02*
X-86070000Y9580000D01*
X-80770000Y9580000D02*
X-82420000Y9580000D01*
X-80770000Y-700000D02*
X-80770000Y9580000D01*
X-84420000Y9580000D02*
G75*
G03*
X-82420000Y9580000I1000000J0D01*
G01*
%TO.C,C1*%
X-109890000Y-47625000D02*
X-109890000Y-46825000D01*
X-110290000Y-47225000D02*
X-109490000Y-47225000D01*
X-111655000Y-43215302D02*
X-103495000Y-43215302D01*
X-111655000Y-43175302D02*
X-103495000Y-43175302D01*
X-111655000Y-43135302D02*
X-103495000Y-43135302D01*
X-111654000Y-43095302D02*
X-103496000Y-43095302D01*
X-111652000Y-43055302D02*
X-103498000Y-43055302D01*
X-111651000Y-43015302D02*
X-103499000Y-43015302D01*
X-111649000Y-42975302D02*
X-103501000Y-42975302D01*
X-111646000Y-42935302D02*
X-103504000Y-42935302D01*
X-111643000Y-42895302D02*
X-103507000Y-42895302D01*
X-111640000Y-42855302D02*
X-103510000Y-42855302D01*
X-111636000Y-42815302D02*
X-103514000Y-42815302D01*
X-111632000Y-42775302D02*
X-103518000Y-42775302D01*
X-111627000Y-42735302D02*
X-103523000Y-42735302D01*
X-111623000Y-42695302D02*
X-103527000Y-42695302D01*
X-111617000Y-42655302D02*
X-103533000Y-42655302D01*
X-111612000Y-42615302D02*
X-103538000Y-42615302D01*
X-111605000Y-42575302D02*
X-103545000Y-42575302D01*
X-111599000Y-42535302D02*
X-103551000Y-42535302D01*
X-111592000Y-42494302D02*
X-103558000Y-42494302D01*
X-111585000Y-42454302D02*
X-103565000Y-42454302D01*
X-111577000Y-42414302D02*
X-103573000Y-42414302D01*
X-111569000Y-42374302D02*
X-103581000Y-42374302D01*
X-111560000Y-42334302D02*
X-103590000Y-42334302D01*
X-111551000Y-42294302D02*
X-103599000Y-42294302D01*
X-111542000Y-42254302D02*
X-103608000Y-42254302D01*
X-111532000Y-42214302D02*
X-103618000Y-42214302D01*
X-111522000Y-42174302D02*
X-103628000Y-42174302D01*
X-111511000Y-42134302D02*
X-103639000Y-42134302D01*
X-111500000Y-42094302D02*
X-103650000Y-42094302D01*
X-111489000Y-42054302D02*
X-103661000Y-42054302D01*
X-111477000Y-42014302D02*
X-103673000Y-42014302D01*
X-111464000Y-41974302D02*
X-103686000Y-41974302D01*
X-111452000Y-41934302D02*
X-103698000Y-41934302D01*
X-111438000Y-41894302D02*
X-103712000Y-41894302D01*
X-111425000Y-41854302D02*
X-103725000Y-41854302D01*
X-111410000Y-41814302D02*
X-103740000Y-41814302D01*
X-111396000Y-41774302D02*
X-103754000Y-41774302D01*
X-111380000Y-41734302D02*
X-108615000Y-41734302D01*
X-106535000Y-41734302D02*
X-103770000Y-41734302D01*
X-111365000Y-41694302D02*
X-108615000Y-41694302D01*
X-106535000Y-41694302D02*
X-103785000Y-41694302D01*
X-111349000Y-41654302D02*
X-108615000Y-41654302D01*
X-106535000Y-41654302D02*
X-103801000Y-41654302D01*
X-111332000Y-41614302D02*
X-108615000Y-41614302D01*
X-106535000Y-41614302D02*
X-103818000Y-41614302D01*
X-111315000Y-41574302D02*
X-108615000Y-41574302D01*
X-106535000Y-41574302D02*
X-103835000Y-41574302D01*
X-111297000Y-41534302D02*
X-108615000Y-41534302D01*
X-106535000Y-41534302D02*
X-103853000Y-41534302D01*
X-111279000Y-41494302D02*
X-108615000Y-41494302D01*
X-106535000Y-41494302D02*
X-103871000Y-41494302D01*
X-111261000Y-41454302D02*
X-108615000Y-41454302D01*
X-106535000Y-41454302D02*
X-103889000Y-41454302D01*
X-111241000Y-41414302D02*
X-108615000Y-41414302D01*
X-106535000Y-41414302D02*
X-103909000Y-41414302D01*
X-111222000Y-41374302D02*
X-108615000Y-41374302D01*
X-106535000Y-41374302D02*
X-103928000Y-41374302D01*
X-111202000Y-41334302D02*
X-108615000Y-41334302D01*
X-106535000Y-41334302D02*
X-103948000Y-41334302D01*
X-111181000Y-41294302D02*
X-108615000Y-41294302D01*
X-106535000Y-41294302D02*
X-103969000Y-41294302D01*
X-111159000Y-41254302D02*
X-108615000Y-41254302D01*
X-106535000Y-41254302D02*
X-103991000Y-41254302D01*
X-111137000Y-41214302D02*
X-108615000Y-41214302D01*
X-106535000Y-41214302D02*
X-104013000Y-41214302D01*
X-111115000Y-41174302D02*
X-108615000Y-41174302D01*
X-106535000Y-41174302D02*
X-104035000Y-41174302D01*
X-111092000Y-41134302D02*
X-108615000Y-41134302D01*
X-106535000Y-41134302D02*
X-104058000Y-41134302D01*
X-111068000Y-41094302D02*
X-108615000Y-41094302D01*
X-106535000Y-41094302D02*
X-104082000Y-41094302D01*
X-111044000Y-41054302D02*
X-108615000Y-41054302D01*
X-106535000Y-41054302D02*
X-104106000Y-41054302D01*
X-111019000Y-41014302D02*
X-108615000Y-41014302D01*
X-106535000Y-41014302D02*
X-104131000Y-41014302D01*
X-110993000Y-40974302D02*
X-108615000Y-40974302D01*
X-106535000Y-40974302D02*
X-104157000Y-40974302D01*
X-110967000Y-40934302D02*
X-108615000Y-40934302D01*
X-106535000Y-40934302D02*
X-104183000Y-40934302D01*
X-110940000Y-40894302D02*
X-108615000Y-40894302D01*
X-106535000Y-40894302D02*
X-104210000Y-40894302D01*
X-110913000Y-40854302D02*
X-108615000Y-40854302D01*
X-106535000Y-40854302D02*
X-104237000Y-40854302D01*
X-110884000Y-40814302D02*
X-108615000Y-40814302D01*
X-106535000Y-40814302D02*
X-104266000Y-40814302D01*
X-110855000Y-40774302D02*
X-108615000Y-40774302D01*
X-106535000Y-40774302D02*
X-104295000Y-40774302D01*
X-110825000Y-40734302D02*
X-108615000Y-40734302D01*
X-106535000Y-40734302D02*
X-104325000Y-40734302D01*
X-110795000Y-40694302D02*
X-108615000Y-40694302D01*
X-106535000Y-40694302D02*
X-104355000Y-40694302D01*
X-110764000Y-40654302D02*
X-108615000Y-40654302D01*
X-106535000Y-40654302D02*
X-104386000Y-40654302D01*
X-110731000Y-40614302D02*
X-108615000Y-40614302D01*
X-106535000Y-40614302D02*
X-104419000Y-40614302D01*
X-110699000Y-40574302D02*
X-108615000Y-40574302D01*
X-106535000Y-40574302D02*
X-104451000Y-40574302D01*
X-110665000Y-40534302D02*
X-108615000Y-40534302D01*
X-106535000Y-40534302D02*
X-104485000Y-40534302D01*
X-110630000Y-40494302D02*
X-108615000Y-40494302D01*
X-106535000Y-40494302D02*
X-104520000Y-40494302D01*
X-110594000Y-40454302D02*
X-108615000Y-40454302D01*
X-106535000Y-40454302D02*
X-104556000Y-40454302D01*
X-110558000Y-40414302D02*
X-108615000Y-40414302D01*
X-106535000Y-40414302D02*
X-104592000Y-40414302D01*
X-110520000Y-40374302D02*
X-108615000Y-40374302D01*
X-106535000Y-40374302D02*
X-104630000Y-40374302D01*
X-110482000Y-40334302D02*
X-108615000Y-40334302D01*
X-106535000Y-40334302D02*
X-104668000Y-40334302D01*
X-110442000Y-40294302D02*
X-108615000Y-40294302D01*
X-106535000Y-40294302D02*
X-104708000Y-40294302D01*
X-110401000Y-40254302D02*
X-108615000Y-40254302D01*
X-106535000Y-40254302D02*
X-104749000Y-40254302D01*
X-110359000Y-40214302D02*
X-108615000Y-40214302D01*
X-106535000Y-40214302D02*
X-104791000Y-40214302D01*
X-110316000Y-40174302D02*
X-108615000Y-40174302D01*
X-106535000Y-40174302D02*
X-104834000Y-40174302D01*
X-110272000Y-40134302D02*
X-108615000Y-40134302D01*
X-106535000Y-40134302D02*
X-104878000Y-40134302D01*
X-110226000Y-40094302D02*
X-108615000Y-40094302D01*
X-106535000Y-40094302D02*
X-104924000Y-40094302D01*
X-110179000Y-40054302D02*
X-108615000Y-40054302D01*
X-106535000Y-40054302D02*
X-104971000Y-40054302D01*
X-110131000Y-40014302D02*
X-108615000Y-40014302D01*
X-106535000Y-40014302D02*
X-105019000Y-40014302D01*
X-110080000Y-39974302D02*
X-108615000Y-39974302D01*
X-106535000Y-39974302D02*
X-105070000Y-39974302D01*
X-110029000Y-39934302D02*
X-108615000Y-39934302D01*
X-106535000Y-39934302D02*
X-105121000Y-39934302D01*
X-109975000Y-39894302D02*
X-108615000Y-39894302D01*
X-106535000Y-39894302D02*
X-105175000Y-39894302D01*
X-109920000Y-39854302D02*
X-108615000Y-39854302D01*
X-106535000Y-39854302D02*
X-105230000Y-39854302D01*
X-109862000Y-39814302D02*
X-108615000Y-39814302D01*
X-106535000Y-39814302D02*
X-105288000Y-39814302D01*
X-109803000Y-39774302D02*
X-108615000Y-39774302D01*
X-106535000Y-39774302D02*
X-105347000Y-39774302D01*
X-109741000Y-39734302D02*
X-108615000Y-39734302D01*
X-106535000Y-39734302D02*
X-105409000Y-39734302D01*
X-109677000Y-39694302D02*
X-108615000Y-39694302D01*
X-106535000Y-39694302D02*
X-105473000Y-39694302D01*
X-109609000Y-39654302D02*
X-105541000Y-39654302D01*
X-109539000Y-39614302D02*
X-105611000Y-39614302D01*
X-109465000Y-39574302D02*
X-105685000Y-39574302D01*
X-109388000Y-39534302D02*
X-105762000Y-39534302D01*
X-109306000Y-39494302D02*
X-105844000Y-39494302D01*
X-109220000Y-39454302D02*
X-105930000Y-39454302D01*
X-109127000Y-39414302D02*
X-106023000Y-39414302D01*
X-109028000Y-39374302D02*
X-106122000Y-39374302D01*
X-108921000Y-39334302D02*
X-106229000Y-39334302D01*
X-108804000Y-39294302D02*
X-106346000Y-39294302D01*
X-108673000Y-39254302D02*
X-106477000Y-39254302D01*
X-108523000Y-39214302D02*
X-106627000Y-39214302D01*
X-108343000Y-39174302D02*
X-106807000Y-39174302D01*
X-108108000Y-39134302D02*
X-107042000Y-39134302D01*
X-103455000Y-43215302D02*
G75*
G03*
X-103455000Y-43215302I-4120000J0D01*
G01*
%TO.C,D5*%
X-120070000Y-6150000D02*
X-114630000Y-6150000D01*
X-120070000Y-6480000D02*
X-120070000Y-6150000D01*
X-120070000Y-8760000D02*
X-120070000Y-9090000D01*
X-120070000Y-9090000D02*
X-114630000Y-9090000D01*
X-119290000Y-6150000D02*
X-119290000Y-9090000D01*
X-119170000Y-6150000D02*
X-119170000Y-9090000D01*
X-119050000Y-6150000D02*
X-119050000Y-9090000D01*
X-114630000Y-6150000D02*
X-114630000Y-6480000D01*
X-114630000Y-9090000D02*
X-114630000Y-8760000D01*
%TO.C,C107*%
X132741000Y-126080000D02*
X133999000Y-126080000D01*
X132741000Y-127920000D02*
X133999000Y-127920000D01*
%TO.C,R103*%
X90900000Y-123290000D02*
X84360000Y-123290000D01*
X90900000Y-122960000D02*
X90900000Y-123290000D01*
X90900000Y-120880000D02*
X90900000Y-120550000D01*
X90900000Y-120550000D02*
X84360000Y-120550000D01*
X84360000Y-123290000D02*
X84360000Y-122960000D01*
X84360000Y-120550000D02*
X84360000Y-120880000D01*
%TO.C,Q101*%
X79480000Y-128850000D02*
X83080000Y-128850000D01*
X81280000Y-124400001D02*
G75*
G03*
X78923601Y-125901193I0J-2599999D01*
G01*
X78955817Y-128122795D02*
G75*
G03*
X79480001Y-128849999I2324183J1122795D01*
G01*
X83636400Y-125901193D02*
G75*
G03*
X81280000Y-124400000I-2356400J-1098807D01*
G01*
X83079999Y-128849999D02*
G75*
G03*
X83604183Y-128122795I-1799999J1849999D01*
G01*
%TO.C,D3*%
X82730000Y-67510000D02*
X77290000Y-67510000D01*
X82730000Y-67180000D02*
X82730000Y-67510000D01*
X82730000Y-64900000D02*
X82730000Y-64570000D01*
X82730000Y-64570000D02*
X77290000Y-64570000D01*
X81950000Y-67510000D02*
X81950000Y-64570000D01*
X81830000Y-67510000D02*
X81830000Y-64570000D01*
X81710000Y-67510000D02*
X81710000Y-64570000D01*
X77290000Y-67510000D02*
X77290000Y-67180000D01*
X77290000Y-64570000D02*
X77290000Y-64900000D01*
%TO.C,R101*%
X74200000Y-123090000D02*
X80740000Y-123090000D01*
X74200000Y-123420000D02*
X74200000Y-123090000D01*
X74200000Y-125500000D02*
X74200000Y-125830000D01*
X74200000Y-125830000D02*
X80740000Y-125830000D01*
X80740000Y-123090000D02*
X80740000Y-123420000D01*
X80740000Y-125830000D02*
X80740000Y-125500000D01*
%TO.C,U104*%
X148530000Y-118220000D02*
X168970000Y-118220000D01*
X168970000Y-118220000D02*
X168970000Y-112920000D01*
X148530000Y-116570000D02*
X148530000Y-118220000D01*
X148530000Y-112920000D02*
X148530000Y-114570000D01*
X168970000Y-112920000D02*
X148530000Y-112920000D01*
X148530000Y-116570000D02*
G75*
G03*
X148530000Y-114570000I0J1000000D01*
G01*
%TO.C,R12*%
X-106140000Y49630000D02*
X-99600000Y49630000D01*
X-106140000Y49300000D02*
X-106140000Y49630000D01*
X-106140000Y47220000D02*
X-106140000Y46890000D01*
X-106140000Y46890000D02*
X-99600000Y46890000D01*
X-99600000Y49630000D02*
X-99600000Y49300000D01*
X-99600000Y46890000D02*
X-99600000Y47220000D01*
%TO.C,R14*%
X-22320000Y1370000D02*
X-15780000Y1370000D01*
X-22320000Y1040000D02*
X-22320000Y1370000D01*
X-22320000Y-1040000D02*
X-22320000Y-1370000D01*
X-22320000Y-1370000D02*
X-15780000Y-1370000D01*
X-15780000Y1370000D02*
X-15780000Y1040000D01*
X-15780000Y-1370000D02*
X-15780000Y-1040000D01*
%TO.C,R7*%
X-121380000Y29310000D02*
X-114840000Y29310000D01*
X-121380000Y28980000D02*
X-121380000Y29310000D01*
X-121380000Y26900000D02*
X-121380000Y26570000D01*
X-121380000Y26570000D02*
X-114840000Y26570000D01*
X-114840000Y29310000D02*
X-114840000Y28980000D01*
X-114840000Y26570000D02*
X-114840000Y26900000D01*
%TO.C,Q103*%
X120120000Y-123770000D02*
X123720000Y-123770000D01*
X121920000Y-119320001D02*
G75*
G03*
X119563601Y-120821193I0J-2599999D01*
G01*
X119595817Y-123042795D02*
G75*
G03*
X120120001Y-123769999I2324183J1122795D01*
G01*
X124276400Y-120821193D02*
G75*
G03*
X121920000Y-119320000I-2356400J-1098807D01*
G01*
X123719999Y-123769999D02*
G75*
G03*
X124244183Y-123042795I-1799999J1849999D01*
G01*
%TO.C,U105*%
X176470000Y-118220000D02*
X186750000Y-118220000D01*
X186750000Y-118220000D02*
X186750000Y-112920000D01*
X176470000Y-116570000D02*
X176470000Y-118220000D01*
X176470000Y-112920000D02*
X176470000Y-114570000D01*
X186750000Y-112920000D02*
X176470000Y-112920000D01*
X176470000Y-116570000D02*
G75*
G03*
X176470000Y-114570000I0J1000000D01*
G01*
%TO.C,R108*%
X180880000Y-125630000D02*
X187420000Y-125630000D01*
X180880000Y-125960000D02*
X180880000Y-125630000D01*
X180880000Y-128040000D02*
X180880000Y-128370000D01*
X180880000Y-128370000D02*
X187420000Y-128370000D01*
X187420000Y-125630000D02*
X187420000Y-125960000D01*
X187420000Y-128370000D02*
X187420000Y-128040000D01*
%TO.C,R2*%
X99600000Y-46890000D02*
X106140000Y-46890000D01*
X99600000Y-47220000D02*
X99600000Y-46890000D01*
X99600000Y-49300000D02*
X99600000Y-49630000D01*
X99600000Y-49630000D02*
X106140000Y-49630000D01*
X106140000Y-46890000D02*
X106140000Y-47220000D01*
X106140000Y-49630000D02*
X106140000Y-49300000D01*
%TO.C,C102*%
X85649698Y-111535000D02*
X84849698Y-111535000D01*
X85249698Y-111935000D02*
X85249698Y-111135000D01*
X81240000Y-113300000D02*
X81240000Y-105140000D01*
X81200000Y-113300000D02*
X81200000Y-105140000D01*
X81160000Y-113300000D02*
X81160000Y-105140000D01*
X81120000Y-113299000D02*
X81120000Y-105141000D01*
X81080000Y-113297000D02*
X81080000Y-105143000D01*
X81040000Y-113296000D02*
X81040000Y-105144000D01*
X81000000Y-113294000D02*
X81000000Y-105146000D01*
X80960000Y-113291000D02*
X80960000Y-105149000D01*
X80920000Y-113288000D02*
X80920000Y-105152000D01*
X80880000Y-113285000D02*
X80880000Y-105155000D01*
X80840000Y-113281000D02*
X80840000Y-105159000D01*
X80800000Y-113277000D02*
X80800000Y-105163000D01*
X80760000Y-113272000D02*
X80760000Y-105168000D01*
X80720000Y-113268000D02*
X80720000Y-105172000D01*
X80680000Y-113262000D02*
X80680000Y-105178000D01*
X80640000Y-113257000D02*
X80640000Y-105183000D01*
X80600000Y-113250000D02*
X80600000Y-105190000D01*
X80560000Y-113244000D02*
X80560000Y-105196000D01*
X80519000Y-113237000D02*
X80519000Y-105203000D01*
X80479000Y-113230000D02*
X80479000Y-105210000D01*
X80439000Y-113222000D02*
X80439000Y-105218000D01*
X80399000Y-113214000D02*
X80399000Y-105226000D01*
X80359000Y-113205000D02*
X80359000Y-105235000D01*
X80319000Y-113196000D02*
X80319000Y-105244000D01*
X80279000Y-113187000D02*
X80279000Y-105253000D01*
X80239000Y-113177000D02*
X80239000Y-105263000D01*
X80199000Y-113167000D02*
X80199000Y-105273000D01*
X80159000Y-113156000D02*
X80159000Y-105284000D01*
X80119000Y-113145000D02*
X80119000Y-105295000D01*
X80079000Y-113134000D02*
X80079000Y-105306000D01*
X80039000Y-113122000D02*
X80039000Y-105318000D01*
X79999000Y-113109000D02*
X79999000Y-105331000D01*
X79959000Y-113097000D02*
X79959000Y-105343000D01*
X79919000Y-113083000D02*
X79919000Y-105357000D01*
X79879000Y-113070000D02*
X79879000Y-105370000D01*
X79839000Y-113055000D02*
X79839000Y-105385000D01*
X79799000Y-113041000D02*
X79799000Y-105399000D01*
X79759000Y-113025000D02*
X79759000Y-110260000D01*
X79759000Y-108180000D02*
X79759000Y-105415000D01*
X79719000Y-113010000D02*
X79719000Y-110260000D01*
X79719000Y-108180000D02*
X79719000Y-105430000D01*
X79679000Y-112994000D02*
X79679000Y-110260000D01*
X79679000Y-108180000D02*
X79679000Y-105446000D01*
X79639000Y-112977000D02*
X79639000Y-110260000D01*
X79639000Y-108180000D02*
X79639000Y-105463000D01*
X79599000Y-112960000D02*
X79599000Y-110260000D01*
X79599000Y-108180000D02*
X79599000Y-105480000D01*
X79559000Y-112942000D02*
X79559000Y-110260000D01*
X79559000Y-108180000D02*
X79559000Y-105498000D01*
X79519000Y-112924000D02*
X79519000Y-110260000D01*
X79519000Y-108180000D02*
X79519000Y-105516000D01*
X79479000Y-112906000D02*
X79479000Y-110260000D01*
X79479000Y-108180000D02*
X79479000Y-105534000D01*
X79439000Y-112886000D02*
X79439000Y-110260000D01*
X79439000Y-108180000D02*
X79439000Y-105554000D01*
X79399000Y-112867000D02*
X79399000Y-110260000D01*
X79399000Y-108180000D02*
X79399000Y-105573000D01*
X79359000Y-112847000D02*
X79359000Y-110260000D01*
X79359000Y-108180000D02*
X79359000Y-105593000D01*
X79319000Y-112826000D02*
X79319000Y-110260000D01*
X79319000Y-108180000D02*
X79319000Y-105614000D01*
X79279000Y-112804000D02*
X79279000Y-110260000D01*
X79279000Y-108180000D02*
X79279000Y-105636000D01*
X79239000Y-112782000D02*
X79239000Y-110260000D01*
X79239000Y-108180000D02*
X79239000Y-105658000D01*
X79199000Y-112760000D02*
X79199000Y-110260000D01*
X79199000Y-108180000D02*
X79199000Y-105680000D01*
X79159000Y-112737000D02*
X79159000Y-110260000D01*
X79159000Y-108180000D02*
X79159000Y-105703000D01*
X79119000Y-112713000D02*
X79119000Y-110260000D01*
X79119000Y-108180000D02*
X79119000Y-105727000D01*
X79079000Y-112689000D02*
X79079000Y-110260000D01*
X79079000Y-108180000D02*
X79079000Y-105751000D01*
X79039000Y-112664000D02*
X79039000Y-110260000D01*
X79039000Y-108180000D02*
X79039000Y-105776000D01*
X78999000Y-112638000D02*
X78999000Y-110260000D01*
X78999000Y-108180000D02*
X78999000Y-105802000D01*
X78959000Y-112612000D02*
X78959000Y-110260000D01*
X78959000Y-108180000D02*
X78959000Y-105828000D01*
X78919000Y-112585000D02*
X78919000Y-110260000D01*
X78919000Y-108180000D02*
X78919000Y-105855000D01*
X78879000Y-112558000D02*
X78879000Y-110260000D01*
X78879000Y-108180000D02*
X78879000Y-105882000D01*
X78839000Y-112529000D02*
X78839000Y-110260000D01*
X78839000Y-108180000D02*
X78839000Y-105911000D01*
X78799000Y-112500000D02*
X78799000Y-110260000D01*
X78799000Y-108180000D02*
X78799000Y-105940000D01*
X78759000Y-112470000D02*
X78759000Y-110260000D01*
X78759000Y-108180000D02*
X78759000Y-105970000D01*
X78719000Y-112440000D02*
X78719000Y-110260000D01*
X78719000Y-108180000D02*
X78719000Y-106000000D01*
X78679000Y-112409000D02*
X78679000Y-110260000D01*
X78679000Y-108180000D02*
X78679000Y-106031000D01*
X78639000Y-112376000D02*
X78639000Y-110260000D01*
X78639000Y-108180000D02*
X78639000Y-106064000D01*
X78599000Y-112344000D02*
X78599000Y-110260000D01*
X78599000Y-108180000D02*
X78599000Y-106096000D01*
X78559000Y-112310000D02*
X78559000Y-110260000D01*
X78559000Y-108180000D02*
X78559000Y-106130000D01*
X78519000Y-112275000D02*
X78519000Y-110260000D01*
X78519000Y-108180000D02*
X78519000Y-106165000D01*
X78479000Y-112239000D02*
X78479000Y-110260000D01*
X78479000Y-108180000D02*
X78479000Y-106201000D01*
X78439000Y-112203000D02*
X78439000Y-110260000D01*
X78439000Y-108180000D02*
X78439000Y-106237000D01*
X78399000Y-112165000D02*
X78399000Y-110260000D01*
X78399000Y-108180000D02*
X78399000Y-106275000D01*
X78359000Y-112127000D02*
X78359000Y-110260000D01*
X78359000Y-108180000D02*
X78359000Y-106313000D01*
X78319000Y-112087000D02*
X78319000Y-110260000D01*
X78319000Y-108180000D02*
X78319000Y-106353000D01*
X78279000Y-112046000D02*
X78279000Y-110260000D01*
X78279000Y-108180000D02*
X78279000Y-106394000D01*
X78239000Y-112004000D02*
X78239000Y-110260000D01*
X78239000Y-108180000D02*
X78239000Y-106436000D01*
X78199000Y-111961000D02*
X78199000Y-110260000D01*
X78199000Y-108180000D02*
X78199000Y-106479000D01*
X78159000Y-111917000D02*
X78159000Y-110260000D01*
X78159000Y-108180000D02*
X78159000Y-106523000D01*
X78119000Y-111871000D02*
X78119000Y-110260000D01*
X78119000Y-108180000D02*
X78119000Y-106569000D01*
X78079000Y-111824000D02*
X78079000Y-110260000D01*
X78079000Y-108180000D02*
X78079000Y-106616000D01*
X78039000Y-111776000D02*
X78039000Y-110260000D01*
X78039000Y-108180000D02*
X78039000Y-106664000D01*
X77999000Y-111725000D02*
X77999000Y-110260000D01*
X77999000Y-108180000D02*
X77999000Y-106715000D01*
X77959000Y-111674000D02*
X77959000Y-110260000D01*
X77959000Y-108180000D02*
X77959000Y-106766000D01*
X77919000Y-111620000D02*
X77919000Y-110260000D01*
X77919000Y-108180000D02*
X77919000Y-106820000D01*
X77879000Y-111565000D02*
X77879000Y-110260000D01*
X77879000Y-108180000D02*
X77879000Y-106875000D01*
X77839000Y-111507000D02*
X77839000Y-110260000D01*
X77839000Y-108180000D02*
X77839000Y-106933000D01*
X77799000Y-111448000D02*
X77799000Y-110260000D01*
X77799000Y-108180000D02*
X77799000Y-106992000D01*
X77759000Y-111386000D02*
X77759000Y-110260000D01*
X77759000Y-108180000D02*
X77759000Y-107054000D01*
X77719000Y-111322000D02*
X77719000Y-110260000D01*
X77719000Y-108180000D02*
X77719000Y-107118000D01*
X77679000Y-111254000D02*
X77679000Y-107186000D01*
X77639000Y-111184000D02*
X77639000Y-107256000D01*
X77599000Y-111110000D02*
X77599000Y-107330000D01*
X77559000Y-111033000D02*
X77559000Y-107407000D01*
X77519000Y-110951000D02*
X77519000Y-107489000D01*
X77479000Y-110865000D02*
X77479000Y-107575000D01*
X77439000Y-110772000D02*
X77439000Y-107668000D01*
X77399000Y-110673000D02*
X77399000Y-107767000D01*
X77359000Y-110566000D02*
X77359000Y-107874000D01*
X77319000Y-110449000D02*
X77319000Y-107991000D01*
X77279000Y-110318000D02*
X77279000Y-108122000D01*
X77239000Y-110168000D02*
X77239000Y-108272000D01*
X77199000Y-109988000D02*
X77199000Y-108452000D01*
X77159000Y-109753000D02*
X77159000Y-108687000D01*
X85360000Y-109220000D02*
G75*
G03*
X85360000Y-109220000I-4120000J0D01*
G01*
%TO.C,R9*%
X87530000Y-45180000D02*
X87530000Y-38640000D01*
X87860000Y-45180000D02*
X87530000Y-45180000D01*
X89940000Y-45180000D02*
X90270000Y-45180000D01*
X90270000Y-45180000D02*
X90270000Y-38640000D01*
X87530000Y-38640000D02*
X87860000Y-38640000D01*
X90270000Y-38640000D02*
X89940000Y-38640000D01*
%TO.C,R15*%
X-22320000Y-3710000D02*
X-15780000Y-3710000D01*
X-22320000Y-4040000D02*
X-22320000Y-3710000D01*
X-22320000Y-6120000D02*
X-22320000Y-6450000D01*
X-22320000Y-6450000D02*
X-15780000Y-6450000D01*
X-15780000Y-3710000D02*
X-15780000Y-4040000D01*
X-15780000Y-6450000D02*
X-15780000Y-6120000D01*
%TO.C,R1*%
X-113130000Y-93620000D02*
X-113130000Y-87080000D01*
X-112800000Y-93620000D02*
X-113130000Y-93620000D01*
X-110720000Y-93620000D02*
X-110390000Y-93620000D01*
X-110390000Y-93620000D02*
X-110390000Y-87080000D01*
X-113130000Y-87080000D02*
X-112800000Y-87080000D01*
X-110390000Y-87080000D02*
X-110720000Y-87080000D01*
%TO.C,R13*%
X-106140000Y44550000D02*
X-99600000Y44550000D01*
X-106140000Y44220000D02*
X-106140000Y44550000D01*
X-106140000Y42140000D02*
X-106140000Y41810000D01*
X-106140000Y41810000D02*
X-99600000Y41810000D01*
X-99600000Y44550000D02*
X-99600000Y44220000D01*
X-99600000Y41810000D02*
X-99600000Y42140000D01*
%TO.C,C108*%
X153021000Y-105760000D02*
X154279000Y-105760000D01*
X153021000Y-107600000D02*
X154279000Y-107600000D01*
%TO.C,C2*%
X-19949000Y-30700000D02*
X-18691000Y-30700000D01*
X-19949000Y-32540000D02*
X-18691000Y-32540000D01*
%TO.C,R4*%
X-97890000Y-93620000D02*
X-97890000Y-87080000D01*
X-97560000Y-93620000D02*
X-97890000Y-93620000D01*
X-95480000Y-93620000D02*
X-95150000Y-93620000D01*
X-95150000Y-93620000D02*
X-95150000Y-87080000D01*
X-97890000Y-87080000D02*
X-97560000Y-87080000D01*
X-95150000Y-87080000D02*
X-95480000Y-87080000D01*
%TO.C,C103*%
X65409698Y-111535000D02*
X64609698Y-111535000D01*
X65009698Y-111935000D02*
X65009698Y-111135000D01*
X61000000Y-113300000D02*
X61000000Y-105140000D01*
X60960000Y-113300000D02*
X60960000Y-105140000D01*
X60920000Y-113300000D02*
X60920000Y-105140000D01*
X60880000Y-113299000D02*
X60880000Y-105141000D01*
X60840000Y-113297000D02*
X60840000Y-105143000D01*
X60800000Y-113296000D02*
X60800000Y-105144000D01*
X60760000Y-113294000D02*
X60760000Y-105146000D01*
X60720000Y-113291000D02*
X60720000Y-105149000D01*
X60680000Y-113288000D02*
X60680000Y-105152000D01*
X60640000Y-113285000D02*
X60640000Y-105155000D01*
X60600000Y-113281000D02*
X60600000Y-105159000D01*
X60560000Y-113277000D02*
X60560000Y-105163000D01*
X60520000Y-113272000D02*
X60520000Y-105168000D01*
X60480000Y-113268000D02*
X60480000Y-105172000D01*
X60440000Y-113262000D02*
X60440000Y-105178000D01*
X60400000Y-113257000D02*
X60400000Y-105183000D01*
X60360000Y-113250000D02*
X60360000Y-105190000D01*
X60320000Y-113244000D02*
X60320000Y-105196000D01*
X60279000Y-113237000D02*
X60279000Y-105203000D01*
X60239000Y-113230000D02*
X60239000Y-105210000D01*
X60199000Y-113222000D02*
X60199000Y-105218000D01*
X60159000Y-113214000D02*
X60159000Y-105226000D01*
X60119000Y-113205000D02*
X60119000Y-105235000D01*
X60079000Y-113196000D02*
X60079000Y-105244000D01*
X60039000Y-113187000D02*
X60039000Y-105253000D01*
X59999000Y-113177000D02*
X59999000Y-105263000D01*
X59959000Y-113167000D02*
X59959000Y-105273000D01*
X59919000Y-113156000D02*
X59919000Y-105284000D01*
X59879000Y-113145000D02*
X59879000Y-105295000D01*
X59839000Y-113134000D02*
X59839000Y-105306000D01*
X59799000Y-113122000D02*
X59799000Y-105318000D01*
X59759000Y-113109000D02*
X59759000Y-105331000D01*
X59719000Y-113097000D02*
X59719000Y-105343000D01*
X59679000Y-113083000D02*
X59679000Y-105357000D01*
X59639000Y-113070000D02*
X59639000Y-105370000D01*
X59599000Y-113055000D02*
X59599000Y-105385000D01*
X59559000Y-113041000D02*
X59559000Y-105399000D01*
X59519000Y-113025000D02*
X59519000Y-110260000D01*
X59519000Y-108180000D02*
X59519000Y-105415000D01*
X59479000Y-113010000D02*
X59479000Y-110260000D01*
X59479000Y-108180000D02*
X59479000Y-105430000D01*
X59439000Y-112994000D02*
X59439000Y-110260000D01*
X59439000Y-108180000D02*
X59439000Y-105446000D01*
X59399000Y-112977000D02*
X59399000Y-110260000D01*
X59399000Y-108180000D02*
X59399000Y-105463000D01*
X59359000Y-112960000D02*
X59359000Y-110260000D01*
X59359000Y-108180000D02*
X59359000Y-105480000D01*
X59319000Y-112942000D02*
X59319000Y-110260000D01*
X59319000Y-108180000D02*
X59319000Y-105498000D01*
X59279000Y-112924000D02*
X59279000Y-110260000D01*
X59279000Y-108180000D02*
X59279000Y-105516000D01*
X59239000Y-112906000D02*
X59239000Y-110260000D01*
X59239000Y-108180000D02*
X59239000Y-105534000D01*
X59199000Y-112886000D02*
X59199000Y-110260000D01*
X59199000Y-108180000D02*
X59199000Y-105554000D01*
X59159000Y-112867000D02*
X59159000Y-110260000D01*
X59159000Y-108180000D02*
X59159000Y-105573000D01*
X59119000Y-112847000D02*
X59119000Y-110260000D01*
X59119000Y-108180000D02*
X59119000Y-105593000D01*
X59079000Y-112826000D02*
X59079000Y-110260000D01*
X59079000Y-108180000D02*
X59079000Y-105614000D01*
X59039000Y-112804000D02*
X59039000Y-110260000D01*
X59039000Y-108180000D02*
X59039000Y-105636000D01*
X58999000Y-112782000D02*
X58999000Y-110260000D01*
X58999000Y-108180000D02*
X58999000Y-105658000D01*
X58959000Y-112760000D02*
X58959000Y-110260000D01*
X58959000Y-108180000D02*
X58959000Y-105680000D01*
X58919000Y-112737000D02*
X58919000Y-110260000D01*
X58919000Y-108180000D02*
X58919000Y-105703000D01*
X58879000Y-112713000D02*
X58879000Y-110260000D01*
X58879000Y-108180000D02*
X58879000Y-105727000D01*
X58839000Y-112689000D02*
X58839000Y-110260000D01*
X58839000Y-108180000D02*
X58839000Y-105751000D01*
X58799000Y-112664000D02*
X58799000Y-110260000D01*
X58799000Y-108180000D02*
X58799000Y-105776000D01*
X58759000Y-112638000D02*
X58759000Y-110260000D01*
X58759000Y-108180000D02*
X58759000Y-105802000D01*
X58719000Y-112612000D02*
X58719000Y-110260000D01*
X58719000Y-108180000D02*
X58719000Y-105828000D01*
X58679000Y-112585000D02*
X58679000Y-110260000D01*
X58679000Y-108180000D02*
X58679000Y-105855000D01*
X58639000Y-112558000D02*
X58639000Y-110260000D01*
X58639000Y-108180000D02*
X58639000Y-105882000D01*
X58599000Y-112529000D02*
X58599000Y-110260000D01*
X58599000Y-108180000D02*
X58599000Y-105911000D01*
X58559000Y-112500000D02*
X58559000Y-110260000D01*
X58559000Y-108180000D02*
X58559000Y-105940000D01*
X58519000Y-112470000D02*
X58519000Y-110260000D01*
X58519000Y-108180000D02*
X58519000Y-105970000D01*
X58479000Y-112440000D02*
X58479000Y-110260000D01*
X58479000Y-108180000D02*
X58479000Y-106000000D01*
X58439000Y-112409000D02*
X58439000Y-110260000D01*
X58439000Y-108180000D02*
X58439000Y-106031000D01*
X58399000Y-112376000D02*
X58399000Y-110260000D01*
X58399000Y-108180000D02*
X58399000Y-106064000D01*
X58359000Y-112344000D02*
X58359000Y-110260000D01*
X58359000Y-108180000D02*
X58359000Y-106096000D01*
X58319000Y-112310000D02*
X58319000Y-110260000D01*
X58319000Y-108180000D02*
X58319000Y-106130000D01*
X58279000Y-112275000D02*
X58279000Y-110260000D01*
X58279000Y-108180000D02*
X58279000Y-106165000D01*
X58239000Y-112239000D02*
X58239000Y-110260000D01*
X58239000Y-108180000D02*
X58239000Y-106201000D01*
X58199000Y-112203000D02*
X58199000Y-110260000D01*
X58199000Y-108180000D02*
X58199000Y-106237000D01*
X58159000Y-112165000D02*
X58159000Y-110260000D01*
X58159000Y-108180000D02*
X58159000Y-106275000D01*
X58119000Y-112127000D02*
X58119000Y-110260000D01*
X58119000Y-108180000D02*
X58119000Y-106313000D01*
X58079000Y-112087000D02*
X58079000Y-110260000D01*
X58079000Y-108180000D02*
X58079000Y-106353000D01*
X58039000Y-112046000D02*
X58039000Y-110260000D01*
X58039000Y-108180000D02*
X58039000Y-106394000D01*
X57999000Y-112004000D02*
X57999000Y-110260000D01*
X57999000Y-108180000D02*
X57999000Y-106436000D01*
X57959000Y-111961000D02*
X57959000Y-110260000D01*
X57959000Y-108180000D02*
X57959000Y-106479000D01*
X57919000Y-111917000D02*
X57919000Y-110260000D01*
X57919000Y-108180000D02*
X57919000Y-106523000D01*
X57879000Y-111871000D02*
X57879000Y-110260000D01*
X57879000Y-108180000D02*
X57879000Y-106569000D01*
X57839000Y-111824000D02*
X57839000Y-110260000D01*
X57839000Y-108180000D02*
X57839000Y-106616000D01*
X57799000Y-111776000D02*
X57799000Y-110260000D01*
X57799000Y-108180000D02*
X57799000Y-106664000D01*
X57759000Y-111725000D02*
X57759000Y-110260000D01*
X57759000Y-108180000D02*
X57759000Y-106715000D01*
X57719000Y-111674000D02*
X57719000Y-110260000D01*
X57719000Y-108180000D02*
X57719000Y-106766000D01*
X57679000Y-111620000D02*
X57679000Y-110260000D01*
X57679000Y-108180000D02*
X57679000Y-106820000D01*
X57639000Y-111565000D02*
X57639000Y-110260000D01*
X57639000Y-108180000D02*
X57639000Y-106875000D01*
X57599000Y-111507000D02*
X57599000Y-110260000D01*
X57599000Y-108180000D02*
X57599000Y-106933000D01*
X57559000Y-111448000D02*
X57559000Y-110260000D01*
X57559000Y-108180000D02*
X57559000Y-106992000D01*
X57519000Y-111386000D02*
X57519000Y-110260000D01*
X57519000Y-108180000D02*
X57519000Y-107054000D01*
X57479000Y-111322000D02*
X57479000Y-110260000D01*
X57479000Y-108180000D02*
X57479000Y-107118000D01*
X57439000Y-111254000D02*
X57439000Y-107186000D01*
X57399000Y-111184000D02*
X57399000Y-107256000D01*
X57359000Y-111110000D02*
X57359000Y-107330000D01*
X57319000Y-111033000D02*
X57319000Y-107407000D01*
X57279000Y-110951000D02*
X57279000Y-107489000D01*
X57239000Y-110865000D02*
X57239000Y-107575000D01*
X57199000Y-110772000D02*
X57199000Y-107668000D01*
X57159000Y-110673000D02*
X57159000Y-107767000D01*
X57119000Y-110566000D02*
X57119000Y-107874000D01*
X57079000Y-110449000D02*
X57079000Y-107991000D01*
X57039000Y-110318000D02*
X57039000Y-108122000D01*
X56999000Y-110168000D02*
X56999000Y-108272000D01*
X56959000Y-109988000D02*
X56959000Y-108452000D01*
X56919000Y-109753000D02*
X56919000Y-108687000D01*
X65120000Y-109220000D02*
G75*
G03*
X65120000Y-109220000I-4120000J0D01*
G01*
%TO.C,D102*%
X103050000Y-131010000D02*
X97610000Y-131010000D01*
X103050000Y-130680000D02*
X103050000Y-131010000D01*
X103050000Y-128400000D02*
X103050000Y-128070000D01*
X103050000Y-128070000D02*
X97610000Y-128070000D01*
X102270000Y-131010000D02*
X102270000Y-128070000D01*
X102150000Y-131010000D02*
X102150000Y-128070000D01*
X102030000Y-131010000D02*
X102030000Y-128070000D01*
X97610000Y-131010000D02*
X97610000Y-130680000D01*
X97610000Y-128070000D02*
X97610000Y-128400000D01*
%TO.C,R10*%
X-37510000Y-24030000D02*
X-30970000Y-24030000D01*
X-37510000Y-24360000D02*
X-37510000Y-24030000D01*
X-37510000Y-26440000D02*
X-37510000Y-26770000D01*
X-37510000Y-26770000D02*
X-30970000Y-26770000D01*
X-30970000Y-24030000D02*
X-30970000Y-24360000D01*
X-30970000Y-26770000D02*
X-30970000Y-26440000D01*
%TO.C,U102*%
X76240000Y-107410000D02*
X76240000Y-102769000D01*
X76240000Y-107410000D02*
X66000000Y-107410000D01*
X76240000Y-105900000D02*
X66000000Y-105900000D01*
X76240000Y-102769000D02*
X66000000Y-102769000D01*
X72970000Y-107410000D02*
X72970000Y-105900000D01*
X69269000Y-107410000D02*
X69269000Y-105900000D01*
X66000000Y-107410000D02*
X66000000Y-102769000D01*
%TO.C,R21*%
X-90900000Y57250000D02*
X-84360000Y57250000D01*
X-90900000Y56920000D02*
X-90900000Y57250000D01*
X-90900000Y54840000D02*
X-90900000Y54510000D01*
X-90900000Y54510000D02*
X-84360000Y54510000D01*
X-84360000Y57250000D02*
X-84360000Y56920000D01*
X-84360000Y54510000D02*
X-84360000Y54840000D01*
%TO.C,Q1*%
X71860000Y-70430000D02*
X75460000Y-70430000D01*
X73660000Y-65980001D02*
G75*
G03*
X71303601Y-67481193I0J-2599999D01*
G01*
X71335817Y-69702795D02*
G75*
G03*
X71860001Y-70429999I2324183J1122795D01*
G01*
X76016400Y-67481193D02*
G75*
G03*
X73660000Y-65980000I-2356400J-1098807D01*
G01*
X75459999Y-70429999D02*
G75*
G03*
X75984183Y-69702795I-1799999J1849999D01*
G01*
%TO.C,R102*%
X82450000Y-136620000D02*
X82450000Y-130080000D01*
X82780000Y-136620000D02*
X82450000Y-136620000D01*
X84860000Y-136620000D02*
X85190000Y-136620000D01*
X85190000Y-136620000D02*
X85190000Y-130080000D01*
X82450000Y-130080000D02*
X82780000Y-130080000D01*
X85190000Y-130080000D02*
X84860000Y-130080000D01*
%TO.C,R20*%
X-106140000Y14070000D02*
X-99600000Y14070000D01*
X-106140000Y13740000D02*
X-106140000Y14070000D01*
X-106140000Y11660000D02*
X-106140000Y11330000D01*
X-106140000Y11330000D02*
X-99600000Y11330000D01*
X-99600000Y14070000D02*
X-99600000Y13740000D01*
X-99600000Y11330000D02*
X-99600000Y11660000D01*
%TO.C,U103*%
X128205000Y-118220000D02*
X146105000Y-118220000D01*
X146105000Y-118220000D02*
X146105000Y-112920000D01*
X128205000Y-116570000D02*
X128205000Y-118220000D01*
X128205000Y-112920000D02*
X128205000Y-114570000D01*
X146105000Y-112920000D02*
X128205000Y-112920000D01*
X128205000Y-116570000D02*
G75*
G03*
X128205000Y-114570000I0J1000000D01*
G01*
%TO.C,R6*%
X-87730000Y-93620000D02*
X-87730000Y-87080000D01*
X-87400000Y-93620000D02*
X-87730000Y-93620000D01*
X-85320000Y-93620000D02*
X-84990000Y-93620000D01*
X-84990000Y-93620000D02*
X-84990000Y-87080000D01*
X-87730000Y-87080000D02*
X-87400000Y-87080000D01*
X-84990000Y-87080000D02*
X-85320000Y-87080000D01*
%TO.C,R105*%
X118010000Y-136620000D02*
X118010000Y-130080000D01*
X118340000Y-136620000D02*
X118010000Y-136620000D01*
X120420000Y-136620000D02*
X120750000Y-136620000D01*
X120750000Y-136620000D02*
X120750000Y-130080000D01*
X118010000Y-130080000D02*
X118340000Y-130080000D01*
X120750000Y-130080000D02*
X120420000Y-130080000D01*
%TD*%
M02*
