%TF.GenerationSoftware,KiCad,Pcbnew,7.0.5*%
%TF.CreationDate,2024-03-20T11:13:37-04:00*%
%TF.ProjectId,Lab_08,4c61625f-3038-42e6-9b69-6361645f7063,rev?*%
%TF.SameCoordinates,Original*%
%TF.FileFunction,Copper,L1,Top*%
%TF.FilePolarity,Positive*%
%FSLAX46Y46*%
G04 Gerber Fmt 4.6, Leading zero omitted, Abs format (unit mm)*
G04 Created by KiCad (PCBNEW 7.0.5) date 2024-03-20 11:13:37*
%MOMM*%
%LPD*%
G01*
G04 APERTURE LIST*
%ADD10C,0.100000*%
%ADD11C,0.150000*%
%ADD12C,0.300000*%
%ADD13C,0.400000*%
%TA.AperFunction,ComponentPad*%
%ADD14C,1.600000*%
%TD*%
%TA.AperFunction,ComponentPad*%
%ADD15O,1.600000X1.600000*%
%TD*%
%TA.AperFunction,ComponentPad*%
%ADD16C,2.340000*%
%TD*%
%TA.AperFunction,ComponentPad*%
%ADD17R,1.500000X1.500000*%
%TD*%
%TA.AperFunction,ComponentPad*%
%ADD18C,1.500000*%
%TD*%
%TA.AperFunction,ComponentPad*%
%ADD19R,1.800000X1.800000*%
%TD*%
%TA.AperFunction,ComponentPad*%
%ADD20O,1.800000X1.800000*%
%TD*%
%TA.AperFunction,ComponentPad*%
%ADD21R,1.600000X1.600000*%
%TD*%
%TA.AperFunction,ComponentPad*%
%ADD22R,1.700000X1.700000*%
%TD*%
%TA.AperFunction,ComponentPad*%
%ADD23O,1.700000X1.700000*%
%TD*%
%TA.AperFunction,ComponentPad*%
%ADD24R,1.905000X2.000000*%
%TD*%
%TA.AperFunction,ComponentPad*%
%ADD25O,1.905000X2.000000*%
%TD*%
%TA.AperFunction,ViaPad*%
%ADD26C,0.800000*%
%TD*%
%TA.AperFunction,Conductor*%
%ADD27C,0.250000*%
%TD*%
G04 APERTURE END LIST*
D10*
D11*
X177002200Y-166007200D02*
X285002200Y-166007200D01*
X285002200Y-198007200D01*
X177002200Y-198007200D01*
X177002200Y-166007200D01*
D10*
D11*
X10000000Y-10000000D02*
X287002200Y-10000000D01*
X287002200Y-200007200D01*
X10000000Y-200007200D01*
X10000000Y-10000000D01*
D10*
D11*
X12000000Y-12000000D02*
X285002200Y-12000000D01*
X285002200Y-198007200D01*
X12000000Y-198007200D01*
X12000000Y-12000000D01*
D10*
D11*
X60000000Y-12000000D02*
X60000000Y-10000000D01*
D10*
D11*
X110000000Y-12000000D02*
X110000000Y-10000000D01*
D10*
D11*
X160000000Y-12000000D02*
X160000000Y-10000000D01*
D10*
D11*
X210000000Y-12000000D02*
X210000000Y-10000000D01*
D10*
D11*
X260000000Y-12000000D02*
X260000000Y-10000000D01*
D10*
D11*
X36089160Y-11593604D02*
X35346303Y-11593604D01*
X35717731Y-11593604D02*
X35717731Y-10293604D01*
X35717731Y-10293604D02*
X35593922Y-10479319D01*
X35593922Y-10479319D02*
X35470112Y-10603128D01*
X35470112Y-10603128D02*
X35346303Y-10665033D01*
D10*
D11*
X85346303Y-10417414D02*
X85408207Y-10355509D01*
X85408207Y-10355509D02*
X85532017Y-10293604D01*
X85532017Y-10293604D02*
X85841541Y-10293604D01*
X85841541Y-10293604D02*
X85965350Y-10355509D01*
X85965350Y-10355509D02*
X86027255Y-10417414D01*
X86027255Y-10417414D02*
X86089160Y-10541223D01*
X86089160Y-10541223D02*
X86089160Y-10665033D01*
X86089160Y-10665033D02*
X86027255Y-10850747D01*
X86027255Y-10850747D02*
X85284398Y-11593604D01*
X85284398Y-11593604D02*
X86089160Y-11593604D01*
D10*
D11*
X135284398Y-10293604D02*
X136089160Y-10293604D01*
X136089160Y-10293604D02*
X135655826Y-10788842D01*
X135655826Y-10788842D02*
X135841541Y-10788842D01*
X135841541Y-10788842D02*
X135965350Y-10850747D01*
X135965350Y-10850747D02*
X136027255Y-10912652D01*
X136027255Y-10912652D02*
X136089160Y-11036461D01*
X136089160Y-11036461D02*
X136089160Y-11345985D01*
X136089160Y-11345985D02*
X136027255Y-11469795D01*
X136027255Y-11469795D02*
X135965350Y-11531700D01*
X135965350Y-11531700D02*
X135841541Y-11593604D01*
X135841541Y-11593604D02*
X135470112Y-11593604D01*
X135470112Y-11593604D02*
X135346303Y-11531700D01*
X135346303Y-11531700D02*
X135284398Y-11469795D01*
D10*
D11*
X185965350Y-10726938D02*
X185965350Y-11593604D01*
X185655826Y-10231700D02*
X185346303Y-11160271D01*
X185346303Y-11160271D02*
X186151064Y-11160271D01*
D10*
D11*
X236027255Y-10293604D02*
X235408207Y-10293604D01*
X235408207Y-10293604D02*
X235346303Y-10912652D01*
X235346303Y-10912652D02*
X235408207Y-10850747D01*
X235408207Y-10850747D02*
X235532017Y-10788842D01*
X235532017Y-10788842D02*
X235841541Y-10788842D01*
X235841541Y-10788842D02*
X235965350Y-10850747D01*
X235965350Y-10850747D02*
X236027255Y-10912652D01*
X236027255Y-10912652D02*
X236089160Y-11036461D01*
X236089160Y-11036461D02*
X236089160Y-11345985D01*
X236089160Y-11345985D02*
X236027255Y-11469795D01*
X236027255Y-11469795D02*
X235965350Y-11531700D01*
X235965350Y-11531700D02*
X235841541Y-11593604D01*
X235841541Y-11593604D02*
X235532017Y-11593604D01*
X235532017Y-11593604D02*
X235408207Y-11531700D01*
X235408207Y-11531700D02*
X235346303Y-11469795D01*
D10*
D11*
X285965350Y-10293604D02*
X285717731Y-10293604D01*
X285717731Y-10293604D02*
X285593922Y-10355509D01*
X285593922Y-10355509D02*
X285532017Y-10417414D01*
X285532017Y-10417414D02*
X285408207Y-10603128D01*
X285408207Y-10603128D02*
X285346303Y-10850747D01*
X285346303Y-10850747D02*
X285346303Y-11345985D01*
X285346303Y-11345985D02*
X285408207Y-11469795D01*
X285408207Y-11469795D02*
X285470112Y-11531700D01*
X285470112Y-11531700D02*
X285593922Y-11593604D01*
X285593922Y-11593604D02*
X285841541Y-11593604D01*
X285841541Y-11593604D02*
X285965350Y-11531700D01*
X285965350Y-11531700D02*
X286027255Y-11469795D01*
X286027255Y-11469795D02*
X286089160Y-11345985D01*
X286089160Y-11345985D02*
X286089160Y-11036461D01*
X286089160Y-11036461D02*
X286027255Y-10912652D01*
X286027255Y-10912652D02*
X285965350Y-10850747D01*
X285965350Y-10850747D02*
X285841541Y-10788842D01*
X285841541Y-10788842D02*
X285593922Y-10788842D01*
X285593922Y-10788842D02*
X285470112Y-10850747D01*
X285470112Y-10850747D02*
X285408207Y-10912652D01*
X285408207Y-10912652D02*
X285346303Y-11036461D01*
D10*
D11*
X60000000Y-198007200D02*
X60000000Y-200007200D01*
D10*
D11*
X110000000Y-198007200D02*
X110000000Y-200007200D01*
D10*
D11*
X160000000Y-198007200D02*
X160000000Y-200007200D01*
D10*
D11*
X210000000Y-198007200D02*
X210000000Y-200007200D01*
D10*
D11*
X260000000Y-198007200D02*
X260000000Y-200007200D01*
D10*
D11*
X36089160Y-199600804D02*
X35346303Y-199600804D01*
X35717731Y-199600804D02*
X35717731Y-198300804D01*
X35717731Y-198300804D02*
X35593922Y-198486519D01*
X35593922Y-198486519D02*
X35470112Y-198610328D01*
X35470112Y-198610328D02*
X35346303Y-198672233D01*
D10*
D11*
X85346303Y-198424614D02*
X85408207Y-198362709D01*
X85408207Y-198362709D02*
X85532017Y-198300804D01*
X85532017Y-198300804D02*
X85841541Y-198300804D01*
X85841541Y-198300804D02*
X85965350Y-198362709D01*
X85965350Y-198362709D02*
X86027255Y-198424614D01*
X86027255Y-198424614D02*
X86089160Y-198548423D01*
X86089160Y-198548423D02*
X86089160Y-198672233D01*
X86089160Y-198672233D02*
X86027255Y-198857947D01*
X86027255Y-198857947D02*
X85284398Y-199600804D01*
X85284398Y-199600804D02*
X86089160Y-199600804D01*
D10*
D11*
X135284398Y-198300804D02*
X136089160Y-198300804D01*
X136089160Y-198300804D02*
X135655826Y-198796042D01*
X135655826Y-198796042D02*
X135841541Y-198796042D01*
X135841541Y-198796042D02*
X135965350Y-198857947D01*
X135965350Y-198857947D02*
X136027255Y-198919852D01*
X136027255Y-198919852D02*
X136089160Y-199043661D01*
X136089160Y-199043661D02*
X136089160Y-199353185D01*
X136089160Y-199353185D02*
X136027255Y-199476995D01*
X136027255Y-199476995D02*
X135965350Y-199538900D01*
X135965350Y-199538900D02*
X135841541Y-199600804D01*
X135841541Y-199600804D02*
X135470112Y-199600804D01*
X135470112Y-199600804D02*
X135346303Y-199538900D01*
X135346303Y-199538900D02*
X135284398Y-199476995D01*
D10*
D11*
X185965350Y-198734138D02*
X185965350Y-199600804D01*
X185655826Y-198238900D02*
X185346303Y-199167471D01*
X185346303Y-199167471D02*
X186151064Y-199167471D01*
D10*
D11*
X236027255Y-198300804D02*
X235408207Y-198300804D01*
X235408207Y-198300804D02*
X235346303Y-198919852D01*
X235346303Y-198919852D02*
X235408207Y-198857947D01*
X235408207Y-198857947D02*
X235532017Y-198796042D01*
X235532017Y-198796042D02*
X235841541Y-198796042D01*
X235841541Y-198796042D02*
X235965350Y-198857947D01*
X235965350Y-198857947D02*
X236027255Y-198919852D01*
X236027255Y-198919852D02*
X236089160Y-199043661D01*
X236089160Y-199043661D02*
X236089160Y-199353185D01*
X236089160Y-199353185D02*
X236027255Y-199476995D01*
X236027255Y-199476995D02*
X235965350Y-199538900D01*
X235965350Y-199538900D02*
X235841541Y-199600804D01*
X235841541Y-199600804D02*
X235532017Y-199600804D01*
X235532017Y-199600804D02*
X235408207Y-199538900D01*
X235408207Y-199538900D02*
X235346303Y-199476995D01*
D10*
D11*
X285965350Y-198300804D02*
X285717731Y-198300804D01*
X285717731Y-198300804D02*
X285593922Y-198362709D01*
X285593922Y-198362709D02*
X285532017Y-198424614D01*
X285532017Y-198424614D02*
X285408207Y-198610328D01*
X285408207Y-198610328D02*
X285346303Y-198857947D01*
X285346303Y-198857947D02*
X285346303Y-199353185D01*
X285346303Y-199353185D02*
X285408207Y-199476995D01*
X285408207Y-199476995D02*
X285470112Y-199538900D01*
X285470112Y-199538900D02*
X285593922Y-199600804D01*
X285593922Y-199600804D02*
X285841541Y-199600804D01*
X285841541Y-199600804D02*
X285965350Y-199538900D01*
X285965350Y-199538900D02*
X286027255Y-199476995D01*
X286027255Y-199476995D02*
X286089160Y-199353185D01*
X286089160Y-199353185D02*
X286089160Y-199043661D01*
X286089160Y-199043661D02*
X286027255Y-198919852D01*
X286027255Y-198919852D02*
X285965350Y-198857947D01*
X285965350Y-198857947D02*
X285841541Y-198796042D01*
X285841541Y-198796042D02*
X285593922Y-198796042D01*
X285593922Y-198796042D02*
X285470112Y-198857947D01*
X285470112Y-198857947D02*
X285408207Y-198919852D01*
X285408207Y-198919852D02*
X285346303Y-199043661D01*
D10*
D11*
X10000000Y-60000000D02*
X12000000Y-60000000D01*
D10*
D11*
X10000000Y-110000000D02*
X12000000Y-110000000D01*
D10*
D11*
X10000000Y-160000000D02*
X12000000Y-160000000D01*
D10*
D11*
X10690476Y-35222176D02*
X11309523Y-35222176D01*
X10566666Y-35593604D02*
X10999999Y-34293604D01*
X10999999Y-34293604D02*
X11433333Y-35593604D01*
D10*
D11*
X11092857Y-84912652D02*
X11278571Y-84974557D01*
X11278571Y-84974557D02*
X11340476Y-85036461D01*
X11340476Y-85036461D02*
X11402380Y-85160271D01*
X11402380Y-85160271D02*
X11402380Y-85345985D01*
X11402380Y-85345985D02*
X11340476Y-85469795D01*
X11340476Y-85469795D02*
X11278571Y-85531700D01*
X11278571Y-85531700D02*
X11154761Y-85593604D01*
X11154761Y-85593604D02*
X10659523Y-85593604D01*
X10659523Y-85593604D02*
X10659523Y-84293604D01*
X10659523Y-84293604D02*
X11092857Y-84293604D01*
X11092857Y-84293604D02*
X11216666Y-84355509D01*
X11216666Y-84355509D02*
X11278571Y-84417414D01*
X11278571Y-84417414D02*
X11340476Y-84541223D01*
X11340476Y-84541223D02*
X11340476Y-84665033D01*
X11340476Y-84665033D02*
X11278571Y-84788842D01*
X11278571Y-84788842D02*
X11216666Y-84850747D01*
X11216666Y-84850747D02*
X11092857Y-84912652D01*
X11092857Y-84912652D02*
X10659523Y-84912652D01*
D10*
D11*
X11402380Y-135469795D02*
X11340476Y-135531700D01*
X11340476Y-135531700D02*
X11154761Y-135593604D01*
X11154761Y-135593604D02*
X11030952Y-135593604D01*
X11030952Y-135593604D02*
X10845238Y-135531700D01*
X10845238Y-135531700D02*
X10721428Y-135407890D01*
X10721428Y-135407890D02*
X10659523Y-135284080D01*
X10659523Y-135284080D02*
X10597619Y-135036461D01*
X10597619Y-135036461D02*
X10597619Y-134850747D01*
X10597619Y-134850747D02*
X10659523Y-134603128D01*
X10659523Y-134603128D02*
X10721428Y-134479319D01*
X10721428Y-134479319D02*
X10845238Y-134355509D01*
X10845238Y-134355509D02*
X11030952Y-134293604D01*
X11030952Y-134293604D02*
X11154761Y-134293604D01*
X11154761Y-134293604D02*
X11340476Y-134355509D01*
X11340476Y-134355509D02*
X11402380Y-134417414D01*
D10*
D11*
X10659523Y-185593604D02*
X10659523Y-184293604D01*
X10659523Y-184293604D02*
X10969047Y-184293604D01*
X10969047Y-184293604D02*
X11154761Y-184355509D01*
X11154761Y-184355509D02*
X11278571Y-184479319D01*
X11278571Y-184479319D02*
X11340476Y-184603128D01*
X11340476Y-184603128D02*
X11402380Y-184850747D01*
X11402380Y-184850747D02*
X11402380Y-185036461D01*
X11402380Y-185036461D02*
X11340476Y-185284080D01*
X11340476Y-185284080D02*
X11278571Y-185407890D01*
X11278571Y-185407890D02*
X11154761Y-185531700D01*
X11154761Y-185531700D02*
X10969047Y-185593604D01*
X10969047Y-185593604D02*
X10659523Y-185593604D01*
D10*
D11*
X287002200Y-60000000D02*
X285002200Y-60000000D01*
D10*
D11*
X287002200Y-110000000D02*
X285002200Y-110000000D01*
D10*
D11*
X287002200Y-160000000D02*
X285002200Y-160000000D01*
D10*
D11*
X285692676Y-35222176D02*
X286311723Y-35222176D01*
X285568866Y-35593604D02*
X286002199Y-34293604D01*
X286002199Y-34293604D02*
X286435533Y-35593604D01*
D10*
D11*
X286095057Y-84912652D02*
X286280771Y-84974557D01*
X286280771Y-84974557D02*
X286342676Y-85036461D01*
X286342676Y-85036461D02*
X286404580Y-85160271D01*
X286404580Y-85160271D02*
X286404580Y-85345985D01*
X286404580Y-85345985D02*
X286342676Y-85469795D01*
X286342676Y-85469795D02*
X286280771Y-85531700D01*
X286280771Y-85531700D02*
X286156961Y-85593604D01*
X286156961Y-85593604D02*
X285661723Y-85593604D01*
X285661723Y-85593604D02*
X285661723Y-84293604D01*
X285661723Y-84293604D02*
X286095057Y-84293604D01*
X286095057Y-84293604D02*
X286218866Y-84355509D01*
X286218866Y-84355509D02*
X286280771Y-84417414D01*
X286280771Y-84417414D02*
X286342676Y-84541223D01*
X286342676Y-84541223D02*
X286342676Y-84665033D01*
X286342676Y-84665033D02*
X286280771Y-84788842D01*
X286280771Y-84788842D02*
X286218866Y-84850747D01*
X286218866Y-84850747D02*
X286095057Y-84912652D01*
X286095057Y-84912652D02*
X285661723Y-84912652D01*
D10*
D11*
X286404580Y-135469795D02*
X286342676Y-135531700D01*
X286342676Y-135531700D02*
X286156961Y-135593604D01*
X286156961Y-135593604D02*
X286033152Y-135593604D01*
X286033152Y-135593604D02*
X285847438Y-135531700D01*
X285847438Y-135531700D02*
X285723628Y-135407890D01*
X285723628Y-135407890D02*
X285661723Y-135284080D01*
X285661723Y-135284080D02*
X285599819Y-135036461D01*
X285599819Y-135036461D02*
X285599819Y-134850747D01*
X285599819Y-134850747D02*
X285661723Y-134603128D01*
X285661723Y-134603128D02*
X285723628Y-134479319D01*
X285723628Y-134479319D02*
X285847438Y-134355509D01*
X285847438Y-134355509D02*
X286033152Y-134293604D01*
X286033152Y-134293604D02*
X286156961Y-134293604D01*
X286156961Y-134293604D02*
X286342676Y-134355509D01*
X286342676Y-134355509D02*
X286404580Y-134417414D01*
D10*
D11*
X285661723Y-185593604D02*
X285661723Y-184293604D01*
X285661723Y-184293604D02*
X285971247Y-184293604D01*
X285971247Y-184293604D02*
X286156961Y-184355509D01*
X286156961Y-184355509D02*
X286280771Y-184479319D01*
X286280771Y-184479319D02*
X286342676Y-184603128D01*
X286342676Y-184603128D02*
X286404580Y-184850747D01*
X286404580Y-184850747D02*
X286404580Y-185036461D01*
X286404580Y-185036461D02*
X286342676Y-185284080D01*
X286342676Y-185284080D02*
X286280771Y-185407890D01*
X286280771Y-185407890D02*
X286156961Y-185531700D01*
X286156961Y-185531700D02*
X285971247Y-185593604D01*
X285971247Y-185593604D02*
X285661723Y-185593604D01*
D10*
D11*
X200458026Y-193793328D02*
X200458026Y-192293328D01*
X200458026Y-192293328D02*
X200815169Y-192293328D01*
X200815169Y-192293328D02*
X201029455Y-192364757D01*
X201029455Y-192364757D02*
X201172312Y-192507614D01*
X201172312Y-192507614D02*
X201243741Y-192650471D01*
X201243741Y-192650471D02*
X201315169Y-192936185D01*
X201315169Y-192936185D02*
X201315169Y-193150471D01*
X201315169Y-193150471D02*
X201243741Y-193436185D01*
X201243741Y-193436185D02*
X201172312Y-193579042D01*
X201172312Y-193579042D02*
X201029455Y-193721900D01*
X201029455Y-193721900D02*
X200815169Y-193793328D01*
X200815169Y-193793328D02*
X200458026Y-193793328D01*
X202600884Y-193793328D02*
X202600884Y-193007614D01*
X202600884Y-193007614D02*
X202529455Y-192864757D01*
X202529455Y-192864757D02*
X202386598Y-192793328D01*
X202386598Y-192793328D02*
X202100884Y-192793328D01*
X202100884Y-192793328D02*
X201958026Y-192864757D01*
X202600884Y-193721900D02*
X202458026Y-193793328D01*
X202458026Y-193793328D02*
X202100884Y-193793328D01*
X202100884Y-193793328D02*
X201958026Y-193721900D01*
X201958026Y-193721900D02*
X201886598Y-193579042D01*
X201886598Y-193579042D02*
X201886598Y-193436185D01*
X201886598Y-193436185D02*
X201958026Y-193293328D01*
X201958026Y-193293328D02*
X202100884Y-193221900D01*
X202100884Y-193221900D02*
X202458026Y-193221900D01*
X202458026Y-193221900D02*
X202600884Y-193150471D01*
X203100884Y-192793328D02*
X203672312Y-192793328D01*
X203315169Y-192293328D02*
X203315169Y-193579042D01*
X203315169Y-193579042D02*
X203386598Y-193721900D01*
X203386598Y-193721900D02*
X203529455Y-193793328D01*
X203529455Y-193793328D02*
X203672312Y-193793328D01*
X204743741Y-193721900D02*
X204600884Y-193793328D01*
X204600884Y-193793328D02*
X204315170Y-193793328D01*
X204315170Y-193793328D02*
X204172312Y-193721900D01*
X204172312Y-193721900D02*
X204100884Y-193579042D01*
X204100884Y-193579042D02*
X204100884Y-193007614D01*
X204100884Y-193007614D02*
X204172312Y-192864757D01*
X204172312Y-192864757D02*
X204315170Y-192793328D01*
X204315170Y-192793328D02*
X204600884Y-192793328D01*
X204600884Y-192793328D02*
X204743741Y-192864757D01*
X204743741Y-192864757D02*
X204815170Y-193007614D01*
X204815170Y-193007614D02*
X204815170Y-193150471D01*
X204815170Y-193150471D02*
X204100884Y-193293328D01*
X205458026Y-193650471D02*
X205529455Y-193721900D01*
X205529455Y-193721900D02*
X205458026Y-193793328D01*
X205458026Y-193793328D02*
X205386598Y-193721900D01*
X205386598Y-193721900D02*
X205458026Y-193650471D01*
X205458026Y-193650471D02*
X205458026Y-193793328D01*
X205458026Y-192864757D02*
X205529455Y-192936185D01*
X205529455Y-192936185D02*
X205458026Y-193007614D01*
X205458026Y-193007614D02*
X205386598Y-192936185D01*
X205386598Y-192936185D02*
X205458026Y-192864757D01*
X205458026Y-192864757D02*
X205458026Y-193007614D01*
D10*
D11*
X177002200Y-194507200D02*
X285002200Y-194507200D01*
D10*
D11*
X178458026Y-196593328D02*
X178458026Y-195093328D01*
X179315169Y-196593328D02*
X178672312Y-195736185D01*
X179315169Y-195093328D02*
X178458026Y-195950471D01*
X179958026Y-196593328D02*
X179958026Y-195593328D01*
X179958026Y-195093328D02*
X179886598Y-195164757D01*
X179886598Y-195164757D02*
X179958026Y-195236185D01*
X179958026Y-195236185D02*
X180029455Y-195164757D01*
X180029455Y-195164757D02*
X179958026Y-195093328D01*
X179958026Y-195093328D02*
X179958026Y-195236185D01*
X181529455Y-196450471D02*
X181458027Y-196521900D01*
X181458027Y-196521900D02*
X181243741Y-196593328D01*
X181243741Y-196593328D02*
X181100884Y-196593328D01*
X181100884Y-196593328D02*
X180886598Y-196521900D01*
X180886598Y-196521900D02*
X180743741Y-196379042D01*
X180743741Y-196379042D02*
X180672312Y-196236185D01*
X180672312Y-196236185D02*
X180600884Y-195950471D01*
X180600884Y-195950471D02*
X180600884Y-195736185D01*
X180600884Y-195736185D02*
X180672312Y-195450471D01*
X180672312Y-195450471D02*
X180743741Y-195307614D01*
X180743741Y-195307614D02*
X180886598Y-195164757D01*
X180886598Y-195164757D02*
X181100884Y-195093328D01*
X181100884Y-195093328D02*
X181243741Y-195093328D01*
X181243741Y-195093328D02*
X181458027Y-195164757D01*
X181458027Y-195164757D02*
X181529455Y-195236185D01*
X182815170Y-196593328D02*
X182815170Y-195807614D01*
X182815170Y-195807614D02*
X182743741Y-195664757D01*
X182743741Y-195664757D02*
X182600884Y-195593328D01*
X182600884Y-195593328D02*
X182315170Y-195593328D01*
X182315170Y-195593328D02*
X182172312Y-195664757D01*
X182815170Y-196521900D02*
X182672312Y-196593328D01*
X182672312Y-196593328D02*
X182315170Y-196593328D01*
X182315170Y-196593328D02*
X182172312Y-196521900D01*
X182172312Y-196521900D02*
X182100884Y-196379042D01*
X182100884Y-196379042D02*
X182100884Y-196236185D01*
X182100884Y-196236185D02*
X182172312Y-196093328D01*
X182172312Y-196093328D02*
X182315170Y-196021900D01*
X182315170Y-196021900D02*
X182672312Y-196021900D01*
X182672312Y-196021900D02*
X182815170Y-195950471D01*
X184172313Y-196593328D02*
X184172313Y-195093328D01*
X184172313Y-196521900D02*
X184029455Y-196593328D01*
X184029455Y-196593328D02*
X183743741Y-196593328D01*
X183743741Y-196593328D02*
X183600884Y-196521900D01*
X183600884Y-196521900D02*
X183529455Y-196450471D01*
X183529455Y-196450471D02*
X183458027Y-196307614D01*
X183458027Y-196307614D02*
X183458027Y-195879042D01*
X183458027Y-195879042D02*
X183529455Y-195736185D01*
X183529455Y-195736185D02*
X183600884Y-195664757D01*
X183600884Y-195664757D02*
X183743741Y-195593328D01*
X183743741Y-195593328D02*
X184029455Y-195593328D01*
X184029455Y-195593328D02*
X184172313Y-195664757D01*
X186029455Y-195807614D02*
X186529455Y-195807614D01*
X186743741Y-196593328D02*
X186029455Y-196593328D01*
X186029455Y-196593328D02*
X186029455Y-195093328D01*
X186029455Y-195093328D02*
X186743741Y-195093328D01*
X187386598Y-196450471D02*
X187458027Y-196521900D01*
X187458027Y-196521900D02*
X187386598Y-196593328D01*
X187386598Y-196593328D02*
X187315170Y-196521900D01*
X187315170Y-196521900D02*
X187386598Y-196450471D01*
X187386598Y-196450471D02*
X187386598Y-196593328D01*
X188100884Y-196593328D02*
X188100884Y-195093328D01*
X188100884Y-195093328D02*
X188458027Y-195093328D01*
X188458027Y-195093328D02*
X188672313Y-195164757D01*
X188672313Y-195164757D02*
X188815170Y-195307614D01*
X188815170Y-195307614D02*
X188886599Y-195450471D01*
X188886599Y-195450471D02*
X188958027Y-195736185D01*
X188958027Y-195736185D02*
X188958027Y-195950471D01*
X188958027Y-195950471D02*
X188886599Y-196236185D01*
X188886599Y-196236185D02*
X188815170Y-196379042D01*
X188815170Y-196379042D02*
X188672313Y-196521900D01*
X188672313Y-196521900D02*
X188458027Y-196593328D01*
X188458027Y-196593328D02*
X188100884Y-196593328D01*
X189600884Y-196450471D02*
X189672313Y-196521900D01*
X189672313Y-196521900D02*
X189600884Y-196593328D01*
X189600884Y-196593328D02*
X189529456Y-196521900D01*
X189529456Y-196521900D02*
X189600884Y-196450471D01*
X189600884Y-196450471D02*
X189600884Y-196593328D01*
X190243742Y-196164757D02*
X190958028Y-196164757D01*
X190100885Y-196593328D02*
X190600885Y-195093328D01*
X190600885Y-195093328D02*
X191100885Y-196593328D01*
X191600884Y-196450471D02*
X191672313Y-196521900D01*
X191672313Y-196521900D02*
X191600884Y-196593328D01*
X191600884Y-196593328D02*
X191529456Y-196521900D01*
X191529456Y-196521900D02*
X191600884Y-196450471D01*
X191600884Y-196450471D02*
X191600884Y-196593328D01*
X194600884Y-196593328D02*
X194600884Y-195093328D01*
X194743742Y-196021900D02*
X195172313Y-196593328D01*
X195172313Y-195593328D02*
X194600884Y-196164757D01*
X195815170Y-196593328D02*
X195815170Y-195593328D01*
X195815170Y-195093328D02*
X195743742Y-195164757D01*
X195743742Y-195164757D02*
X195815170Y-195236185D01*
X195815170Y-195236185D02*
X195886599Y-195164757D01*
X195886599Y-195164757D02*
X195815170Y-195093328D01*
X195815170Y-195093328D02*
X195815170Y-195236185D01*
X197172314Y-196521900D02*
X197029456Y-196593328D01*
X197029456Y-196593328D02*
X196743742Y-196593328D01*
X196743742Y-196593328D02*
X196600885Y-196521900D01*
X196600885Y-196521900D02*
X196529456Y-196450471D01*
X196529456Y-196450471D02*
X196458028Y-196307614D01*
X196458028Y-196307614D02*
X196458028Y-195879042D01*
X196458028Y-195879042D02*
X196529456Y-195736185D01*
X196529456Y-195736185D02*
X196600885Y-195664757D01*
X196600885Y-195664757D02*
X196743742Y-195593328D01*
X196743742Y-195593328D02*
X197029456Y-195593328D01*
X197029456Y-195593328D02*
X197172314Y-195664757D01*
X198458028Y-196593328D02*
X198458028Y-195807614D01*
X198458028Y-195807614D02*
X198386599Y-195664757D01*
X198386599Y-195664757D02*
X198243742Y-195593328D01*
X198243742Y-195593328D02*
X197958028Y-195593328D01*
X197958028Y-195593328D02*
X197815170Y-195664757D01*
X198458028Y-196521900D02*
X198315170Y-196593328D01*
X198315170Y-196593328D02*
X197958028Y-196593328D01*
X197958028Y-196593328D02*
X197815170Y-196521900D01*
X197815170Y-196521900D02*
X197743742Y-196379042D01*
X197743742Y-196379042D02*
X197743742Y-196236185D01*
X197743742Y-196236185D02*
X197815170Y-196093328D01*
X197815170Y-196093328D02*
X197958028Y-196021900D01*
X197958028Y-196021900D02*
X198315170Y-196021900D01*
X198315170Y-196021900D02*
X198458028Y-195950471D01*
X199815171Y-196593328D02*
X199815171Y-195093328D01*
X199815171Y-196521900D02*
X199672313Y-196593328D01*
X199672313Y-196593328D02*
X199386599Y-196593328D01*
X199386599Y-196593328D02*
X199243742Y-196521900D01*
X199243742Y-196521900D02*
X199172313Y-196450471D01*
X199172313Y-196450471D02*
X199100885Y-196307614D01*
X199100885Y-196307614D02*
X199100885Y-195879042D01*
X199100885Y-195879042D02*
X199172313Y-195736185D01*
X199172313Y-195736185D02*
X199243742Y-195664757D01*
X199243742Y-195664757D02*
X199386599Y-195593328D01*
X199386599Y-195593328D02*
X199672313Y-195593328D01*
X199672313Y-195593328D02*
X199815171Y-195664757D01*
X201529456Y-195093328D02*
X202529456Y-195093328D01*
X202529456Y-195093328D02*
X201886599Y-196593328D01*
X203100884Y-196450471D02*
X203172313Y-196521900D01*
X203172313Y-196521900D02*
X203100884Y-196593328D01*
X203100884Y-196593328D02*
X203029456Y-196521900D01*
X203029456Y-196521900D02*
X203100884Y-196450471D01*
X203100884Y-196450471D02*
X203100884Y-196593328D01*
X204100885Y-195093328D02*
X204243742Y-195093328D01*
X204243742Y-195093328D02*
X204386599Y-195164757D01*
X204386599Y-195164757D02*
X204458028Y-195236185D01*
X204458028Y-195236185D02*
X204529456Y-195379042D01*
X204529456Y-195379042D02*
X204600885Y-195664757D01*
X204600885Y-195664757D02*
X204600885Y-196021900D01*
X204600885Y-196021900D02*
X204529456Y-196307614D01*
X204529456Y-196307614D02*
X204458028Y-196450471D01*
X204458028Y-196450471D02*
X204386599Y-196521900D01*
X204386599Y-196521900D02*
X204243742Y-196593328D01*
X204243742Y-196593328D02*
X204100885Y-196593328D01*
X204100885Y-196593328D02*
X203958028Y-196521900D01*
X203958028Y-196521900D02*
X203886599Y-196450471D01*
X203886599Y-196450471D02*
X203815170Y-196307614D01*
X203815170Y-196307614D02*
X203743742Y-196021900D01*
X203743742Y-196021900D02*
X203743742Y-195664757D01*
X203743742Y-195664757D02*
X203815170Y-195379042D01*
X203815170Y-195379042D02*
X203886599Y-195236185D01*
X203886599Y-195236185D02*
X203958028Y-195164757D01*
X203958028Y-195164757D02*
X204100885Y-195093328D01*
X205243741Y-196450471D02*
X205315170Y-196521900D01*
X205315170Y-196521900D02*
X205243741Y-196593328D01*
X205243741Y-196593328D02*
X205172313Y-196521900D01*
X205172313Y-196521900D02*
X205243741Y-196450471D01*
X205243741Y-196450471D02*
X205243741Y-196593328D01*
X206672313Y-195093328D02*
X205958027Y-195093328D01*
X205958027Y-195093328D02*
X205886599Y-195807614D01*
X205886599Y-195807614D02*
X205958027Y-195736185D01*
X205958027Y-195736185D02*
X206100885Y-195664757D01*
X206100885Y-195664757D02*
X206458027Y-195664757D01*
X206458027Y-195664757D02*
X206600885Y-195736185D01*
X206600885Y-195736185D02*
X206672313Y-195807614D01*
X206672313Y-195807614D02*
X206743742Y-195950471D01*
X206743742Y-195950471D02*
X206743742Y-196307614D01*
X206743742Y-196307614D02*
X206672313Y-196450471D01*
X206672313Y-196450471D02*
X206600885Y-196521900D01*
X206600885Y-196521900D02*
X206458027Y-196593328D01*
X206458027Y-196593328D02*
X206100885Y-196593328D01*
X206100885Y-196593328D02*
X205958027Y-196521900D01*
X205958027Y-196521900D02*
X205886599Y-196450471D01*
D10*
D11*
X177002200Y-191507200D02*
X285002200Y-191507200D01*
D10*
D12*
X264413853Y-193785528D02*
X263913853Y-193071242D01*
X263556710Y-193785528D02*
X263556710Y-192285528D01*
X263556710Y-192285528D02*
X264128139Y-192285528D01*
X264128139Y-192285528D02*
X264270996Y-192356957D01*
X264270996Y-192356957D02*
X264342425Y-192428385D01*
X264342425Y-192428385D02*
X264413853Y-192571242D01*
X264413853Y-192571242D02*
X264413853Y-192785528D01*
X264413853Y-192785528D02*
X264342425Y-192928385D01*
X264342425Y-192928385D02*
X264270996Y-192999814D01*
X264270996Y-192999814D02*
X264128139Y-193071242D01*
X264128139Y-193071242D02*
X263556710Y-193071242D01*
X265628139Y-193714100D02*
X265485282Y-193785528D01*
X265485282Y-193785528D02*
X265199568Y-193785528D01*
X265199568Y-193785528D02*
X265056710Y-193714100D01*
X265056710Y-193714100D02*
X264985282Y-193571242D01*
X264985282Y-193571242D02*
X264985282Y-192999814D01*
X264985282Y-192999814D02*
X265056710Y-192856957D01*
X265056710Y-192856957D02*
X265199568Y-192785528D01*
X265199568Y-192785528D02*
X265485282Y-192785528D01*
X265485282Y-192785528D02*
X265628139Y-192856957D01*
X265628139Y-192856957D02*
X265699568Y-192999814D01*
X265699568Y-192999814D02*
X265699568Y-193142671D01*
X265699568Y-193142671D02*
X264985282Y-193285528D01*
X266199567Y-192785528D02*
X266556710Y-193785528D01*
X266556710Y-193785528D02*
X266913853Y-192785528D01*
X267485281Y-193642671D02*
X267556710Y-193714100D01*
X267556710Y-193714100D02*
X267485281Y-193785528D01*
X267485281Y-193785528D02*
X267413853Y-193714100D01*
X267413853Y-193714100D02*
X267485281Y-193642671D01*
X267485281Y-193642671D02*
X267485281Y-193785528D01*
X267485281Y-192856957D02*
X267556710Y-192928385D01*
X267556710Y-192928385D02*
X267485281Y-192999814D01*
X267485281Y-192999814D02*
X267413853Y-192928385D01*
X267413853Y-192928385D02*
X267485281Y-192856957D01*
X267485281Y-192856957D02*
X267485281Y-192999814D01*
D10*
D11*
X178386598Y-193721900D02*
X178600884Y-193793328D01*
X178600884Y-193793328D02*
X178958026Y-193793328D01*
X178958026Y-193793328D02*
X179100884Y-193721900D01*
X179100884Y-193721900D02*
X179172312Y-193650471D01*
X179172312Y-193650471D02*
X179243741Y-193507614D01*
X179243741Y-193507614D02*
X179243741Y-193364757D01*
X179243741Y-193364757D02*
X179172312Y-193221900D01*
X179172312Y-193221900D02*
X179100884Y-193150471D01*
X179100884Y-193150471D02*
X178958026Y-193079042D01*
X178958026Y-193079042D02*
X178672312Y-193007614D01*
X178672312Y-193007614D02*
X178529455Y-192936185D01*
X178529455Y-192936185D02*
X178458026Y-192864757D01*
X178458026Y-192864757D02*
X178386598Y-192721900D01*
X178386598Y-192721900D02*
X178386598Y-192579042D01*
X178386598Y-192579042D02*
X178458026Y-192436185D01*
X178458026Y-192436185D02*
X178529455Y-192364757D01*
X178529455Y-192364757D02*
X178672312Y-192293328D01*
X178672312Y-192293328D02*
X179029455Y-192293328D01*
X179029455Y-192293328D02*
X179243741Y-192364757D01*
X179886597Y-193793328D02*
X179886597Y-192793328D01*
X179886597Y-192293328D02*
X179815169Y-192364757D01*
X179815169Y-192364757D02*
X179886597Y-192436185D01*
X179886597Y-192436185D02*
X179958026Y-192364757D01*
X179958026Y-192364757D02*
X179886597Y-192293328D01*
X179886597Y-192293328D02*
X179886597Y-192436185D01*
X180458026Y-192793328D02*
X181243741Y-192793328D01*
X181243741Y-192793328D02*
X180458026Y-193793328D01*
X180458026Y-193793328D02*
X181243741Y-193793328D01*
X182386598Y-193721900D02*
X182243741Y-193793328D01*
X182243741Y-193793328D02*
X181958027Y-193793328D01*
X181958027Y-193793328D02*
X181815169Y-193721900D01*
X181815169Y-193721900D02*
X181743741Y-193579042D01*
X181743741Y-193579042D02*
X181743741Y-193007614D01*
X181743741Y-193007614D02*
X181815169Y-192864757D01*
X181815169Y-192864757D02*
X181958027Y-192793328D01*
X181958027Y-192793328D02*
X182243741Y-192793328D01*
X182243741Y-192793328D02*
X182386598Y-192864757D01*
X182386598Y-192864757D02*
X182458027Y-193007614D01*
X182458027Y-193007614D02*
X182458027Y-193150471D01*
X182458027Y-193150471D02*
X181743741Y-193293328D01*
X183100883Y-193650471D02*
X183172312Y-193721900D01*
X183172312Y-193721900D02*
X183100883Y-193793328D01*
X183100883Y-193793328D02*
X183029455Y-193721900D01*
X183029455Y-193721900D02*
X183100883Y-193650471D01*
X183100883Y-193650471D02*
X183100883Y-193793328D01*
X183100883Y-192864757D02*
X183172312Y-192936185D01*
X183172312Y-192936185D02*
X183100883Y-193007614D01*
X183100883Y-193007614D02*
X183029455Y-192936185D01*
X183029455Y-192936185D02*
X183100883Y-192864757D01*
X183100883Y-192864757D02*
X183100883Y-193007614D01*
X184886598Y-193364757D02*
X185600884Y-193364757D01*
X184743741Y-193793328D02*
X185243741Y-192293328D01*
X185243741Y-192293328D02*
X185743741Y-193793328D01*
X186886598Y-192793328D02*
X186886598Y-193793328D01*
X186529455Y-192221900D02*
X186172312Y-193293328D01*
X186172312Y-193293328D02*
X187100883Y-193293328D01*
D10*
D11*
X263458026Y-196593328D02*
X263458026Y-195093328D01*
X264815170Y-196593328D02*
X264815170Y-195093328D01*
X264815170Y-196521900D02*
X264672312Y-196593328D01*
X264672312Y-196593328D02*
X264386598Y-196593328D01*
X264386598Y-196593328D02*
X264243741Y-196521900D01*
X264243741Y-196521900D02*
X264172312Y-196450471D01*
X264172312Y-196450471D02*
X264100884Y-196307614D01*
X264100884Y-196307614D02*
X264100884Y-195879042D01*
X264100884Y-195879042D02*
X264172312Y-195736185D01*
X264172312Y-195736185D02*
X264243741Y-195664757D01*
X264243741Y-195664757D02*
X264386598Y-195593328D01*
X264386598Y-195593328D02*
X264672312Y-195593328D01*
X264672312Y-195593328D02*
X264815170Y-195664757D01*
X265529455Y-196450471D02*
X265600884Y-196521900D01*
X265600884Y-196521900D02*
X265529455Y-196593328D01*
X265529455Y-196593328D02*
X265458027Y-196521900D01*
X265458027Y-196521900D02*
X265529455Y-196450471D01*
X265529455Y-196450471D02*
X265529455Y-196593328D01*
X265529455Y-195664757D02*
X265600884Y-195736185D01*
X265600884Y-195736185D02*
X265529455Y-195807614D01*
X265529455Y-195807614D02*
X265458027Y-195736185D01*
X265458027Y-195736185D02*
X265529455Y-195664757D01*
X265529455Y-195664757D02*
X265529455Y-195807614D01*
X268172313Y-196593328D02*
X267315170Y-196593328D01*
X267743741Y-196593328D02*
X267743741Y-195093328D01*
X267743741Y-195093328D02*
X267600884Y-195307614D01*
X267600884Y-195307614D02*
X267458027Y-195450471D01*
X267458027Y-195450471D02*
X267315170Y-195521900D01*
X269886598Y-195021900D02*
X268600884Y-196950471D01*
X271172313Y-196593328D02*
X270315170Y-196593328D01*
X270743741Y-196593328D02*
X270743741Y-195093328D01*
X270743741Y-195093328D02*
X270600884Y-195307614D01*
X270600884Y-195307614D02*
X270458027Y-195450471D01*
X270458027Y-195450471D02*
X270315170Y-195521900D01*
D10*
D11*
X177002200Y-187507200D02*
X285002200Y-187507200D01*
D10*
D13*
X178693928Y-188211638D02*
X179836785Y-188211638D01*
X179015357Y-190211638D02*
X179265357Y-188211638D01*
X180253452Y-190211638D02*
X180420119Y-188878304D01*
X180503452Y-188211638D02*
X180396309Y-188306876D01*
X180396309Y-188306876D02*
X180479643Y-188402114D01*
X180479643Y-188402114D02*
X180586786Y-188306876D01*
X180586786Y-188306876D02*
X180503452Y-188211638D01*
X180503452Y-188211638D02*
X180479643Y-188402114D01*
X181086786Y-188878304D02*
X181848690Y-188878304D01*
X181455833Y-188211638D02*
X181241548Y-189925923D01*
X181241548Y-189925923D02*
X181312976Y-190116400D01*
X181312976Y-190116400D02*
X181491548Y-190211638D01*
X181491548Y-190211638D02*
X181682024Y-190211638D01*
X182634405Y-190211638D02*
X182455833Y-190116400D01*
X182455833Y-190116400D02*
X182384405Y-189925923D01*
X182384405Y-189925923D02*
X182598690Y-188211638D01*
X184170119Y-190116400D02*
X183967738Y-190211638D01*
X183967738Y-190211638D02*
X183586785Y-190211638D01*
X183586785Y-190211638D02*
X183408214Y-190116400D01*
X183408214Y-190116400D02*
X183336785Y-189925923D01*
X183336785Y-189925923D02*
X183432024Y-189164019D01*
X183432024Y-189164019D02*
X183551071Y-188973542D01*
X183551071Y-188973542D02*
X183753452Y-188878304D01*
X183753452Y-188878304D02*
X184134404Y-188878304D01*
X184134404Y-188878304D02*
X184312976Y-188973542D01*
X184312976Y-188973542D02*
X184384404Y-189164019D01*
X184384404Y-189164019D02*
X184360595Y-189354495D01*
X184360595Y-189354495D02*
X183384404Y-189544971D01*
X185134405Y-190021161D02*
X185217738Y-190116400D01*
X185217738Y-190116400D02*
X185110595Y-190211638D01*
X185110595Y-190211638D02*
X185027262Y-190116400D01*
X185027262Y-190116400D02*
X185134405Y-190021161D01*
X185134405Y-190021161D02*
X185110595Y-190211638D01*
X185265357Y-188973542D02*
X185348690Y-189068780D01*
X185348690Y-189068780D02*
X185241548Y-189164019D01*
X185241548Y-189164019D02*
X185158214Y-189068780D01*
X185158214Y-189068780D02*
X185265357Y-188973542D01*
X185265357Y-188973542D02*
X185241548Y-189164019D01*
D10*
D11*
X178958026Y-185607614D02*
X178458026Y-185607614D01*
X178458026Y-186393328D02*
X178458026Y-184893328D01*
X178458026Y-184893328D02*
X179172312Y-184893328D01*
X179743740Y-186393328D02*
X179743740Y-185393328D01*
X179743740Y-184893328D02*
X179672312Y-184964757D01*
X179672312Y-184964757D02*
X179743740Y-185036185D01*
X179743740Y-185036185D02*
X179815169Y-184964757D01*
X179815169Y-184964757D02*
X179743740Y-184893328D01*
X179743740Y-184893328D02*
X179743740Y-185036185D01*
X180672312Y-186393328D02*
X180529455Y-186321900D01*
X180529455Y-186321900D02*
X180458026Y-186179042D01*
X180458026Y-186179042D02*
X180458026Y-184893328D01*
X181815169Y-186321900D02*
X181672312Y-186393328D01*
X181672312Y-186393328D02*
X181386598Y-186393328D01*
X181386598Y-186393328D02*
X181243740Y-186321900D01*
X181243740Y-186321900D02*
X181172312Y-186179042D01*
X181172312Y-186179042D02*
X181172312Y-185607614D01*
X181172312Y-185607614D02*
X181243740Y-185464757D01*
X181243740Y-185464757D02*
X181386598Y-185393328D01*
X181386598Y-185393328D02*
X181672312Y-185393328D01*
X181672312Y-185393328D02*
X181815169Y-185464757D01*
X181815169Y-185464757D02*
X181886598Y-185607614D01*
X181886598Y-185607614D02*
X181886598Y-185750471D01*
X181886598Y-185750471D02*
X181172312Y-185893328D01*
X182529454Y-186250471D02*
X182600883Y-186321900D01*
X182600883Y-186321900D02*
X182529454Y-186393328D01*
X182529454Y-186393328D02*
X182458026Y-186321900D01*
X182458026Y-186321900D02*
X182529454Y-186250471D01*
X182529454Y-186250471D02*
X182529454Y-186393328D01*
X182529454Y-185464757D02*
X182600883Y-185536185D01*
X182600883Y-185536185D02*
X182529454Y-185607614D01*
X182529454Y-185607614D02*
X182458026Y-185536185D01*
X182458026Y-185536185D02*
X182529454Y-185464757D01*
X182529454Y-185464757D02*
X182529454Y-185607614D01*
X185100883Y-186393328D02*
X184386597Y-186393328D01*
X184386597Y-186393328D02*
X184386597Y-184893328D01*
X186243741Y-186393328D02*
X186243741Y-185607614D01*
X186243741Y-185607614D02*
X186172312Y-185464757D01*
X186172312Y-185464757D02*
X186029455Y-185393328D01*
X186029455Y-185393328D02*
X185743741Y-185393328D01*
X185743741Y-185393328D02*
X185600883Y-185464757D01*
X186243741Y-186321900D02*
X186100883Y-186393328D01*
X186100883Y-186393328D02*
X185743741Y-186393328D01*
X185743741Y-186393328D02*
X185600883Y-186321900D01*
X185600883Y-186321900D02*
X185529455Y-186179042D01*
X185529455Y-186179042D02*
X185529455Y-186036185D01*
X185529455Y-186036185D02*
X185600883Y-185893328D01*
X185600883Y-185893328D02*
X185743741Y-185821900D01*
X185743741Y-185821900D02*
X186100883Y-185821900D01*
X186100883Y-185821900D02*
X186243741Y-185750471D01*
X186958026Y-186393328D02*
X186958026Y-184893328D01*
X186958026Y-185464757D02*
X187100884Y-185393328D01*
X187100884Y-185393328D02*
X187386598Y-185393328D01*
X187386598Y-185393328D02*
X187529455Y-185464757D01*
X187529455Y-185464757D02*
X187600884Y-185536185D01*
X187600884Y-185536185D02*
X187672312Y-185679042D01*
X187672312Y-185679042D02*
X187672312Y-186107614D01*
X187672312Y-186107614D02*
X187600884Y-186250471D01*
X187600884Y-186250471D02*
X187529455Y-186321900D01*
X187529455Y-186321900D02*
X187386598Y-186393328D01*
X187386598Y-186393328D02*
X187100884Y-186393328D01*
X187100884Y-186393328D02*
X186958026Y-186321900D01*
X187958027Y-186536185D02*
X189100884Y-186536185D01*
X189743741Y-184893328D02*
X189886598Y-184893328D01*
X189886598Y-184893328D02*
X190029455Y-184964757D01*
X190029455Y-184964757D02*
X190100884Y-185036185D01*
X190100884Y-185036185D02*
X190172312Y-185179042D01*
X190172312Y-185179042D02*
X190243741Y-185464757D01*
X190243741Y-185464757D02*
X190243741Y-185821900D01*
X190243741Y-185821900D02*
X190172312Y-186107614D01*
X190172312Y-186107614D02*
X190100884Y-186250471D01*
X190100884Y-186250471D02*
X190029455Y-186321900D01*
X190029455Y-186321900D02*
X189886598Y-186393328D01*
X189886598Y-186393328D02*
X189743741Y-186393328D01*
X189743741Y-186393328D02*
X189600884Y-186321900D01*
X189600884Y-186321900D02*
X189529455Y-186250471D01*
X189529455Y-186250471D02*
X189458026Y-186107614D01*
X189458026Y-186107614D02*
X189386598Y-185821900D01*
X189386598Y-185821900D02*
X189386598Y-185464757D01*
X189386598Y-185464757D02*
X189458026Y-185179042D01*
X189458026Y-185179042D02*
X189529455Y-185036185D01*
X189529455Y-185036185D02*
X189600884Y-184964757D01*
X189600884Y-184964757D02*
X189743741Y-184893328D01*
X191100883Y-185536185D02*
X190958026Y-185464757D01*
X190958026Y-185464757D02*
X190886597Y-185393328D01*
X190886597Y-185393328D02*
X190815169Y-185250471D01*
X190815169Y-185250471D02*
X190815169Y-185179042D01*
X190815169Y-185179042D02*
X190886597Y-185036185D01*
X190886597Y-185036185D02*
X190958026Y-184964757D01*
X190958026Y-184964757D02*
X191100883Y-184893328D01*
X191100883Y-184893328D02*
X191386597Y-184893328D01*
X191386597Y-184893328D02*
X191529455Y-184964757D01*
X191529455Y-184964757D02*
X191600883Y-185036185D01*
X191600883Y-185036185D02*
X191672312Y-185179042D01*
X191672312Y-185179042D02*
X191672312Y-185250471D01*
X191672312Y-185250471D02*
X191600883Y-185393328D01*
X191600883Y-185393328D02*
X191529455Y-185464757D01*
X191529455Y-185464757D02*
X191386597Y-185536185D01*
X191386597Y-185536185D02*
X191100883Y-185536185D01*
X191100883Y-185536185D02*
X190958026Y-185607614D01*
X190958026Y-185607614D02*
X190886597Y-185679042D01*
X190886597Y-185679042D02*
X190815169Y-185821900D01*
X190815169Y-185821900D02*
X190815169Y-186107614D01*
X190815169Y-186107614D02*
X190886597Y-186250471D01*
X190886597Y-186250471D02*
X190958026Y-186321900D01*
X190958026Y-186321900D02*
X191100883Y-186393328D01*
X191100883Y-186393328D02*
X191386597Y-186393328D01*
X191386597Y-186393328D02*
X191529455Y-186321900D01*
X191529455Y-186321900D02*
X191600883Y-186250471D01*
X191600883Y-186250471D02*
X191672312Y-186107614D01*
X191672312Y-186107614D02*
X191672312Y-185821900D01*
X191672312Y-185821900D02*
X191600883Y-185679042D01*
X191600883Y-185679042D02*
X191529455Y-185607614D01*
X191529455Y-185607614D02*
X191386597Y-185536185D01*
X192315168Y-186250471D02*
X192386597Y-186321900D01*
X192386597Y-186321900D02*
X192315168Y-186393328D01*
X192315168Y-186393328D02*
X192243740Y-186321900D01*
X192243740Y-186321900D02*
X192315168Y-186250471D01*
X192315168Y-186250471D02*
X192315168Y-186393328D01*
X193029454Y-186393328D02*
X193029454Y-184893328D01*
X193172312Y-185821900D02*
X193600883Y-186393328D01*
X193600883Y-185393328D02*
X193029454Y-185964757D01*
X194243740Y-186393328D02*
X194243740Y-185393328D01*
X194243740Y-184893328D02*
X194172312Y-184964757D01*
X194172312Y-184964757D02*
X194243740Y-185036185D01*
X194243740Y-185036185D02*
X194315169Y-184964757D01*
X194315169Y-184964757D02*
X194243740Y-184893328D01*
X194243740Y-184893328D02*
X194243740Y-185036185D01*
X195600884Y-186321900D02*
X195458026Y-186393328D01*
X195458026Y-186393328D02*
X195172312Y-186393328D01*
X195172312Y-186393328D02*
X195029455Y-186321900D01*
X195029455Y-186321900D02*
X194958026Y-186250471D01*
X194958026Y-186250471D02*
X194886598Y-186107614D01*
X194886598Y-186107614D02*
X194886598Y-185679042D01*
X194886598Y-185679042D02*
X194958026Y-185536185D01*
X194958026Y-185536185D02*
X195029455Y-185464757D01*
X195029455Y-185464757D02*
X195172312Y-185393328D01*
X195172312Y-185393328D02*
X195458026Y-185393328D01*
X195458026Y-185393328D02*
X195600884Y-185464757D01*
X196886598Y-186393328D02*
X196886598Y-185607614D01*
X196886598Y-185607614D02*
X196815169Y-185464757D01*
X196815169Y-185464757D02*
X196672312Y-185393328D01*
X196672312Y-185393328D02*
X196386598Y-185393328D01*
X196386598Y-185393328D02*
X196243740Y-185464757D01*
X196886598Y-186321900D02*
X196743740Y-186393328D01*
X196743740Y-186393328D02*
X196386598Y-186393328D01*
X196386598Y-186393328D02*
X196243740Y-186321900D01*
X196243740Y-186321900D02*
X196172312Y-186179042D01*
X196172312Y-186179042D02*
X196172312Y-186036185D01*
X196172312Y-186036185D02*
X196243740Y-185893328D01*
X196243740Y-185893328D02*
X196386598Y-185821900D01*
X196386598Y-185821900D02*
X196743740Y-185821900D01*
X196743740Y-185821900D02*
X196886598Y-185750471D01*
X198243741Y-186393328D02*
X198243741Y-184893328D01*
X198243741Y-186321900D02*
X198100883Y-186393328D01*
X198100883Y-186393328D02*
X197815169Y-186393328D01*
X197815169Y-186393328D02*
X197672312Y-186321900D01*
X197672312Y-186321900D02*
X197600883Y-186250471D01*
X197600883Y-186250471D02*
X197529455Y-186107614D01*
X197529455Y-186107614D02*
X197529455Y-185679042D01*
X197529455Y-185679042D02*
X197600883Y-185536185D01*
X197600883Y-185536185D02*
X197672312Y-185464757D01*
X197672312Y-185464757D02*
X197815169Y-185393328D01*
X197815169Y-185393328D02*
X198100883Y-185393328D01*
X198100883Y-185393328D02*
X198243741Y-185464757D01*
X198600884Y-186536185D02*
X199743741Y-186536185D01*
X200100883Y-185393328D02*
X200100883Y-186893328D01*
X200100883Y-185464757D02*
X200243741Y-185393328D01*
X200243741Y-185393328D02*
X200529455Y-185393328D01*
X200529455Y-185393328D02*
X200672312Y-185464757D01*
X200672312Y-185464757D02*
X200743741Y-185536185D01*
X200743741Y-185536185D02*
X200815169Y-185679042D01*
X200815169Y-185679042D02*
X200815169Y-186107614D01*
X200815169Y-186107614D02*
X200743741Y-186250471D01*
X200743741Y-186250471D02*
X200672312Y-186321900D01*
X200672312Y-186321900D02*
X200529455Y-186393328D01*
X200529455Y-186393328D02*
X200243741Y-186393328D01*
X200243741Y-186393328D02*
X200100883Y-186321900D01*
X202100884Y-186321900D02*
X201958026Y-186393328D01*
X201958026Y-186393328D02*
X201672312Y-186393328D01*
X201672312Y-186393328D02*
X201529455Y-186321900D01*
X201529455Y-186321900D02*
X201458026Y-186250471D01*
X201458026Y-186250471D02*
X201386598Y-186107614D01*
X201386598Y-186107614D02*
X201386598Y-185679042D01*
X201386598Y-185679042D02*
X201458026Y-185536185D01*
X201458026Y-185536185D02*
X201529455Y-185464757D01*
X201529455Y-185464757D02*
X201672312Y-185393328D01*
X201672312Y-185393328D02*
X201958026Y-185393328D01*
X201958026Y-185393328D02*
X202100884Y-185464757D01*
X202743740Y-186393328D02*
X202743740Y-184893328D01*
X202743740Y-185464757D02*
X202886598Y-185393328D01*
X202886598Y-185393328D02*
X203172312Y-185393328D01*
X203172312Y-185393328D02*
X203315169Y-185464757D01*
X203315169Y-185464757D02*
X203386598Y-185536185D01*
X203386598Y-185536185D02*
X203458026Y-185679042D01*
X203458026Y-185679042D02*
X203458026Y-186107614D01*
X203458026Y-186107614D02*
X203386598Y-186250471D01*
X203386598Y-186250471D02*
X203315169Y-186321900D01*
X203315169Y-186321900D02*
X203172312Y-186393328D01*
X203172312Y-186393328D02*
X202886598Y-186393328D01*
X202886598Y-186393328D02*
X202743740Y-186321900D01*
D10*
D11*
X177002200Y-181507200D02*
X285002200Y-181507200D01*
D10*
D11*
X178386598Y-183621900D02*
X178600884Y-183693328D01*
X178600884Y-183693328D02*
X178958026Y-183693328D01*
X178958026Y-183693328D02*
X179100884Y-183621900D01*
X179100884Y-183621900D02*
X179172312Y-183550471D01*
X179172312Y-183550471D02*
X179243741Y-183407614D01*
X179243741Y-183407614D02*
X179243741Y-183264757D01*
X179243741Y-183264757D02*
X179172312Y-183121900D01*
X179172312Y-183121900D02*
X179100884Y-183050471D01*
X179100884Y-183050471D02*
X178958026Y-182979042D01*
X178958026Y-182979042D02*
X178672312Y-182907614D01*
X178672312Y-182907614D02*
X178529455Y-182836185D01*
X178529455Y-182836185D02*
X178458026Y-182764757D01*
X178458026Y-182764757D02*
X178386598Y-182621900D01*
X178386598Y-182621900D02*
X178386598Y-182479042D01*
X178386598Y-182479042D02*
X178458026Y-182336185D01*
X178458026Y-182336185D02*
X178529455Y-182264757D01*
X178529455Y-182264757D02*
X178672312Y-182193328D01*
X178672312Y-182193328D02*
X179029455Y-182193328D01*
X179029455Y-182193328D02*
X179243741Y-182264757D01*
X179886597Y-183693328D02*
X179886597Y-182193328D01*
X180529455Y-183693328D02*
X180529455Y-182907614D01*
X180529455Y-182907614D02*
X180458026Y-182764757D01*
X180458026Y-182764757D02*
X180315169Y-182693328D01*
X180315169Y-182693328D02*
X180100883Y-182693328D01*
X180100883Y-182693328D02*
X179958026Y-182764757D01*
X179958026Y-182764757D02*
X179886597Y-182836185D01*
X181815169Y-183621900D02*
X181672312Y-183693328D01*
X181672312Y-183693328D02*
X181386598Y-183693328D01*
X181386598Y-183693328D02*
X181243740Y-183621900D01*
X181243740Y-183621900D02*
X181172312Y-183479042D01*
X181172312Y-183479042D02*
X181172312Y-182907614D01*
X181172312Y-182907614D02*
X181243740Y-182764757D01*
X181243740Y-182764757D02*
X181386598Y-182693328D01*
X181386598Y-182693328D02*
X181672312Y-182693328D01*
X181672312Y-182693328D02*
X181815169Y-182764757D01*
X181815169Y-182764757D02*
X181886598Y-182907614D01*
X181886598Y-182907614D02*
X181886598Y-183050471D01*
X181886598Y-183050471D02*
X181172312Y-183193328D01*
X183100883Y-183621900D02*
X182958026Y-183693328D01*
X182958026Y-183693328D02*
X182672312Y-183693328D01*
X182672312Y-183693328D02*
X182529454Y-183621900D01*
X182529454Y-183621900D02*
X182458026Y-183479042D01*
X182458026Y-183479042D02*
X182458026Y-182907614D01*
X182458026Y-182907614D02*
X182529454Y-182764757D01*
X182529454Y-182764757D02*
X182672312Y-182693328D01*
X182672312Y-182693328D02*
X182958026Y-182693328D01*
X182958026Y-182693328D02*
X183100883Y-182764757D01*
X183100883Y-182764757D02*
X183172312Y-182907614D01*
X183172312Y-182907614D02*
X183172312Y-183050471D01*
X183172312Y-183050471D02*
X182458026Y-183193328D01*
X183600883Y-182693328D02*
X184172311Y-182693328D01*
X183815168Y-182193328D02*
X183815168Y-183479042D01*
X183815168Y-183479042D02*
X183886597Y-183621900D01*
X183886597Y-183621900D02*
X184029454Y-183693328D01*
X184029454Y-183693328D02*
X184172311Y-183693328D01*
X184672311Y-183550471D02*
X184743740Y-183621900D01*
X184743740Y-183621900D02*
X184672311Y-183693328D01*
X184672311Y-183693328D02*
X184600883Y-183621900D01*
X184600883Y-183621900D02*
X184672311Y-183550471D01*
X184672311Y-183550471D02*
X184672311Y-183693328D01*
X184672311Y-182764757D02*
X184743740Y-182836185D01*
X184743740Y-182836185D02*
X184672311Y-182907614D01*
X184672311Y-182907614D02*
X184600883Y-182836185D01*
X184600883Y-182836185D02*
X184672311Y-182764757D01*
X184672311Y-182764757D02*
X184672311Y-182907614D01*
D10*
D12*
D10*
D11*
D10*
D11*
D10*
D11*
D10*
D11*
D10*
D11*
X197002200Y-191507200D02*
X197002200Y-194507200D01*
D10*
D11*
X261002200Y-191507200D02*
X261002200Y-198007200D01*
D14*
%TO.P,R3,1*%
%TO.N,Net-(U1A-+)*%
X96520000Y-45720000D03*
D15*
%TO.P,R3,2*%
%TO.N,Net-(U1D--)*%
X106680000Y-45720000D03*
%TD*%
D14*
%TO.P,R5,1*%
%TO.N,Net-(U1D-+)*%
X-91440000Y-94160000D03*
D15*
%TO.P,R5,2*%
%TO.N,GND*%
X-91440000Y-86540000D03*
%TD*%
D16*
%TO.P,RV1,1,1*%
%TO.N,+15V*%
X63460000Y-66040000D03*
%TO.P,RV1,2,2*%
%TO.N,Net-(U1A-+)*%
X60960000Y-63500000D03*
%TO.P,RV1,3,3*%
%TO.N,Net-(R1-Pad1)*%
X58460000Y-66040000D03*
%TD*%
%TO.P,RV2,1,1*%
%TO.N,GND*%
X58420000Y-50800000D03*
%TO.P,RV2,2,2*%
%TO.N,Net-(R2-Pad1)*%
X60960000Y-53340000D03*
%TO.P,RV2,3,3*%
%TO.N,+15V*%
X63420000Y-50800000D03*
%TD*%
%TO.P,RV101,1,1*%
%TO.N,+15V*%
X109155000Y-121840000D03*
%TO.P,RV101,2,2*%
%TO.N,Net-(R104-Pad1)*%
X106655000Y-119300000D03*
%TO.P,RV101,3,3*%
%TO.N,Net-(D102-K)*%
X104155000Y-121840000D03*
%TD*%
D17*
%TO.P,Q102,1,E*%
%TO.N,+15V*%
X88900000Y-119380000D03*
D18*
%TO.P,Q102,2,B*%
%TO.N,Net-(Q102-B)*%
X91440000Y-119380000D03*
%TO.P,Q102,3,C*%
%TO.N,Net-(D102-K)*%
X93980000Y-119380000D03*
%TD*%
D19*
%TO.P,D1,1,K*%
%TO.N,Net-(D1-K)*%
X76200000Y-55880000D03*
D20*
%TO.P,D1,2,A*%
%TO.N,Net-(D1-A)*%
X76200000Y-63500000D03*
%TD*%
D17*
%TO.P,Q2,1,E*%
%TO.N,Net-(Q2-E)*%
X88900000Y-50800000D03*
D18*
%TO.P,Q2,2,B*%
%TO.N,Net-(Q2-B)*%
X86360000Y-50800000D03*
%TO.P,Q2,3,C*%
%TO.N,Net-(D2-K)*%
X83820000Y-50800000D03*
%TD*%
D14*
%TO.P,R18,1*%
%TO.N,Net-(R17-Pad2)*%
X-106680000Y22860000D03*
D15*
%TO.P,R18,2*%
%TO.N,Net-(U2A-+)*%
X-99060000Y22860000D03*
%TD*%
D14*
%TO.P,C105,1*%
%TO.N,Net-(Q103-C)*%
X124460000Y-124460000D03*
%TO.P,C105,2*%
%TO.N,GND*%
X126960000Y-124460000D03*
%TD*%
%TO.P,R104,1*%
%TO.N,Net-(R104-Pad1)*%
X114300000Y-127000000D03*
D15*
%TO.P,R104,2*%
%TO.N,Net-(Q103-B)*%
X121920000Y-127000000D03*
%TD*%
D14*
%TO.P,R17,1*%
%TO.N,Net-(U1B--)*%
X-106680000Y27940000D03*
D15*
%TO.P,R17,2*%
%TO.N,Net-(R17-Pad2)*%
X-99060000Y27940000D03*
%TD*%
D14*
%TO.P,C4,1*%
%TO.N,Net-(D5-K)*%
X-66040000Y7620000D03*
%TO.P,C4,2*%
%TO.N,GND*%
X-56040000Y7620000D03*
%TD*%
D19*
%TO.P,D4,1,K*%
%TO.N,Net-(D2-K)*%
X83820000Y-55880000D03*
D20*
%TO.P,D4,2,A*%
%TO.N,/Full Schematic/TRIANGLE_OUT*%
X83820000Y-63500000D03*
%TD*%
D14*
%TO.P,R106,1*%
%TO.N,+15V*%
X152400000Y-137160000D03*
D15*
%TO.P,R106,2*%
%TO.N,Net-(U104A-RxCx)*%
X152400000Y-129540000D03*
%TD*%
D21*
%TO.P,U1,1*%
%TO.N,Net-(Q1-B)*%
X104140000Y-63500000D03*
D15*
%TO.P,U1,2,-*%
X106680000Y-63500000D03*
%TO.P,U1,3,+*%
%TO.N,Net-(U1A-+)*%
X109220000Y-63500000D03*
%TO.P,U1,4,V+*%
%TO.N,+15V*%
X111760000Y-63500000D03*
%TO.P,U1,5,+*%
%TO.N,Net-(U1B-+)*%
X114300000Y-63500000D03*
%TO.P,U1,6,-*%
%TO.N,Net-(U1B--)*%
X116840000Y-63500000D03*
%TO.P,U1,7*%
%TO.N,Net-(R17-Pad2)*%
X119380000Y-63500000D03*
%TO.P,U1,8*%
%TO.N,Net-(D1-K)*%
X119380000Y-55880000D03*
%TO.P,U1,9,-*%
%TO.N,/Full Schematic/TRIANGLE_OUT*%
X116840000Y-55880000D03*
%TO.P,U1,10,+*%
%TO.N,Net-(U1C-+)*%
X114300000Y-55880000D03*
%TO.P,U1,11,V-*%
%TO.N,GND*%
X111760000Y-55880000D03*
%TO.P,U1,12,+*%
%TO.N,Net-(U1D-+)*%
X109220000Y-55880000D03*
%TO.P,U1,13,-*%
%TO.N,Net-(U1D--)*%
X106680000Y-55880000D03*
%TO.P,U1,14*%
%TO.N,Net-(Q2-B)*%
X104140000Y-55880000D03*
%TD*%
D14*
%TO.P,R16,1*%
%TO.N,Net-(U1B-+)*%
X-106680000Y33020000D03*
D15*
%TO.P,R16,2*%
%TO.N,GND*%
X-99060000Y33020000D03*
%TD*%
D14*
%TO.P,C109,1*%
%TO.N,Net-(U105B--)*%
X190500000Y-124460000D03*
%TO.P,C109,2*%
%TO.N,Net-(C109-Pad2)*%
X188000000Y-124460000D03*
%TD*%
%TO.P,C104,1*%
%TO.N,+5V*%
X63500000Y-102551673D03*
%TO.P,C104,2*%
%TO.N,GND*%
X68650381Y-93980000D03*
%TD*%
D20*
%TO.P,D2,2,A*%
%TO.N,Net-(D1-K)*%
X76200000Y-53340000D03*
D19*
%TO.P,D2,1,K*%
%TO.N,Net-(D2-K)*%
X83820000Y-53340000D03*
%TD*%
D14*
%TO.P,C106,1*%
%TO.N,GND*%
X149860000Y-121920000D03*
%TO.P,C106,2*%
%TO.N,Net-(U104A-RxCx)*%
X152360000Y-121920000D03*
%TD*%
%TO.P,R8,1*%
%TO.N,+15V*%
X71120000Y-81280000D03*
D15*
%TO.P,R8,2*%
%TO.N,Net-(Q1-E)*%
X71120000Y-73660000D03*
%TD*%
D14*
%TO.P,R107,1*%
%TO.N,+15V*%
X154940000Y-91440000D03*
D15*
%TO.P,R107,2*%
%TO.N,Net-(U104B-RxCx)*%
X154940000Y-101600000D03*
%TD*%
D14*
%TO.P,C101,1*%
%TO.N,+15V*%
X86360000Y-91440000D03*
%TO.P,C101,2*%
%TO.N,GND*%
X96019258Y-94028190D03*
%TD*%
D21*
%TO.P,C3,1*%
%TO.N,Net-(U1B-+)*%
X-72815302Y43500000D03*
D14*
%TO.P,C3,2*%
%TO.N,GND*%
X-67815302Y43500000D03*
%TD*%
D22*
%TO.P,U3,1,DATA*%
%TO.N,Net-(U3-DATA)*%
X-64830000Y-11650000D03*
D23*
%TO.P,U3,2,VCC*%
%TO.N,Net-(D5-K)*%
X-64830000Y-14190000D03*
%TO.P,U3,3,GND*%
%TO.N,GND*%
X-64830000Y-16730000D03*
%TD*%
D14*
%TO.P,R19,1*%
%TO.N,Net-(U2A-+)*%
X-106680000Y17780000D03*
D15*
%TO.P,R19,2*%
%TO.N,Net-(U3-DATA)*%
X-99060000Y17780000D03*
%TD*%
D14*
%TO.P,R11,1*%
%TO.N,+15V*%
X-106680000Y53340000D03*
D15*
%TO.P,R11,2*%
%TO.N,Net-(U1B-+)*%
X-99060000Y53340000D03*
%TD*%
D14*
%TO.P,C110,1*%
%TO.N,Net-(U105B-+)*%
X187960000Y-106680000D03*
%TO.P,C110,2*%
%TO.N,GND*%
X190460000Y-106680000D03*
%TD*%
D19*
%TO.P,D101,1,K*%
%TO.N,Net-(D101-K)*%
X96520000Y-127000000D03*
D20*
%TO.P,D101,2,A*%
%TO.N,+15V*%
X88900000Y-127000000D03*
%TD*%
D22*
%TO.P,U101,1,VCC*%
%TO.N,+5V*%
X68580000Y-121920000D03*
D23*
%TO.P,U101,2,DATA*%
%TO.N,Net-(R101-Pad1)*%
X71120000Y-121920000D03*
%TO.P,U101,3,DATA*%
X73660000Y-121920000D03*
%TO.P,U101,4,GND*%
%TO.N,GND*%
X76200000Y-121920000D03*
%TD*%
D14*
%TO.P,R109,1*%
%TO.N,Net-(C109-Pad2)*%
X187960000Y-119380000D03*
D15*
%TO.P,R109,2*%
%TO.N,Net-(U105B-+)*%
X187960000Y-111760000D03*
%TD*%
D21*
%TO.P,U2,1*%
%TO.N,Net-(U3-DATA)*%
X-87230000Y8250000D03*
D15*
%TO.P,U2,2,-*%
%TO.N,/Full Schematic/TRIANGLE_OUT*%
X-87230000Y5710000D03*
%TO.P,U2,3,+*%
%TO.N,Net-(U2A-+)*%
X-87230000Y3170000D03*
%TO.P,U2,4,V-*%
%TO.N,GND*%
X-87230000Y630000D03*
%TO.P,U2,5,+*%
%TO.N,unconnected-(U2B-+-Pad5)*%
X-79610000Y630000D03*
%TO.P,U2,6,-*%
%TO.N,unconnected-(U2B---Pad6)*%
X-79610000Y3170000D03*
%TO.P,U2,7*%
%TO.N,unconnected-(U2-Pad7)*%
X-79610000Y5710000D03*
%TO.P,U2,8,V+*%
%TO.N,+15V*%
X-79610000Y8250000D03*
%TD*%
D21*
%TO.P,C1,1*%
%TO.N,Net-(U1D-+)*%
X-107575000Y-45715302D03*
D14*
%TO.P,C1,2*%
%TO.N,GND*%
X-107575000Y-40715302D03*
%TD*%
D19*
%TO.P,D5,1,K*%
%TO.N,Net-(D5-K)*%
X-121160000Y-7620000D03*
D20*
%TO.P,D5,2,A*%
%TO.N,GND*%
X-113540000Y-7620000D03*
%TD*%
D14*
%TO.P,C107,1*%
%TO.N,Net-(U105A-+)*%
X132120000Y-127000000D03*
%TO.P,C107,2*%
%TO.N,GND*%
X134620000Y-127000000D03*
%TD*%
%TO.P,R103,1*%
%TO.N,Net-(Q102-B)*%
X91440000Y-121920000D03*
D15*
%TO.P,R103,2*%
%TO.N,Net-(Q101-C)*%
X83820000Y-121920000D03*
%TD*%
D17*
%TO.P,Q101,1,E*%
%TO.N,GND*%
X78740000Y-127000000D03*
D18*
%TO.P,Q101,2,B*%
%TO.N,Net-(Q101-B)*%
X81280000Y-127000000D03*
%TO.P,Q101,3,C*%
%TO.N,Net-(Q101-C)*%
X83820000Y-127000000D03*
%TD*%
D19*
%TO.P,D3,1,K*%
%TO.N,/Full Schematic/TRIANGLE_OUT*%
X83820000Y-66040000D03*
D20*
%TO.P,D3,2,A*%
%TO.N,Net-(D1-A)*%
X76200000Y-66040000D03*
%TD*%
D14*
%TO.P,R101,1*%
%TO.N,Net-(R101-Pad1)*%
X73660000Y-124460000D03*
D15*
%TO.P,R101,2*%
%TO.N,Net-(Q101-B)*%
X81280000Y-124460000D03*
%TD*%
D21*
%TO.P,U104,1,Cx*%
%TO.N,GND*%
X149860000Y-119380000D03*
D15*
%TO.P,U104,2,RxCx*%
%TO.N,Net-(U104A-RxCx)*%
X152400000Y-119380000D03*
%TO.P,U104,3,R*%
%TO.N,+15V*%
X154940000Y-119380000D03*
%TO.P,U104,4,Clk+*%
%TO.N,GND*%
X157480000Y-119380000D03*
%TO.P,U104,5,Clk-*%
%TO.N,Net-(Q101-C)*%
X160020000Y-119380000D03*
%TO.P,U104,6,Q*%
%TO.N,/Full Schematic/CAPTURE*%
X162560000Y-119380000D03*
%TO.P,U104,7,~{Q}*%
%TO.N,unconnected-(U104A-~{Q}-Pad7)*%
X165100000Y-119380000D03*
%TO.P,U104,8,VSS*%
%TO.N,GND*%
X167640000Y-119380000D03*
%TO.P,U104,9,~{Q}*%
%TO.N,unconnected-(U104B-~{Q}-Pad9)*%
X167640000Y-111760000D03*
%TO.P,U104,10,Q*%
%TO.N,/Full Schematic/RESET*%
X165100000Y-111760000D03*
%TO.P,U104,11,Clk-*%
%TO.N,/Full Schematic/CAPTURE*%
X162560000Y-111760000D03*
%TO.P,U104,12,Clk+*%
%TO.N,GND*%
X160020000Y-111760000D03*
%TO.P,U104,13,R*%
%TO.N,+15V*%
X157480000Y-111760000D03*
%TO.P,U104,14,RxCx*%
%TO.N,Net-(U104B-RxCx)*%
X154940000Y-111760000D03*
%TO.P,U104,15,Cx*%
%TO.N,GND*%
X152400000Y-111760000D03*
%TO.P,U104,16,VDD*%
%TO.N,+15V*%
X149860000Y-111760000D03*
%TD*%
D14*
%TO.P,R12,1*%
%TO.N,+15V*%
X-106680000Y48260000D03*
D15*
%TO.P,R12,2*%
%TO.N,Net-(U1B--)*%
X-99060000Y48260000D03*
%TD*%
D14*
%TO.P,R14,1*%
%TO.N,Net-(U1C-+)*%
X-22860000Y0D03*
D15*
%TO.P,R14,2*%
%TO.N,GND*%
X-15240000Y0D03*
%TD*%
D14*
%TO.P,R7,1*%
%TO.N,Net-(R13-Pad1)*%
X-121920000Y27940000D03*
D15*
%TO.P,R7,2*%
%TO.N,GND*%
X-114300000Y27940000D03*
%TD*%
D17*
%TO.P,Q103,1,E*%
%TO.N,Net-(Q103-E)*%
X119380000Y-121920000D03*
D18*
%TO.P,Q103,2,B*%
%TO.N,Net-(Q103-B)*%
X121920000Y-121920000D03*
%TO.P,Q103,3,C*%
%TO.N,Net-(Q103-C)*%
X124460000Y-121920000D03*
%TD*%
D21*
%TO.P,U105,1*%
%TO.N,Net-(U105A--)*%
X177800000Y-119380000D03*
D15*
%TO.P,U105,2,-*%
X180340000Y-119380000D03*
%TO.P,U105,3,+*%
%TO.N,Net-(U105A-+)*%
X182880000Y-119380000D03*
%TO.P,U105,4,V-*%
%TO.N,GND*%
X185420000Y-119380000D03*
%TO.P,U105,5,+*%
%TO.N,Net-(U105B-+)*%
X185420000Y-111760000D03*
%TO.P,U105,6,-*%
%TO.N,Net-(U105B--)*%
X182880000Y-111760000D03*
%TO.P,U105,7*%
X180340000Y-111760000D03*
%TO.P,U105,8,V+*%
%TO.N,+15V*%
X177800000Y-111760000D03*
%TD*%
D14*
%TO.P,R108,1*%
%TO.N,Net-(U105A--)*%
X180340000Y-127000000D03*
D15*
%TO.P,R108,2*%
%TO.N,Net-(C109-Pad2)*%
X187960000Y-127000000D03*
%TD*%
D14*
%TO.P,R2,1*%
%TO.N,Net-(R2-Pad1)*%
X99060000Y-48260000D03*
D15*
%TO.P,R2,2*%
%TO.N,Net-(U1D--)*%
X106680000Y-48260000D03*
%TD*%
D21*
%TO.P,C102,1*%
%TO.N,+15V*%
X83740000Y-109220000D03*
D14*
%TO.P,C102,2*%
%TO.N,GND*%
X78740000Y-109220000D03*
%TD*%
%TO.P,R9,1*%
%TO.N,Net-(Q2-E)*%
X88900000Y-45720000D03*
D15*
%TO.P,R9,2*%
%TO.N,GND*%
X88900000Y-38100000D03*
%TD*%
D14*
%TO.P,R15,1*%
%TO.N,Net-(U1C-+)*%
X-22860000Y-5080000D03*
D15*
%TO.P,R15,2*%
%TO.N,Net-(D1-K)*%
X-15240000Y-5080000D03*
%TD*%
D14*
%TO.P,R1,1*%
%TO.N,Net-(R1-Pad1)*%
X-111760000Y-94160000D03*
D15*
%TO.P,R1,2*%
%TO.N,GND*%
X-111760000Y-86540000D03*
%TD*%
D14*
%TO.P,R13,1*%
%TO.N,Net-(R13-Pad1)*%
X-106680000Y43180000D03*
D15*
%TO.P,R13,2*%
%TO.N,Net-(U1B--)*%
X-99060000Y43180000D03*
%TD*%
D14*
%TO.P,C108,1*%
%TO.N,GND*%
X152400000Y-106680000D03*
%TO.P,C108,2*%
%TO.N,Net-(U104B-RxCx)*%
X154900000Y-106680000D03*
%TD*%
%TO.P,C2,1*%
%TO.N,/Full Schematic/TRIANGLE_OUT*%
X-20570000Y-31620000D03*
%TO.P,C2,2*%
%TO.N,GND*%
X-18070000Y-31620000D03*
%TD*%
%TO.P,R4,1*%
%TO.N,+15V*%
X-96520000Y-94160000D03*
D15*
%TO.P,R4,2*%
%TO.N,Net-(U1D-+)*%
X-96520000Y-86540000D03*
%TD*%
D21*
%TO.P,C103,1*%
%TO.N,+5V*%
X63500000Y-109220000D03*
D14*
%TO.P,C103,2*%
%TO.N,GND*%
X58500000Y-109220000D03*
%TD*%
D19*
%TO.P,D102,1,K*%
%TO.N,Net-(D102-K)*%
X104140000Y-129540000D03*
D20*
%TO.P,D102,2,A*%
%TO.N,Net-(D101-K)*%
X96520000Y-129540000D03*
%TD*%
D14*
%TO.P,R10,1*%
%TO.N,+15V*%
X-38050000Y-25400000D03*
D15*
%TO.P,R10,2*%
%TO.N,Net-(U1C-+)*%
X-30430000Y-25400000D03*
%TD*%
D24*
%TO.P,U102,1,VI*%
%TO.N,+15V*%
X73660000Y-104140000D03*
D25*
%TO.P,U102,2,GND*%
%TO.N,GND*%
X71120000Y-104140000D03*
%TO.P,U102,3,VO*%
%TO.N,+5V*%
X68580000Y-104140000D03*
%TD*%
D14*
%TO.P,R21,1*%
%TO.N,+15V*%
X-91440000Y55880000D03*
D15*
%TO.P,R21,2*%
%TO.N,Net-(D5-K)*%
X-83820000Y55880000D03*
%TD*%
D17*
%TO.P,Q1,1,E*%
%TO.N,Net-(Q1-E)*%
X71120000Y-68580000D03*
D18*
%TO.P,Q1,2,B*%
%TO.N,Net-(Q1-B)*%
X73660000Y-68580000D03*
%TO.P,Q1,3,C*%
%TO.N,Net-(D1-A)*%
X76200000Y-68580000D03*
%TD*%
D14*
%TO.P,R102,1*%
%TO.N,+15V*%
X83820000Y-137160000D03*
D15*
%TO.P,R102,2*%
%TO.N,Net-(Q101-C)*%
X83820000Y-129540000D03*
%TD*%
D14*
%TO.P,R20,1*%
%TO.N,+15V*%
X-106680000Y12700000D03*
D15*
%TO.P,R20,2*%
%TO.N,Net-(U3-DATA)*%
X-99060000Y12700000D03*
%TD*%
D21*
%TO.P,U103,1*%
%TO.N,Net-(Q103-C)*%
X129535000Y-119380000D03*
D15*
%TO.P,U103,2*%
%TO.N,Net-(U105A-+)*%
X132075000Y-119380000D03*
%TO.P,U103,3*%
%TO.N,GND*%
X134615000Y-119380000D03*
%TO.P,U103,4*%
%TO.N,Net-(Q103-C)*%
X137155000Y-119380000D03*
%TO.P,U103,5*%
%TO.N,/Full Schematic/RESET*%
X139695000Y-119380000D03*
%TO.P,U103,6*%
X142235000Y-119380000D03*
%TO.P,U103,7,V_{SS}*%
%TO.N,GND*%
X144775000Y-119380000D03*
%TO.P,U103,8*%
%TO.N,Net-(Q103-C)*%
X144775000Y-111760000D03*
%TO.P,U103,9*%
%TO.N,GND*%
X142235000Y-111760000D03*
%TO.P,U103,10*%
%TO.N,Net-(U105A-+)*%
X139695000Y-111760000D03*
%TO.P,U103,11*%
%TO.N,Net-(Q103-C)*%
X137155000Y-111760000D03*
%TO.P,U103,12*%
%TO.N,/Full Schematic/CAPTURE*%
X134615000Y-111760000D03*
%TO.P,U103,13*%
X132075000Y-111760000D03*
%TO.P,U103,14,V_{DD}*%
%TO.N,+15V*%
X129535000Y-111760000D03*
%TD*%
D14*
%TO.P,R6,1*%
%TO.N,Net-(U1D--)*%
X-86360000Y-94160000D03*
D15*
%TO.P,R6,2*%
%TO.N,Net-(Q2-B)*%
X-86360000Y-86540000D03*
%TD*%
D14*
%TO.P,R105,1*%
%TO.N,+15V*%
X119380000Y-137160000D03*
D15*
%TO.P,R105,2*%
%TO.N,Net-(Q103-E)*%
X119380000Y-129540000D03*
%TD*%
D26*
%TO.N,Net-(Q1-B)*%
X73660000Y-71120000D03*
X104140000Y-71120000D03*
X104140000Y-66040000D03*
X106680000Y-66040000D03*
%TO.N,Net-(R2-Pad1)*%
X60960000Y-48260000D03*
%TO.N,GND*%
X63500000Y-38100000D03*
%TO.N,+15V*%
X66040000Y-35560000D03*
X63500000Y-45720000D03*
%TO.N,GND*%
X58420000Y-45720000D03*
%TO.N,+15V*%
X63500000Y-81280000D03*
X63500000Y-73660000D03*
%TO.N,GND*%
X111760000Y-38100000D03*
X111760000Y-45720000D03*
%TO.N,+15V*%
X111760000Y-81280000D03*
X111760000Y-73660000D03*
X208280000Y-35560000D03*
%TO.N,GND*%
X210820000Y-38100000D03*
%TO.N,+15V*%
X208280000Y-45720000D03*
%TO.N,GND*%
X210820000Y-45720000D03*
%TO.N,+15V*%
X208280000Y-55880000D03*
%TO.N,GND*%
X210820000Y-55880000D03*
%TO.N,+15V*%
X208280000Y-63500000D03*
%TO.N,GND*%
X210820000Y-63500000D03*
%TO.N,+15V*%
X208280000Y-73660000D03*
%TO.N,GND*%
X210820000Y-73660000D03*
%TO.N,+15V*%
X208280000Y-81280000D03*
%TO.N,GND*%
X210820000Y-83820000D03*
%TO.N,+15V*%
X208280000Y-91440000D03*
%TO.N,GND*%
X210820000Y-93980000D03*
%TO.N,+15V*%
X208280000Y-101600000D03*
%TO.N,GND*%
X210820000Y-101600000D03*
%TO.N,+15V*%
X208280000Y-111760000D03*
%TO.N,GND*%
X210820000Y-111760000D03*
%TO.N,+15V*%
X208280000Y-119380000D03*
%TO.N,GND*%
X210820000Y-119380000D03*
%TO.N,+15V*%
X208280000Y-129540000D03*
%TO.N,GND*%
X210820000Y-129540000D03*
%TO.N,+15V*%
X208280000Y-137160000D03*
%TO.N,GND*%
X210820000Y-139700000D03*
X78740000Y-129540000D03*
X149860000Y-139700000D03*
X142240000Y-101600000D03*
X134620000Y-139700000D03*
X190500000Y-101600000D03*
X134620000Y-83820000D03*
X76200000Y-119380000D03*
X185420000Y-139700000D03*
X139700000Y-38100000D03*
X78740000Y-93980000D03*
X71120000Y-109220000D03*
X142240000Y-93980000D03*
X139700000Y-83820000D03*
X134620000Y-38100000D03*
X76200000Y-139700000D03*
X76200000Y-104140000D03*
X157480000Y-127000000D03*
X144780000Y-139700000D03*
X152400000Y-93980000D03*
X149860000Y-129540000D03*
X149860000Y-127000000D03*
X144780000Y-129540000D03*
X63500000Y-93980000D03*
X127000000Y-139700000D03*
X132080000Y-139700000D03*
X76200000Y-109220000D03*
X185420000Y-129540000D03*
X78740000Y-104140000D03*
X152400000Y-101600000D03*
X76200000Y-111760000D03*
X139700000Y-93980000D03*
X167640000Y-129540000D03*
X139700000Y-139700000D03*
X160020000Y-101600000D03*
X190500000Y-93980000D03*
X78740000Y-101600000D03*
X127000000Y-129540000D03*
X71120000Y-101600000D03*
X167640000Y-139700000D03*
X134620000Y-93980000D03*
X76200000Y-129540000D03*
X58420000Y-101600000D03*
X78740000Y-139700000D03*
X160020000Y-93980000D03*
X71120000Y-93980000D03*
X134620000Y-129540000D03*
%TO.N,+15V*%
X157480000Y-91440000D03*
X177800000Y-91440000D03*
X109220000Y-129540000D03*
X83820000Y-101600000D03*
X73660000Y-101600000D03*
X129540000Y-101600000D03*
X134620000Y-81280000D03*
X134620000Y-91440000D03*
X83820000Y-91440000D03*
X109220000Y-137160000D03*
X129540000Y-91440000D03*
X177800000Y-101600000D03*
X134620000Y-137160000D03*
X154940000Y-129540000D03*
X149860000Y-101600000D03*
X88900000Y-129540000D03*
X149860000Y-91440000D03*
X154940000Y-137160000D03*
X139700000Y-81280000D03*
X139700000Y-35560000D03*
X73660000Y-91440000D03*
X139700000Y-91440000D03*
X134620000Y-35560000D03*
X139700000Y-137160000D03*
X88900000Y-137160000D03*
X157480000Y-101600000D03*
%TO.N,+5V*%
X68580000Y-111760000D03*
X68580000Y-119380000D03*
X63500000Y-106680000D03*
X68580000Y-106680000D03*
%TO.N,Net-(Q103-C)*%
X124460000Y-111760000D03*
X137160000Y-124460000D03*
X124460000Y-104140000D03*
X124460000Y-127000000D03*
X124460000Y-119380000D03*
X144780000Y-106680000D03*
X129540000Y-124460000D03*
X137160000Y-106680000D03*
X129540000Y-127000000D03*
X137160000Y-104140000D03*
%TO.N,Net-(U105A-+)*%
X182880000Y-124460000D03*
X139700000Y-109220000D03*
X139700000Y-104140000D03*
X132080000Y-121920000D03*
%TO.N,Net-(U105B--)*%
X182880000Y-109220000D03*
X190500000Y-115570000D03*
X190500000Y-119380000D03*
X175260000Y-115570000D03*
X182880000Y-106680000D03*
X175260000Y-106680000D03*
X175260000Y-111760000D03*
X180340000Y-109220000D03*
%TO.N,Net-(U105B-+)*%
X185420000Y-109220000D03*
%TO.N,Net-(D102-K)*%
X93980000Y-124460000D03*
X104140000Y-124460000D03*
%TO.N,Net-(Q101-C)*%
X83820000Y-119380000D03*
X170180000Y-115570000D03*
X87630000Y-115570000D03*
X160020000Y-121920000D03*
%TO.N,Net-(R101-Pad1)*%
X71120000Y-127000000D03*
X73660000Y-127000000D03*
%TO.N,Net-(R104-Pad1)*%
X106680000Y-124460000D03*
X114300000Y-124460000D03*
%TO.N,Net-(U105A--)*%
X180340000Y-121920000D03*
X177800000Y-121920000D03*
%TO.N,/Full Schematic/RESET*%
X142240000Y-121920000D03*
X165100000Y-109220000D03*
X139700000Y-121920000D03*
X142240000Y-124460000D03*
%TO.N,/Full Schematic/CAPTURE*%
X162560000Y-106680000D03*
X162560000Y-96520000D03*
X134620000Y-96520000D03*
X134620000Y-106680000D03*
X162560000Y-124460000D03*
X134620000Y-101600000D03*
X162560000Y-101600000D03*
X132080000Y-106680000D03*
%TD*%
D27*
%TO.N,Net-(Q1-B)*%
X104140000Y-66040000D02*
X106680000Y-66040000D01*
%TO.N,+15V*%
X66040000Y-43180000D02*
X66040000Y-35560000D01*
X63500000Y-45720000D02*
X66040000Y-43180000D01*
%TO.N,GND*%
X58420000Y-43180000D02*
X63500000Y-38100000D01*
X58420000Y-45720000D02*
X58420000Y-43180000D01*
%TO.N,+15V*%
X63500000Y-81280000D02*
X63500000Y-73660000D01*
%TO.N,GND*%
X111760000Y-45720000D02*
X111760000Y-38100000D01*
%TO.N,+15V*%
X111760000Y-73660000D02*
X111760000Y-81280000D01*
%TO.N,GND*%
X210820000Y-45720000D02*
X210820000Y-38100000D01*
X210820000Y-63500000D02*
X210820000Y-55880000D01*
X210820000Y-83820000D02*
X210820000Y-73660000D01*
X210820000Y-93980000D02*
X210820000Y-83820000D01*
X210820000Y-101600000D02*
X210820000Y-93980000D01*
X210820000Y-119380000D02*
X210820000Y-111760000D01*
X210820000Y-139700000D02*
X210820000Y-129540000D01*
%TO.N,+15V*%
X208280000Y-63500000D02*
X208280000Y-55880000D01*
X208280000Y-81280000D02*
X208280000Y-73660000D01*
X208280000Y-91440000D02*
X208280000Y-81280000D01*
X208280000Y-101600000D02*
X208280000Y-91440000D01*
X208280000Y-119380000D02*
X208280000Y-111760000D01*
X208280000Y-137160000D02*
X208280000Y-129540000D01*
X208280000Y-45720000D02*
X208280000Y-36285000D01*
%TO.N,GND*%
X144780000Y-139700000D02*
X144780000Y-129540000D01*
X78740000Y-139700000D02*
X78740000Y-129540000D01*
X157480000Y-127000000D02*
X149860000Y-127000000D01*
X134620000Y-93980000D02*
X139700000Y-93980000D01*
X142240000Y-101600000D02*
X142240000Y-93980000D01*
X160020000Y-93980000D02*
X160020000Y-101600000D01*
X190500000Y-101600000D02*
X190500000Y-93980000D01*
X139700000Y-139700000D02*
X134620000Y-139700000D01*
X134620000Y-83820000D02*
X139700000Y-83820000D01*
X167640000Y-139700000D02*
X167640000Y-129540000D01*
X76200000Y-111760000D02*
X76200000Y-119380000D01*
X185420000Y-139700000D02*
X185420000Y-129540000D01*
X152400000Y-101600000D02*
X152400000Y-93980000D01*
X149860000Y-139700000D02*
X149860000Y-129540000D01*
X127000000Y-139700000D02*
X127000000Y-129540000D01*
X78740000Y-104140000D02*
X76200000Y-104140000D01*
X71120000Y-109220000D02*
X76200000Y-109220000D01*
X78740000Y-93980000D02*
X78740000Y-101600000D01*
X58420000Y-99060000D02*
X63500000Y-93980000D01*
X71120000Y-101600000D02*
X71120000Y-93980000D01*
X76200000Y-129540000D02*
X76200000Y-139700000D01*
X58420000Y-101600000D02*
X58420000Y-99060000D01*
X134620000Y-129540000D02*
X132080000Y-132080000D01*
X134620000Y-38100000D02*
X139700000Y-38100000D01*
X132080000Y-132080000D02*
X132080000Y-139700000D01*
%TO.N,+15V*%
X154940000Y-137160000D02*
X154940000Y-129540000D01*
X134620000Y-91440000D02*
X139700000Y-91440000D01*
X134620000Y-81280000D02*
X139700000Y-81280000D01*
X134620000Y-137160000D02*
X139700000Y-137160000D01*
X157480000Y-101600000D02*
X157480000Y-91440000D01*
X83820000Y-101600000D02*
X83820000Y-91440000D01*
X134620000Y-35560000D02*
X139700000Y-35560000D01*
X149860000Y-101600000D02*
X149860000Y-91440000D01*
X109220000Y-129540000D02*
X109220000Y-137160000D01*
X73660000Y-101600000D02*
X73660000Y-91440000D01*
X177800000Y-101600000D02*
X177800000Y-91440000D01*
X88900000Y-129540000D02*
X88900000Y-137160000D01*
X129540000Y-101600000D02*
X129540000Y-91440000D01*
%TO.N,+5V*%
X68580000Y-119380000D02*
X68580000Y-111760000D01*
X63500000Y-106680000D02*
X68580000Y-106680000D01*
%TO.N,Net-(Q103-C)*%
X124460000Y-119380000D02*
X124460000Y-111760000D01*
X124460000Y-127000000D02*
X129540000Y-127000000D01*
X144780000Y-106680000D02*
X137160000Y-106680000D01*
X129540000Y-124460000D02*
X137160000Y-124460000D01*
X137160000Y-104140000D02*
X124460000Y-104140000D01*
%TO.N,Net-(U105A-+)*%
X173631433Y-124460000D02*
X182880000Y-124460000D01*
X132080000Y-121920000D02*
X127000000Y-121920000D01*
X127000000Y-109220000D02*
X139700000Y-109220000D01*
X139700000Y-104140000D02*
X173631433Y-104140000D01*
X127000000Y-121920000D02*
X127000000Y-109220000D01*
X173631433Y-104140000D02*
X173631433Y-124460000D01*
%TO.N,Net-(U105B--)*%
X190500000Y-119380000D02*
X190500000Y-115570000D01*
X175260000Y-106680000D02*
X182880000Y-106680000D01*
X175260000Y-111760000D02*
X175260000Y-115570000D01*
X182880000Y-109220000D02*
X180340000Y-109220000D01*
%TO.N,Net-(U105B-+)*%
X187960000Y-109220000D02*
X185420000Y-109220000D01*
%TO.N,Net-(D102-K)*%
X104140000Y-124460000D02*
X93980000Y-124460000D01*
%TO.N,Net-(Q101-C)*%
X87630000Y-115570000D02*
X83820000Y-119380000D01*
X170180000Y-121920000D02*
X160020000Y-121920000D01*
X170180000Y-115570000D02*
X170180000Y-121920000D01*
%TO.N,Net-(R101-Pad1)*%
X71120000Y-127000000D02*
X73660000Y-127000000D01*
%TO.N,Net-(R104-Pad1)*%
X114300000Y-124460000D02*
X106680000Y-124460000D01*
%TO.N,Net-(U105A--)*%
X180340000Y-121920000D02*
X177800000Y-121920000D01*
%TO.N,/Full Schematic/RESET*%
X147320000Y-111760000D02*
X147320000Y-121920000D01*
X144780000Y-124460000D02*
X142240000Y-124460000D01*
X142240000Y-121920000D02*
X139700000Y-121920000D01*
X149860000Y-109220000D02*
X147320000Y-111760000D01*
X147320000Y-121920000D02*
X144780000Y-124460000D01*
X165100000Y-109220000D02*
X149860000Y-109220000D01*
%TO.N,/Full Schematic/CAPTURE*%
X134620000Y-96520000D02*
X134620000Y-101600000D01*
X162560000Y-101600000D02*
X162560000Y-96520000D01*
X134620000Y-106680000D02*
X132080000Y-106680000D01*
X171890547Y-124460000D02*
X171890547Y-106680000D01*
X171890547Y-106680000D02*
X162560000Y-106680000D01*
X162560000Y-124460000D02*
X171890547Y-124460000D01*
%TD*%
M02*
